<svg width="24" height="25" viewBox="0 0 24 25" fill="none" xmlns="http://www.w3.org/2000/svg">
<path fill-rule="evenodd" clip-rule="evenodd" d="M8 0H6V1.26087H5.71429C2.55837 1.26087 0 3.79143 0 6.91304V19.3478C0 22.4694 2.55837 25 5.71428 25H18.2857C21.4416 25 24 22.4694 24 19.3478V6.91304C24 3.79143 21.4416 1.26087 18.2857 1.26087H18V0H16V1.26087H8V0ZM5.71429 3.29565H18.2857C20.3055 3.29565 21.9429 4.91521 21.9429 6.91304V19.3478C21.9429 21.3457 20.3055 22.9652 18.2857 22.9652H5.71428C3.6945 22.9652 2.05714 21.3457 2.05714 19.3478V6.91304C2.05714 4.91521 3.6945 3.29565 5.71429 3.29565ZM14.52 12.08L12.92 10.48L8 15.4V17H9.6L14.52 12.08ZM14.4 9L13.48 9.92L15.08 11.52L16 10.6L14.4 9Z" fill="#1E1C1C"/>
</svg>
