<svg width="48" height="30" viewBox="0 0 48 30" fill="none" xmlns="http://www.w3.org/2000/svg">
<path d="M43.4535 0H4.18C1.87145 0 0 1.87145 0 4.18V25.5895C0 27.8981 1.87145 29.7695 4.18 29.7695H43.4535C45.7621 29.7695 47.6335 27.8981 47.6335 25.5895V4.18C47.6335 1.87145 45.7621 0 43.4535 0Z" fill="#F9F9F9"/>
<path fill-rule="evenodd" clip-rule="evenodd" d="M29.5341 23.4315L29.9746 23.4201L30.4113 23.3897L30.8367 23.3327L31.2582 23.2568L31.6721 23.1618L32.0785 23.0479L32.4772 22.9112L32.8646 22.7593L33.2444 22.5884L33.6165 22.3985L33.9735 22.1934L34.3229 21.9694L34.6571 21.7301L34.9799 21.4757L35.2913 21.2099L35.5875 20.925L35.8723 20.625L36.1419 20.3136L36.3926 19.9946L36.6318 19.6566L36.8559 19.311L37.061 18.9503L37.2509 18.5819L37.4217 18.2021L37.5737 17.8148L37.7104 17.416L37.8281 17.0097L37.923 16.5957L37.9952 16.1742L38.0522 15.7451L38.0825 15.3122L38.0939 14.8716L38.0825 14.4311L38.0522 13.9982L37.9952 13.5728L37.923 13.1551L37.8281 12.7412L37.7104 12.3386L37.5737 11.9399L37.4217 11.5563L37.2509 11.1765L37.061 10.8082L36.8559 10.455L36.6318 10.1056L36.3926 9.77143L36.1419 9.45243L35.8723 9.14102L35.5875 8.84101L35.2913 8.55999L34.9799 8.29036L34.6571 8.03971L34.3229 7.80046L33.9735 7.5764L33.6165 7.37133L33.2444 7.18525L32.8646 7.01056L32.4772 6.85865L32.0785 6.72194L31.6721 6.60801L31.2582 6.51307L30.8367 6.43712L30.4113 6.38395L29.9746 6.35357L29.5341 6.33838L29.0936 6.35357L28.6606 6.38395L28.2315 6.43712L27.81 6.51307L27.3998 6.60801L26.9935 6.72194L26.5985 6.85865L26.2112 7.01056L25.8314 7.18525L25.4668 7.37133L25.1099 7.5764L24.7605 7.80046L24.4301 8.03971L24.1035 8.29036L23.7959 8.55999L23.4997 8.84101L23.2186 9.14102L22.949 9.45243L22.6946 9.77143L22.4591 10.1056L22.2389 10.455L22.0338 10.8082L21.8439 11.1765L21.673 11.5563L21.5173 11.9399L21.3882 12.3386L21.2705 12.7412L21.1755 13.1551L21.0996 13.5728L21.0464 13.9982L21.016 14.4311L21.0046 14.8716L21.016 15.3122L21.0464 15.7451L21.0996 16.1742L21.1755 16.5957L21.2705 17.0097L21.3882 17.416L21.5173 17.8148L21.673 18.2021L21.8439 18.5819L22.0338 18.9503L22.2389 19.311L22.4591 19.6566L22.6946 19.9946L22.949 20.3136L23.2186 20.625L23.4997 20.925L23.7959 21.2099L24.1035 21.4757L24.4301 21.7301L24.7605 21.9694L25.1099 22.1934L25.4668 22.3985L25.8314 22.5884L26.2112 22.7593L26.5985 22.9112L26.9935 23.0479L27.3998 23.1618L27.81 23.2568L28.2315 23.3327L28.6606 23.3897L29.0936 23.4201L29.5341 23.4315Z" fill="#FBB231"/>
<path fill-rule="evenodd" clip-rule="evenodd" d="M18.0995 23.4315L18.5362 23.4201L18.9729 23.3897L19.402 23.3327L19.8198 23.2568L20.2337 23.1618L20.6401 23.0479L21.035 22.9112L21.4224 22.7593L21.8021 22.5884L22.1667 22.3985L22.5237 22.1934L22.8693 21.9694L23.2072 21.7301L23.53 21.4757L23.8377 21.2099L24.1339 20.925L24.4149 20.625L24.6845 20.3136L24.939 19.9946L25.1744 19.6566L25.3985 19.311L25.5998 18.9503L25.7896 18.5819L25.9605 18.2021L26.1162 17.8148L26.2453 17.416L26.3631 17.0097L26.458 16.5957L26.5302 16.1742L26.5871 15.7451L26.6175 15.3122L26.6289 14.8716L26.6175 14.4311L26.5871 13.9982L26.5302 13.5728L26.458 13.1551L26.3631 12.7412L26.2453 12.3386L26.1162 11.9399L25.9605 11.5563L25.7896 11.1765L25.5998 10.8082L25.3985 10.455L25.1744 10.1056L24.939 9.77143L24.6845 9.45243L24.4149 9.14102L24.1339 8.84101L23.8377 8.55999L23.53 8.29036L23.2072 8.03971L22.8693 7.80046L22.5237 7.5764L22.1667 7.37133L21.8021 7.18525L21.4224 7.01056L21.035 6.85865L20.6401 6.72194L20.2337 6.60801L19.8198 6.51307L19.402 6.43712L18.9729 6.38395L18.5362 6.35357L18.0995 6.33838L17.6589 6.35357L17.2222 6.38395L16.7969 6.43712L16.3753 6.51307L15.9614 6.60801L15.555 6.72194L15.1563 6.85865L14.7689 7.01056L14.3892 7.18525L14.017 7.37133L13.66 7.5764L13.3107 7.80046L12.9765 8.03971L12.6537 8.29036L12.3423 8.55999L12.046 8.84101L11.7612 9.14102L11.4954 9.45243L11.241 9.77143L11.0017 10.1056L10.7776 10.455L10.5726 10.8082L10.3827 11.1765L10.2118 11.5563L10.0561 11.9399L9.92318 12.3386L9.80545 12.7412L9.71051 13.1551L9.63836 13.5728L9.58139 13.9982L9.55101 14.4311L9.53962 14.8716L9.55101 15.3122L9.58139 15.7451L9.63836 16.1742L9.71051 16.5957L9.80545 17.0097L9.92318 17.416L10.0561 17.8148L10.2118 18.2021L10.3827 18.5819L10.5726 18.9503L10.7776 19.311L11.0017 19.6566L11.241 19.9946L11.4954 20.3136L11.7612 20.625L12.046 20.925L12.3423 21.2099L12.6537 21.4757L12.9765 21.7301L13.3107 21.9694L13.66 22.1934L14.017 22.3985L14.3892 22.5884L14.7689 22.7593L15.1563 22.9112L15.555 23.0479L15.9614 23.1618L16.3753 23.2568L16.7969 23.3327L17.2222 23.3897L17.6589 23.4201L18.0995 23.4315Z" fill="#EC1C2E"/>
<path fill-rule="evenodd" clip-rule="evenodd" d="M22.8161 9.65234H27.3581V9.15234H23.2073L22.8161 9.65234Z" fill="#FBB231"/>
<path fill-rule="evenodd" clip-rule="evenodd" d="M22.1363 10.6851H27.358V10.1851H22.4098L22.1363 10.6851Z" fill="#FBB231"/>
<path fill-rule="evenodd" clip-rule="evenodd" d="M21.6274 11.7144H27.358V11.2144H21.8287L21.6274 11.7144Z" fill="#FBB231"/>
<path fill-rule="evenodd" clip-rule="evenodd" d="M21.2781 12.7476H27.358V12.2476H21.4224L21.2781 12.7476Z" fill="#FBB231"/>
<path fill-rule="evenodd" clip-rule="evenodd" d="M21.4831 17.7334H27.3694V17.2334H21.3388L21.4831 17.7334Z" fill="#FBB231"/>
<path fill-rule="evenodd" clip-rule="evenodd" d="M21.9161 18.7666H27.3694V18.2666H21.6996L21.9161 18.7666Z" fill="#FBB231"/>
<path fill-rule="evenodd" clip-rule="evenodd" d="M22.5275 19.7959H27.3694V19.2959H22.2389L22.5275 19.7959Z" fill="#FBB231"/>
<path fill-rule="evenodd" clip-rule="evenodd" d="M23.3705 20.8247H27.3694V20.3247H22.9642L23.3705 20.8247Z" fill="#FBB231"/>
<path fill-rule="evenodd" clip-rule="evenodd" d="M21.0768 13.7764H27.358V13.2764H21.1641L21.0768 13.7764Z" fill="#FBB231"/>
<path fill-rule="evenodd" clip-rule="evenodd" d="M24.9048 16.7046H27.2973V16.2046H24.9921L24.9048 16.7046Z" fill="#FBB231"/>
<path fill-rule="evenodd" clip-rule="evenodd" d="M25.0947 15.6714H27.2973V15.1714H25.182L25.0947 15.6714Z" fill="#FBB231"/>
<path fill-rule="evenodd" clip-rule="evenodd" d="M20.9173 15.1714H21.5401V15.6714H20.9477L20.9173 15.1714Z" fill="#FBB231"/>
<path fill-rule="evenodd" clip-rule="evenodd" d="M19.7552 14.6096L19.7134 14.6058L19.6755 14.602L19.6375 14.5982L19.5995 14.5906L19.5653 14.5868L19.5274 14.5792L19.4894 14.5716L19.4476 14.5678L19.4096 14.5603H19.3641L19.3109 14.5565L19.2577 14.5527H19.197L19.1286 14.5565L19.0527 14.5603L18.9691 14.5678L18.9121 14.5754L18.859 14.5868L18.8096 14.602L18.7678 14.6172L18.7261 14.64L18.6881 14.6628L18.6577 14.6932L18.6311 14.716L18.6159 14.7501L18.6007 14.7805L18.5969 14.8147V14.8489L18.6045 14.8868L18.6159 14.9248L18.6387 14.9628L18.6691 15.0008L18.7261 15.0539L18.7944 15.0995L18.8742 15.1337L18.9615 15.1679L19.0527 15.1945L19.1476 15.2286L19.2463 15.2628L19.3375 15.3008L19.4248 15.3502L19.5046 15.4109L19.5767 15.4831L19.6375 15.5704L19.6831 15.6806L19.7134 15.8097L19.7248 15.9654L19.7134 16.1477L19.6907 16.2844L19.6565 16.4021L19.6109 16.5122L19.5539 16.6072L19.4856 16.6907L19.4134 16.7591L19.3299 16.8236L19.2425 16.8806L19.1476 16.9224L19.0527 16.9603L18.9577 16.9869L18.8552 17.0135L18.7564 17.0287L18.6615 17.0363L18.5666 17.0439L18.4792 17.0477H18.3539L18.24 17.0439H18.1374L18.0425 17.0401L17.9551 17.0363L17.8792 17.0325L17.8108 17.0249L17.7425 17.0173L17.6817 17.0135L17.6286 17.0021L17.5716 16.9907L17.5222 16.9755L17.4766 16.9641L17.4273 16.949L17.3817 16.93L17.3323 16.9148L17.4615 16.2768L17.488 16.2844L17.5222 16.292L17.5602 16.3034L17.6096 16.3148L17.6627 16.3261L17.7197 16.3375L17.7843 16.3527L17.8526 16.3641L17.9248 16.3755L18.0007 16.3869L18.0767 16.3945L18.1564 16.4021L18.24 16.4059L18.3273 16.4097H18.4071L18.4906 16.4059L18.5742 16.3907L18.6425 16.3641L18.6957 16.3337L18.7337 16.2958L18.764 16.254L18.7868 16.2084L18.802 16.1628L18.8134 16.1173L18.8172 16.0337L18.7906 15.9616L18.7413 15.9046L18.6691 15.8552L18.5856 15.8135L18.483 15.7679L18.3729 15.7299L18.259 15.6843L18.145 15.6312L18.0349 15.5704L17.9324 15.4945L17.8412 15.4071L17.7691 15.297L17.7159 15.1679L17.6893 15.0122L17.6931 14.8261L17.7083 14.716L17.7273 14.6058L17.7577 14.5109L17.7918 14.4159L17.8374 14.3324L17.8906 14.2564L17.9513 14.1843L18.0235 14.1197L18.107 14.0666L18.1982 14.021L18.3007 13.9754L18.4185 13.945L18.5476 13.9185L18.6881 13.8995L18.8438 13.8881L19.0147 13.8843H19.121L19.2198 13.8881L19.3071 13.8919H19.3906L19.4628 13.8995L19.5274 13.9033L19.5843 13.9109L19.6375 13.9147L19.6869 13.9223L19.7248 13.9298L19.7628 13.9374L19.797 13.9412L19.8274 13.9488H19.854L19.8805 13.9564L19.9033 13.9602L19.7552 14.6096Z" fill="white"/>
<path fill-rule="evenodd" clip-rule="evenodd" d="M19.7552 14.6096L19.7134 14.6058L19.6755 14.602L19.6375 14.5982L19.5995 14.5906L19.5653 14.5868L19.5274 14.5792L19.4894 14.5716L19.4476 14.5678L19.4096 14.5603H19.3641L19.3109 14.5565L19.2577 14.5527H19.197L19.1286 14.5565L19.0527 14.5603L18.9691 14.5678L18.9121 14.5754L18.859 14.5868L18.8096 14.602L18.7678 14.6172L18.7261 14.64L18.6881 14.6628L18.6577 14.6932L18.6311 14.716L18.6159 14.7501L18.6007 14.7805L18.5969 14.8147V14.8489L18.6045 14.8868L18.6159 14.9248L18.6387 14.9628L18.6691 15.0008L18.7261 15.0539L18.7944 15.0995L18.8742 15.1337L18.9615 15.1679L19.0527 15.1945L19.1476 15.2286L19.2463 15.2628L19.3375 15.3008L19.4248 15.3502L19.5046 15.4109L19.5767 15.4831L19.6375 15.5704L19.6831 15.6806L19.7134 15.8097L19.7248 15.9654L19.7134 16.1477L19.6907 16.2844L19.6565 16.4021L19.6109 16.5122L19.5539 16.6072L19.4856 16.6907L19.4134 16.7591L19.3299 16.8236L19.2425 16.8806L19.1476 16.9224L19.0527 16.9603L18.9577 16.9869L18.8552 17.0135L18.7564 17.0287L18.6615 17.0363L18.5666 17.0439L18.4792 17.0477H18.3539L18.24 17.0439H18.1374L18.0425 17.0401L17.9551 17.0363L17.8792 17.0325L17.8108 17.0249L17.7425 17.0173L17.6817 17.0135L17.6286 17.0021L17.5716 16.9907L17.5222 16.9755L17.4766 16.9641L17.4273 16.949L17.3817 16.93L17.3323 16.9148L17.4615 16.2768L17.488 16.2844L17.5222 16.292L17.5602 16.3034L17.6096 16.3148L17.6627 16.3261L17.7197 16.3375L17.7843 16.3527L17.8526 16.3641L17.9248 16.3755L18.0007 16.3869L18.0767 16.3945L18.1564 16.4021L18.24 16.4059L18.3273 16.4097H18.4071L18.4906 16.4059L18.5742 16.3907L18.6425 16.3641L18.6957 16.3337L18.7337 16.2958L18.764 16.254L18.7868 16.2084L18.802 16.1628L18.8134 16.1173L18.8172 16.0337L18.7906 15.9616L18.7413 15.9046L18.6691 15.8552L18.5856 15.8135L18.483 15.7679L18.3729 15.7299L18.259 15.6843L18.145 15.6312L18.0349 15.5704L17.9324 15.4945L17.8412 15.4071L17.7691 15.297L17.7159 15.1679L17.6893 15.0122L17.6931 14.8261L17.7083 14.716L17.7273 14.6058L17.7577 14.5109L17.7918 14.4159L17.8374 14.3324L17.8906 14.2564L17.9513 14.1843L18.0235 14.1197L18.107 14.0666L18.1982 14.021L18.3007 13.9754L18.4185 13.945L18.5476 13.9185L18.6881 13.8995L18.8438 13.8881L19.0147 13.8843H19.121L19.2198 13.8881L19.3071 13.8919H19.3906L19.4628 13.8995L19.5274 13.9033L19.5843 13.9109L19.6375 13.9147L19.6869 13.9223L19.7248 13.9298L19.7628 13.9374L19.797 13.9412L19.8274 13.9488H19.854L19.8805 13.9564L19.9033 13.9602L19.7552 14.6096Z" stroke="white" stroke-width="0.22"/>
<path fill-rule="evenodd" clip-rule="evenodd" d="M20.4388 13.2461H21.2363L21.1186 13.9449H21.6009L21.4945 14.598L20.9894 14.5829L20.7122 16.1892L20.7084 16.2462L20.7236 16.2956L20.754 16.3336L20.7882 16.3639L20.8413 16.3867L20.8983 16.4019L20.9629 16.4133L21.0312 16.4209L21.0958 16.4171L21.1527 16.4133L21.2059 16.4019L21.2515 16.3905L21.2894 16.3791L21.316 16.3715L21.3312 16.3639H21.3388L21.2363 16.8994L21.2173 16.9146L21.1945 16.926L21.1755 16.9374L21.1565 16.9488L21.1375 16.9564L21.111 16.964L21.0882 16.9754L21.0616 16.983L21.0312 16.9905L21.0046 16.9981L20.9704 17.0019L20.9363 17.0095L20.8983 17.0133L20.8527 17.0209L20.8072 17.0247L20.7578 17.0323H20.5375L20.4236 17.0247L20.3249 17.0133L20.2299 16.9943L20.154 16.9754L20.0856 16.9488L20.0324 16.9184L19.9831 16.8842L19.9451 16.8462L19.9147 16.8083L19.8957 16.7589L19.8805 16.7095L19.8729 16.6526L19.8691 16.5956V16.531L19.8805 16.4627L19.8881 16.3905L20.4388 13.2461Z" fill="white"/>
<path fill-rule="evenodd" clip-rule="evenodd" d="M20.4388 13.2461H21.2363L21.1186 13.9449H21.6009L21.4945 14.598L20.9894 14.5829L20.7122 16.1892L20.7084 16.2462L20.7236 16.2956L20.754 16.3336L20.7882 16.3639L20.8413 16.3867L20.8983 16.4019L20.9629 16.4133L21.0312 16.4209L21.0958 16.4171L21.1527 16.4133L21.2059 16.4019L21.2515 16.3905L21.2894 16.3791L21.316 16.3715L21.3312 16.3639H21.3388L21.2363 16.8994L21.2173 16.9146L21.1945 16.926L21.1755 16.9374L21.1565 16.9488L21.1375 16.9564L21.111 16.964L21.0882 16.9754L21.0616 16.983L21.0312 16.9905L21.0046 16.9981L20.9704 17.0019L20.9363 17.0095L20.8983 17.0133L20.8527 17.0209L20.8072 17.0247L20.7578 17.0323H20.5375L20.4236 17.0247L20.3249 17.0133L20.2299 16.9943L20.154 16.9754L20.0856 16.9488L20.0324 16.9184L19.9831 16.8842L19.9451 16.8462L19.9147 16.8083L19.8957 16.7589L19.8805 16.7095L19.8729 16.6526L19.8691 16.5956V16.531L19.8805 16.4627L19.8881 16.3905L20.4388 13.2461Z" stroke="white" stroke-width="0.22"/>
<path fill-rule="evenodd" clip-rule="evenodd" d="M22.2389 15.6843L22.2275 15.7299L22.2237 15.7831L22.2313 15.8401L22.2427 15.8932L22.2616 15.9464L22.2882 15.9996L22.3186 16.0565L22.3528 16.1021L22.3946 16.1515L22.4363 16.197L22.4819 16.2388L22.5351 16.273L22.5844 16.3072L22.6452 16.3299L22.7022 16.3527L22.7591 16.3641L22.8351 16.3755L22.9072 16.3831L22.9794 16.3907L23.0553 16.3983L23.1313 16.4021H23.2072L23.2832 16.3983L23.3629 16.3907L23.4389 16.3793L23.5187 16.3641L23.5984 16.3489L23.6744 16.3223L23.7579 16.292L23.8377 16.2578L23.9212 16.2122L24.0047 16.1628L23.8908 16.8692L23.8414 16.892L23.7959 16.9186L23.7503 16.9338L23.7085 16.9528L23.663 16.9641L23.6174 16.9793L23.5718 16.9907L23.5224 17.0021L23.4693 17.0097L23.4123 17.0135L23.3516 17.0211L23.287 17.0249L23.211 17.0287H23.1351L23.0439 17.0325H22.949L22.8085 17.0287L22.6642 17.0135L22.5199 16.9945L22.3756 16.9603L22.2351 16.9186L22.0983 16.8616L21.9692 16.7895L21.8477 16.7059L21.7338 16.6072L21.6388 16.4894L21.5553 16.3565L21.4831 16.2046L21.4376 16.0337L21.4034 15.8401L21.3958 15.6274L21.411 15.3919L21.4224 15.3008L21.4376 15.1945L21.4603 15.0805L21.4945 14.959L21.5363 14.8337L21.5895 14.7122L21.654 14.5868L21.7338 14.4653L21.8287 14.3476L21.9388 14.2375L22.068 14.1425L22.2123 14.0552L22.3794 13.983L22.5655 13.9298L22.7743 13.8957L23.006 13.8843L23.1199 13.8881L23.2376 13.8995L23.3554 13.9185L23.4731 13.9488L23.5908 13.9906L23.7009 14.0438L23.8073 14.1121L23.9022 14.1919L23.9858 14.2906L24.0579 14.4083L24.1149 14.5375L24.1567 14.6932L24.1794 14.8641L24.1832 15.0615L24.1642 15.278L24.1187 15.5211L24.1035 15.6957H22.0034L22.1363 15.1299H23.3971L23.4047 15.0577L23.4009 14.9894L23.3933 14.9248L23.3857 14.8679L23.3629 14.8109L23.344 14.7615L23.3136 14.7198L23.287 14.6818L23.2528 14.6438L23.2148 14.6172L23.1731 14.5906L23.1275 14.5678L23.0819 14.5489L23.0364 14.5375L22.987 14.5299L22.9338 14.5223L22.8807 14.5261L22.8275 14.5337L22.7781 14.5489L22.7287 14.5641L22.6794 14.5868L22.6376 14.6134L22.5958 14.6438L22.5579 14.6818L22.5199 14.7198L22.4857 14.7615L22.4553 14.8109L22.4287 14.8603L22.4022 14.9096L22.3832 14.9666L22.3642 15.0274L22.3528 15.0881L22.2389 15.6843Z" stroke="white" stroke-width="0.22"/>
<path fill-rule="evenodd" clip-rule="evenodd" d="M29.1125 14.116L29.0746 14.097L29.0366 14.0818L28.9948 14.059L28.953 14.04L28.9113 14.021L28.8619 14.0058L28.8125 13.9868L28.7594 13.9717L28.7062 13.9565L28.6492 13.9451L28.5923 13.9337L28.5315 13.9261L28.4632 13.9185L28.3986 13.9147H28.3264H28.2581H28.1859L28.11 13.9185L28.0302 13.9261L27.9505 13.9413L27.8707 13.9641L27.791 13.9982L27.7074 14.0362L27.6277 14.0894L27.5517 14.1539L27.4758 14.2261L27.4036 14.321L27.3353 14.4274L27.2707 14.5527L27.2099 14.697L27.153 14.8603L27.1112 15.0426L27.0922 15.1451L27.0808 15.2477L27.0732 15.3502L27.077 15.4451L27.0846 15.5439L27.1074 15.635L27.1302 15.7224L27.1644 15.8097L27.2061 15.8894L27.2593 15.9616L27.3201 16.03L27.3884 16.0907L27.4682 16.1401L27.5555 16.1857L27.6543 16.2236L27.7644 16.2464L27.7986 16.2578L27.8441 16.2654L27.8973 16.2692L27.9543 16.2768L28.015 16.2844H28.0834H28.1555L28.2277 16.2768L28.3037 16.2692L28.3758 16.254L28.448 16.235L28.5201 16.2122L28.5923 16.1781L28.6606 16.1401L28.7214 16.0945L28.7784 16.0452L28.6492 16.8123L28.6302 16.8275L28.6151 16.8464L28.5923 16.8654L28.5657 16.8806L28.5315 16.9034L28.4935 16.9262L28.448 16.9452L28.3948 16.9642L28.3264 16.9832L28.2543 16.9984L28.1669 17.0097L28.0644 17.0211L27.9543 17.0249L27.8252 17.0287L27.677 17.0249L27.5137 17.0173L27.3808 17.0022L27.2479 16.9756L27.1188 16.93L26.9859 16.873L26.8568 16.8047L26.7352 16.7173L26.6213 16.6186L26.515 16.5009L26.42 16.3717L26.3403 16.2274L26.2681 16.0679L26.2188 15.8894L26.1846 15.6958L26.1732 15.4945L26.177 15.2666L26.2112 15.0274L26.2339 14.9097L26.2567 14.7957L26.2871 14.6818L26.3175 14.5755L26.3479 14.4767L26.3859 14.3742L26.4238 14.2793L26.4618 14.1919L26.5074 14.1008L26.5492 14.0172L26.5985 13.9375L26.6517 13.8615L26.7011 13.7894L26.7618 13.721L26.8188 13.6564L26.8795 13.5957L26.9441 13.5387L27.0125 13.4856L27.0808 13.4362L27.153 13.3868L27.2289 13.345L27.3087 13.3071L27.3884 13.2729L27.472 13.2425L27.5631 13.2121L27.6505 13.1893L27.7416 13.1704L27.8403 13.1514L27.9391 13.1362L28.0416 13.1248L28.1479 13.121L28.2581 13.1172L28.3492 13.121L28.4366 13.1248L28.5239 13.1362L28.6113 13.1476L28.691 13.159L28.7708 13.1742L28.8429 13.1893L28.9151 13.2083L28.9796 13.2235L29.0366 13.2425L29.0936 13.2577L29.1391 13.2767L29.1771 13.2919L29.2113 13.3033L29.2379 13.3147L29.2569 13.3185L29.1125 14.116Z" fill="white"/>
<path fill-rule="evenodd" clip-rule="evenodd" d="M29.1125 14.116L29.0746 14.097L29.0366 14.0818L28.9948 14.059L28.953 14.04L28.9113 14.021L28.8619 14.0058L28.8125 13.9868L28.7594 13.9717L28.7062 13.9565L28.6492 13.9451L28.5923 13.9337L28.5315 13.9261L28.4632 13.9185L28.3986 13.9147H28.3264H28.2581H28.1859L28.11 13.9185L28.0302 13.9261L27.9505 13.9413L27.8707 13.9641L27.791 13.9982L27.7074 14.0362L27.6277 14.0894L27.5517 14.1539L27.4758 14.2261L27.4036 14.321L27.3353 14.4274L27.2707 14.5527L27.2099 14.697L27.153 14.8603L27.1112 15.0426L27.0922 15.1451L27.0808 15.2477L27.0732 15.3502L27.077 15.4451L27.0846 15.5439L27.1074 15.635L27.1302 15.7224L27.1644 15.8097L27.2061 15.8894L27.2593 15.9616L27.3201 16.03L27.3884 16.0907L27.4682 16.1401L27.5555 16.1857L27.6543 16.2236L27.7644 16.2464L27.7986 16.2578L27.8441 16.2654L27.8973 16.2692L27.9543 16.2768L28.015 16.2844H28.0834H28.1555L28.2277 16.2768L28.3037 16.2692L28.3758 16.254L28.448 16.235L28.5201 16.2122L28.5923 16.1781L28.6606 16.1401L28.7214 16.0945L28.7784 16.0452L28.6492 16.8123L28.6302 16.8275L28.6151 16.8464L28.5923 16.8654L28.5657 16.8806L28.5315 16.9034L28.4935 16.9262L28.448 16.9452L28.3948 16.9642L28.3264 16.9832L28.2543 16.9984L28.1669 17.0097L28.0644 17.0211L27.9543 17.0249L27.8252 17.0287L27.677 17.0249L27.5137 17.0173L27.3808 17.0022L27.2479 16.9756L27.1188 16.93L26.9859 16.873L26.8568 16.8047L26.7352 16.7173L26.6213 16.6186L26.515 16.5009L26.42 16.3717L26.3403 16.2274L26.2681 16.0679L26.2188 15.8894L26.1846 15.6958L26.1732 15.4945L26.177 15.2666L26.2112 15.0274L26.2339 14.9097L26.2567 14.7957L26.2871 14.6818L26.3175 14.5755L26.3479 14.4767L26.3859 14.3742L26.4238 14.2793L26.4618 14.1919L26.5074 14.1008L26.5492 14.0172L26.5985 13.9375L26.6517 13.8615L26.7011 13.7894L26.7618 13.721L26.8188 13.6564L26.8795 13.5957L26.9441 13.5387L27.0125 13.4856L27.0808 13.4362L27.153 13.3868L27.2289 13.345L27.3087 13.3071L27.3884 13.2729L27.472 13.2425L27.5631 13.2121L27.6505 13.1893L27.7416 13.1704L27.8403 13.1514L27.9391 13.1362L28.0416 13.1248L28.1479 13.121L28.2581 13.1172L28.3492 13.121L28.4366 13.1248L28.5239 13.1362L28.6113 13.1476L28.691 13.159L28.7708 13.1742L28.8429 13.1893L28.9151 13.2083L28.9796 13.2235L29.0366 13.2425L29.0936 13.2577L29.1391 13.2767L29.1771 13.2919L29.2113 13.3033L29.2379 13.3147L29.2569 13.3185L29.1125 14.116Z" stroke="white" stroke-width="0.22"/>
<path fill-rule="evenodd" clip-rule="evenodd" d="M36.2103 17.0323H35.4128L35.4698 16.7133V16.6829L35.4242 16.7399L35.371 16.793L35.3255 16.8386L35.2723 16.8804L35.2191 16.9183L35.1698 16.9487L35.1166 16.9753L35.0634 17.0019L35.0065 17.0209L34.9533 17.0361L34.8963 17.0475L34.8394 17.0589L34.7824 17.0664L34.7292 17.0702L34.6723 17.074H34.6115L34.4634 17.0626L34.3229 17.0323L34.1976 16.9829L34.0836 16.9183L33.9773 16.8348L33.8862 16.7361L33.8064 16.6297L33.7342 16.5082L33.6773 16.3791L33.6317 16.2424L33.6013 16.1018L33.5785 15.9537L33.5672 15.8056L33.5709 15.6575L33.5861 15.5094L33.6127 15.3613L33.6545 15.1942L33.7077 15.0309L33.7684 14.8828L33.8406 14.7461L33.9165 14.617L34.0001 14.4993L34.0912 14.3967L34.1862 14.3018L34.2849 14.2182L34.3912 14.1461L34.5014 14.0815L34.6115 14.0321L34.7292 13.9942L34.8432 13.9676L34.9571 13.9486L35.0748 13.9448L35.1584 13.9486L35.2419 13.9562L35.3179 13.9714L35.3862 13.9904L35.4508 14.0132L35.5077 14.0397L35.5685 14.0701L35.6179 14.1043L35.6634 14.1385L35.709 14.1765L35.747 14.2106L35.7812 14.2486L35.8078 14.2866L35.8343 14.3246L35.8571 14.3587L35.8761 14.3929L36.0774 13.2612H36.8597L36.2103 17.0323Z" fill="white"/>
<path fill-rule="evenodd" clip-rule="evenodd" d="M36.2103 17.0323H35.4128L35.4698 16.7133V16.6829L35.4242 16.7399L35.371 16.793L35.3255 16.8386L35.2723 16.8804L35.2191 16.9183L35.1698 16.9487L35.1166 16.9753L35.0634 17.0019L35.0065 17.0209L34.9533 17.0361L34.8963 17.0475L34.8394 17.0589L34.7824 17.0664L34.7292 17.0702L34.6723 17.074H34.6115L34.4634 17.0626L34.3229 17.0323L34.1976 16.9829L34.0836 16.9183L33.9773 16.8348L33.8862 16.7361L33.8064 16.6297L33.7342 16.5082L33.6773 16.3791L33.6317 16.2424L33.6013 16.1018L33.5785 15.9537L33.5672 15.8056L33.5709 15.6575L33.5861 15.5094L33.6127 15.3613L33.6545 15.1942L33.7077 15.0309L33.7684 14.8828L33.8406 14.7461L33.9165 14.617L34.0001 14.4993L34.0912 14.3967L34.1862 14.3018L34.2849 14.2182L34.3912 14.1461L34.5014 14.0815L34.6115 14.0321L34.7292 13.9942L34.8432 13.9676L34.9571 13.9486L35.0748 13.9448L35.1584 13.9486L35.2419 13.9562L35.3179 13.9714L35.3862 13.9904L35.4508 14.0132L35.5077 14.0397L35.5685 14.0701L35.6179 14.1043L35.6634 14.1385L35.709 14.1765L35.747 14.2106L35.7812 14.2486L35.8078 14.2866L35.8343 14.3246L35.8571 14.3587L35.8761 14.3929L36.0774 13.2612H36.8597L36.2103 17.0323Z" stroke="white" stroke-width="0.22"/>
<path fill-rule="evenodd" clip-rule="evenodd" d="M34.9039 16.3334L34.9837 16.3296L35.0596 16.3106L35.128 16.2916L35.1963 16.2574L35.2533 16.2271L35.3141 16.1815L35.3672 16.1321L35.4166 16.0789L35.4584 16.022L35.5001 15.9574L35.5381 15.8929L35.5685 15.8245L35.5989 15.7524L35.6217 15.6764L35.6407 15.6004L35.6558 15.5207L35.671 15.4409L35.6786 15.3574V15.2776L35.6748 15.1979L35.6672 15.1219L35.6558 15.0498L35.6369 14.9814L35.6141 14.9169L35.5837 14.8599L35.5495 14.8029L35.5115 14.7574L35.4698 14.7156L35.4204 14.6814L35.3672 14.6586L35.3141 14.6434L35.2533 14.6396L35.1735 14.6434L35.1014 14.6548L35.0368 14.6814L34.9685 14.708L34.9115 14.746L34.8545 14.7916L34.8052 14.8409L34.7558 14.8979L34.714 14.9586L34.6723 15.027L34.6343 15.0954L34.6039 15.1713L34.5735 15.2473L34.5507 15.327L34.528 15.4106L34.5128 15.4941L34.4976 15.6194L34.5014 15.7561L34.5242 15.9005L34.5621 16.0334L34.6191 16.1511L34.695 16.246L34.79 16.3106L34.9039 16.3334Z" fill="#FBB231"/>
<path fill-rule="evenodd" clip-rule="evenodd" d="M17.2032 16.3904L17.0855 17.0322H16.3601L16.3791 16.9145L16.3943 16.8081L16.4057 16.7246L16.4171 16.6828L16.3753 16.7284L16.3298 16.7739L16.2766 16.8195L16.2158 16.8575L16.1475 16.8993L16.0753 16.9334L15.9994 16.9676L15.9196 16.998L15.8361 17.0246L15.7525 17.0436L15.669 17.0588L15.5854 17.0702L15.4981 17.0778L15.4183 17.0815L15.3348 17.0702L15.2588 17.0588L15.1563 17.036L15.0652 17.0056L14.9854 16.9676L14.9133 16.9258L14.8487 16.8803L14.7917 16.8271L14.7462 16.7701L14.7044 16.7132L14.6702 16.6524L14.6398 16.5917L14.617 16.5271L14.6018 16.4625L14.5905 16.398L14.5791 16.3296L14.5753 16.2689V16.2043L14.5829 16.0904L14.6018 15.984L14.6284 15.8853L14.6664 15.7866L14.712 15.6954L14.7651 15.6119L14.8259 15.5321L14.8943 15.4562L14.9664 15.3916L15.0462 15.3308L15.1297 15.2777L15.2171 15.2283L15.3082 15.1903L15.4031 15.1562L15.5019 15.1334L15.6044 15.1144H15.6082L15.6234 15.1106H15.6462L15.6766 15.1068L15.7108 15.0992H15.7525L15.7943 15.0916L15.8437 15.0878L15.893 15.0802L15.9424 15.0764L15.9956 15.0726L16.0373 15.065L16.0867 15.0612H16.1285L16.1703 15.0574H16.2006H16.269L16.3374 15.0612H16.3981H16.4627L16.5158 15.065L16.5538 15.0688L16.5842 15.0726H16.5918L16.5994 15.0498L16.6146 15.0005L16.6298 14.9397L16.6374 14.8827L16.6222 14.822L16.5994 14.7612L16.5652 14.7118L16.5158 14.6663L16.4627 14.6321L16.4019 14.6055L16.3336 14.5865L16.2576 14.5827L16.1779 14.5789L16.0905 14.5751H16.0032L15.9082 14.5789L15.8133 14.5865L15.7221 14.5941L15.631 14.6017L15.5399 14.6131L15.4525 14.6245L15.369 14.6397L15.2968 14.6549L15.2247 14.6663L15.1639 14.6853L15.1107 14.7042L15.0728 14.7232L15.0386 14.7384L15.2436 14.0435L15.3082 14.0207L15.369 13.9979L15.4411 13.9751L15.5095 13.9599L15.5778 13.9485L15.6538 13.9371L15.7259 13.9257L15.8057 13.9181L15.8854 13.9143L15.969 13.9105L16.0563 13.9067H16.1475H16.2386H16.3336L16.4323 13.9105L16.5348 13.9143L16.6146 13.9181L16.7019 13.9333L16.7931 13.9523L16.8842 13.9789L16.9716 14.0131L17.0589 14.0548L17.1463 14.1042L17.226 14.1574L17.2982 14.2219L17.3627 14.2903L17.4197 14.3663L17.4615 14.4536L17.4918 14.5485L17.507 14.6435V14.7536L17.4918 14.8713L17.2032 16.3904Z" fill="white"/>
<path fill-rule="evenodd" clip-rule="evenodd" d="M17.2032 16.3904L17.0855 17.0322H16.3601L16.3791 16.9145L16.3943 16.8081L16.4057 16.7246L16.4171 16.6828L16.3753 16.7284L16.3298 16.7739L16.2766 16.8195L16.2158 16.8575L16.1475 16.8993L16.0753 16.9334L15.9994 16.9676L15.9196 16.998L15.8361 17.0246L15.7525 17.0436L15.669 17.0588L15.5854 17.0702L15.4981 17.0778L15.4183 17.0815L15.3348 17.0702L15.2588 17.0588L15.1563 17.036L15.0652 17.0056L14.9854 16.9676L14.9133 16.9258L14.8487 16.8803L14.7917 16.8271L14.7462 16.7701L14.7044 16.7132L14.6702 16.6524L14.6398 16.5917L14.617 16.5271L14.6018 16.4625L14.5905 16.398L14.5791 16.3296L14.5753 16.2689V16.2043L14.5829 16.0904L14.6018 15.984L14.6284 15.8853L14.6664 15.7866L14.712 15.6954L14.7651 15.6119L14.8259 15.5321L14.8943 15.4562L14.9664 15.3916L15.0462 15.3308L15.1297 15.2777L15.2171 15.2283L15.3082 15.1903L15.4031 15.1562L15.5019 15.1334L15.6044 15.1144H15.6082L15.6234 15.1106H15.6462L15.6766 15.1068L15.7108 15.0992H15.7525L15.7943 15.0916L15.8437 15.0878L15.893 15.0802L15.9424 15.0764L15.9956 15.0726L16.0373 15.065L16.0867 15.0612H16.1285L16.1703 15.0574H16.2006H16.269L16.3374 15.0612H16.3981H16.4627L16.5158 15.065L16.5538 15.0688L16.5842 15.0726H16.5918L16.5994 15.0498L16.6146 15.0005L16.6298 14.9397L16.6374 14.8827L16.6222 14.822L16.5994 14.7612L16.5652 14.7118L16.5158 14.6663L16.4627 14.6321L16.4019 14.6055L16.3336 14.5865L16.2576 14.5827L16.1779 14.5789L16.0905 14.5751H16.0032L15.9082 14.5789L15.8133 14.5865L15.7221 14.5941L15.631 14.6017L15.5399 14.6131L15.4525 14.6245L15.369 14.6397L15.2968 14.6549L15.2247 14.6663L15.1639 14.6853L15.1107 14.7042L15.0728 14.7232L15.0386 14.7384L15.2436 14.0435L15.3082 14.0207L15.369 13.9979L15.4411 13.9751L15.5095 13.9599L15.5778 13.9485L15.6538 13.9371L15.7259 13.9257L15.8057 13.9181L15.8854 13.9143L15.969 13.9105L16.0563 13.9067H16.1475H16.2386H16.3336L16.4323 13.9105L16.5348 13.9143L16.6146 13.9181L16.7019 13.9333L16.7931 13.9523L16.8842 13.9789L16.9716 14.0131L17.0589 14.0548L17.1463 14.1042L17.226 14.1574L17.2982 14.2219L17.3627 14.2903L17.4197 14.3663L17.4615 14.4536L17.4918 14.5485L17.507 14.6435V14.7536L17.4918 14.8713L17.2032 16.3904Z" stroke="white" stroke-width="0.22"/>
<path fill-rule="evenodd" clip-rule="evenodd" d="M16.5082 15.6387L16.5044 15.6273L16.4931 15.6121L16.4741 15.6007L16.4475 15.597L16.4133 15.5894H16.3753H16.3336H16.288H16.2424L16.1968 15.597L16.1475 15.6007L16.1019 15.6083L16.0601 15.6159L16.0184 15.6235L15.9842 15.6311L15.9538 15.6387L15.931 15.6463L15.9082 15.6539L15.8778 15.6653L15.8475 15.6805L15.8095 15.6957L15.7715 15.7185L15.7297 15.7375L15.6918 15.7602L15.6538 15.7906L15.6158 15.8172L15.5816 15.8514L15.5512 15.8894L15.5209 15.9235L15.4981 15.9653L15.4829 16.0109L15.4753 16.0565L15.4715 16.1552L15.4867 16.235L15.5133 16.2919L15.5512 16.3337L15.5968 16.3641L15.6462 16.3793L15.6918 16.3907H15.7373H15.8209L15.9006 16.3793L15.9766 16.3679L16.0411 16.3527L16.0981 16.3299L16.1551 16.3071L16.2044 16.2805L16.2462 16.2463L16.2842 16.2198L16.3184 16.1856L16.3487 16.1514L16.3715 16.1172L16.3905 16.083L16.4095 16.0489L16.4209 16.0185L16.4323 15.9843L16.4551 15.9008L16.4741 15.8058L16.4931 15.7147L16.5082 15.6387Z" fill="#EC1C2E"/>
<path fill-rule="evenodd" clip-rule="evenodd" d="M11.1346 17.0323H10.3523L11.0055 13.2461H12.3688L12.498 15.4943L13.4436 13.2461H14.8677L14.1955 17.0323H13.4132L13.9107 14.2031H13.8765L12.703 17.0323H11.8182L11.8144 16.9146L11.7916 16.5994L11.7688 16.1513L11.7384 15.6386L11.7081 15.1221L11.6853 14.6702L11.6625 14.3436L11.6587 14.2031H11.6511H11.6321H11.6131L11.1346 17.0323Z" fill="white"/>
<path fill-rule="evenodd" clip-rule="evenodd" d="M11.1346 17.0323H10.3523L11.0055 13.2461H12.3688L12.498 15.4943L13.4436 13.2461H14.8677L14.1955 17.0323H13.4132L13.9107 14.2031H13.8765L12.703 17.0323H11.8182L11.8144 16.9146L11.7916 16.5994L11.7688 16.1513L11.7384 15.6386L11.7081 15.1221L11.6853 14.6702L11.6625 14.3436L11.6587 14.2031H11.6511H11.6321H11.6131L11.1346 17.0323Z" stroke="white" stroke-width="0.22"/>
<path fill-rule="evenodd" clip-rule="evenodd" d="M31.5089 16.3904L31.3911 17.0322H30.6658L30.6734 16.9145V16.8119V16.7322L30.681 16.698L30.643 16.7398L30.6012 16.7853L30.5481 16.8233L30.4911 16.8651L30.4303 16.9031L30.362 16.9372L30.2898 16.9714L30.2177 17.0018L30.1379 17.0246L30.0582 17.0474L29.9784 17.0588L29.8949 17.0702L29.8113 17.0778L29.7316 17.0815L29.6556 17.0702L29.5759 17.0588L29.4733 17.036L29.3822 17.0056L29.2986 16.9676L29.2227 16.9258L29.1619 16.8803L29.105 16.8271L29.0594 16.7701L29.0214 16.7132L28.9872 16.6524L28.9606 16.5917L28.9379 16.5271L28.9227 16.4625L28.9113 16.398L28.9037 16.3296L28.8961 16.2689V16.2043L28.9037 16.0904L28.9189 15.984L28.9455 15.8853L28.9834 15.7866L29.0252 15.6954L29.0822 15.6119L29.1391 15.5321L29.2075 15.4562L29.2834 15.3916L29.3594 15.3308L29.4429 15.2777L29.5341 15.2283L29.6214 15.1903L29.7164 15.1562L29.8113 15.1334L29.9101 15.1144H29.9176L29.929 15.1106H29.9518L29.9784 15.1068L30.0164 15.0992H30.0582L30.0999 15.0916L30.1455 15.0878L30.1949 15.0802L30.248 15.0764L30.2974 15.0726L30.3468 15.065L30.3923 15.0612H30.4341L30.4721 15.0574H30.5063H30.5746L30.643 15.0612H30.7076H30.7721L30.8291 15.065L30.8746 15.0688L30.8974 15.0726H30.9126L30.9164 15.0498L30.9278 15.0005L30.9354 14.9397L30.9392 14.8827L30.9278 14.822L30.905 14.7612L30.8671 14.7118L30.8253 14.6663L30.7721 14.6321L30.7113 14.6055L30.6468 14.5865L30.5784 14.5827L30.4987 14.5789L30.4113 14.5751H30.324L30.2291 14.5789L30.1341 14.5865L30.043 14.5941L29.9518 14.6017L29.8607 14.6131L29.7733 14.6245L29.6936 14.6397L29.6176 14.6549L29.5493 14.6663L29.4847 14.6853L29.4316 14.7042L29.3898 14.7232L29.3594 14.7384L29.5607 14.0435L29.6252 14.0207L29.6936 13.9979L29.7581 13.9751L29.8265 13.9599L29.8987 13.9485L29.9708 13.9371L30.0468 13.9257L30.1227 13.9181L30.2063 13.9143L30.2898 13.9105L30.3734 13.9067H30.4607H30.5518H30.643L30.7417 13.9105L30.8405 13.9143L30.9202 13.9181L31.0076 13.9333L31.0949 13.9523L31.1898 13.9789L31.2772 14.0131L31.3645 14.0548L31.4519 14.1042L31.5316 14.1574L31.6076 14.2219L31.6721 14.2903L31.7291 14.3663L31.7747 14.4536L31.8051 14.5485L31.8241 14.6435V14.7536L31.8127 14.8713L31.5089 16.3904Z" fill="white"/>
<path fill-rule="evenodd" clip-rule="evenodd" d="M31.3971 17.0514L31.4171 17.0362L31.5721 16.3944L31.5271 16.3906L31.3721 17.0286L31.3971 17.0134V17.0514L31.4121 17.0476L31.4171 17.0362L31.3971 17.0514Z" fill="white"/>
<path fill-rule="evenodd" clip-rule="evenodd" d="M30.6468 17.0382L30.6658 17.0632H31.3911V17.0132H30.6658L30.6848 17.0382H30.6468V17.0632H30.6658L30.6468 17.0382Z" fill="white"/>
<path fill-rule="evenodd" clip-rule="evenodd" d="M30.7118 16.7165L30.6768 16.6865L30.6618 16.7465L30.6568 16.8515V16.9865L30.6468 17.1415H30.6968L30.7018 16.9865L30.7118 16.8515L30.7068 16.7465V16.7165L30.6718 16.6865L30.7118 16.7165Z" fill="white"/>
<path fill-rule="evenodd" clip-rule="evenodd" d="M29.5721 17.1634L29.6556 17.1773L29.7316 17.1865H29.8113L29.8948 17.1773L29.9784 17.1634L30.0619 17.1449L30.1417 17.1171L30.2214 17.0893L30.2936 17.0523L30.3696 17.0152L30.4379 16.9689L30.4987 16.9226L30.5594 16.8717L30.6126 16.8208L30.6582 16.7652L30.6961 16.7143L30.6658 16.6865L30.6278 16.7374L30.5898 16.7884L30.5366 16.8393L30.4835 16.8856L30.4227 16.9273L30.3506 16.9689L30.2822 17.0152L30.2101 17.0476L30.1341 17.0754L30.0543 17.1032L29.9746 17.1217L29.8948 17.1356L29.8113 17.1402L29.7316 17.1449L29.6556 17.1356L29.5796 17.1217L29.5721 17.1634Z" fill="white"/>
<path fill-rule="evenodd" clip-rule="evenodd" d="M28.8771 16.2046V16.2691L28.8847 16.3299L28.8923 16.4021L28.9037 16.4666L28.9189 16.5312L28.9417 16.5957L28.9682 16.6641L29.0062 16.7249L29.0442 16.7856L29.0936 16.8388L29.1505 16.892L29.2151 16.9413L29.291 16.9869L29.3746 17.0249L29.4695 17.0515L29.5721 17.078L29.5797 17.0439L29.4771 17.0173L29.386 16.9869L29.3062 16.9527L29.2341 16.9109L29.1733 16.8654L29.1201 16.816L29.0746 16.759L29.0328 16.7059L29.0024 16.6451L28.9758 16.5844L28.953 16.5236L28.9379 16.4628L28.9265 16.3945L28.9189 16.3299L28.9151 16.2691V16.2046H28.8771Z" fill="white"/>
<path fill-rule="evenodd" clip-rule="evenodd" d="M29.91 15.0991L29.8113 15.1143L29.7126 15.1409L29.6176 15.1713L29.5265 15.213L29.4353 15.2586L29.348 15.3156L29.272 15.3763L29.1961 15.4447L29.1277 15.5169L29.067 15.6004L29.01 15.684L28.9644 15.7789L28.9265 15.8776L28.9037 15.984L28.8847 16.0903L28.8771 16.2042H28.9151L28.9189 16.0903L28.9379 15.9878L28.9644 15.889L28.9986 15.7941L29.0442 15.7029L29.0936 15.6232L29.1543 15.5396L29.2189 15.4675L29.2948 15.4067L29.3708 15.346L29.4505 15.2928L29.5417 15.2472L29.629 15.2055L29.724 15.1751L29.8151 15.1485L29.91 15.1333V15.0991Z" fill="white"/>
<path fill-rule="evenodd" clip-rule="evenodd" d="M30.5063 15.0386H30.4721L30.4341 15.0436L30.3923 15.0486L30.3468 15.0536L30.2974 15.0586L30.248 15.0636L30.1949 15.0686L30.1455 15.0786L30.0999 15.0886L30.0582 15.0936L30.0164 15.0986L29.9784 15.1036L29.9518 15.1086L29.929 15.1136L29.9176 15.1186H29.91V15.1636H29.9176L29.9328 15.1586L29.9518 15.1536L29.9784 15.1486L30.0164 15.1436L30.0582 15.1386L30.0999 15.1336L30.1455 15.1236L30.1949 15.1186L30.248 15.1086L30.2974 15.1036L30.3468 15.0986L30.3923 15.0936L30.4341 15.0886H30.4721H30.5063V15.0386Z" fill="white"/>
<path fill-rule="evenodd" clip-rule="evenodd" d="M30.9657 15.0786L30.9883 15.0586H30.9702L30.9432 15.0536H30.8892L30.8216 15.0436H30.745H30.6684L30.5874 15.0386H30.5063V15.0886H30.5874H30.6684L30.745 15.0986H30.8216H30.8892L30.9432 15.1036H30.9702H30.9883L31.0063 15.0886L30.9883 15.1036L31.0063 15.1086V15.0886L30.9657 15.0786Z" fill="white"/>
<path fill-rule="evenodd" clip-rule="evenodd" d="M30.9336 14.8828H30.9286L30.9236 14.9578L30.9136 15.0328L30.8986 15.1028L30.8936 15.1278L30.9386 15.1378L30.9486 15.1078L30.9586 15.0378L30.9686 14.9578L30.9786 14.8828H30.9336Z" fill="white"/>
<path fill-rule="evenodd" clip-rule="evenodd" d="M30.5784 14.6101V14.6151L30.6684 14.6201L30.7484 14.6401L30.8234 14.6751L30.8884 14.7201L30.9384 14.7751L30.9834 14.8401L31.0184 14.9051L31.0334 14.9851H31.0784L31.0634 14.9001L31.0334 14.8151L30.9784 14.7451L30.9184 14.6851L30.8484 14.6301L30.7634 14.5951L30.6734 14.5751L30.5784 14.5601V14.5651V14.6101Z" fill="white"/>
<path fill-rule="evenodd" clip-rule="evenodd" d="M29.3442 14.7962L29.3708 14.8162L29.4012 14.7962L29.4391 14.7712L29.4885 14.7512L29.5493 14.7262L29.6214 14.7062L29.6936 14.6862L29.7771 14.6712L29.8607 14.6562L29.9518 14.6362L30.043 14.6262L30.1341 14.6162L30.2291 14.6112H30.324H30.4113H30.4987H30.5784V14.5662L30.4987 14.5612L30.4113 14.5562H30.324L30.2291 14.5612L30.1341 14.5712L30.043 14.5812L29.9518 14.5962L29.8607 14.6112L29.7733 14.6212L29.6898 14.6412L29.6138 14.6612L29.5455 14.6812L29.4809 14.7012L29.4278 14.7262L29.3822 14.7512L29.348 14.7812L29.3784 14.8012L29.3442 14.7962Z" fill="white"/>
<path fill-rule="evenodd" clip-rule="evenodd" d="M29.6242 14.0283L29.6092 14.0435L29.3442 14.7385L29.3892 14.7423L29.6542 14.0473L29.6392 14.0625L29.6242 14.0283L29.6142 14.0321L29.6092 14.0435L29.6242 14.0283Z" fill="white"/>
<path fill-rule="evenodd" clip-rule="evenodd" d="M30.8405 13.8977L30.7417 13.8927L30.643 13.8877H30.5518H30.4607H30.3734L30.2898 13.8927L30.2063 13.8977L30.1227 13.9077L30.0468 13.9127L29.967 13.9277L29.8949 13.9427L29.8227 13.9627L29.7543 13.9827L29.686 14.0077L29.6214 14.0377L29.5569 14.0727L29.5683 14.1177L29.6328 14.0827L29.6974 14.0527L29.7619 14.0277L29.8303 14.0077L29.9025 13.9877L29.9746 13.9727L30.0468 13.9577L30.1227 13.9527L30.2063 13.9427L30.2898 13.9377H30.3734H30.4607H30.5518H30.643L30.7417 13.9427H30.8405V13.8977Z" fill="white"/>
<path fill-rule="evenodd" clip-rule="evenodd" d="M31.8279 14.8715L31.843 14.7538V14.6436L31.8241 14.5449L31.7899 14.45L31.7443 14.3588L31.6873 14.2791L31.6152 14.2069L31.5468 14.1424L31.4633 14.0892L31.3759 14.036L31.2848 13.998L31.1936 13.9601L31.0987 13.9373L31.0076 13.9145L30.9202 13.9031L30.8405 13.8955V13.9297L30.9202 13.9373L31.0038 13.9487L31.0911 13.9715L31.1823 13.998L31.2696 14.0322L31.3569 14.0702L31.4443 14.1158L31.5202 14.1727L31.5924 14.2335L31.657 14.3019L31.7139 14.3778L31.7557 14.4614L31.7861 14.5487L31.8089 14.6436V14.7538L31.7937 14.8677L31.8279 14.8715Z" fill="white"/>
<path fill-rule="evenodd" clip-rule="evenodd" d="M31.5349 16.3943L31.9349 14.8715L31.8899 14.8677L31.4899 16.3905L31.5349 16.3943Z" fill="white"/>
<path fill-rule="evenodd" clip-rule="evenodd" d="M30.8101 15.6386L30.8025 15.6234L30.7949 15.6082L30.7721 15.6006L30.7455 15.5892H30.7114L30.6734 15.5854H30.6316L30.5898 15.5892L30.5405 15.593L30.4949 15.6006L30.4493 15.6044L30.4075 15.612L30.362 15.6196L30.3278 15.6272L30.2898 15.6348L30.2594 15.6386L30.2404 15.6424L30.2177 15.65L30.1873 15.6614L30.1569 15.6728L30.1189 15.688L30.0847 15.707L30.043 15.726L30.005 15.7525L29.967 15.7791L29.929 15.8095L29.8987 15.8399L29.8683 15.8779L29.8417 15.9196L29.8227 15.9614L29.8037 16.007L29.7961 16.0564L29.7923 16.1551L29.8075 16.2348L29.8303 16.2918L29.8645 16.3336L29.9063 16.364L29.9556 16.3792L30.005 16.3905H30.0544H30.1417L30.2215 16.3792L30.2974 16.364L30.362 16.345L30.4265 16.3222L30.4835 16.2956L30.5329 16.269L30.5784 16.2348L30.6202 16.2007L30.6544 16.1627L30.6848 16.1285L30.7114 16.0905L30.7303 16.0564L30.7455 16.0222L30.7569 15.988L30.7683 15.9576L30.7797 15.8741L30.7949 15.7943L30.8025 15.7108L30.8101 15.6386Z" fill="#FBB231"/>
<path fill-rule="evenodd" clip-rule="evenodd" d="M36.7496 16.7461L36.7534 16.6587L36.7761 16.5616L36.8179 16.4742L36.8673 16.3966L36.928 16.3335L36.9964 16.2898L37.0724 16.2607L37.1521 16.2461L37.2319 16.2607L37.3078 16.2898L37.3762 16.3335L37.4369 16.3966L37.4863 16.4742L37.5281 16.5616L37.5509 16.6587L37.5547 16.7461H37.4711L37.4673 16.6781L37.4483 16.6005L37.4217 16.5228L37.3838 16.4597L37.3382 16.4111L37.2812 16.3723L37.2167 16.348L37.1521 16.3383L37.0875 16.348L37.023 16.3723L36.966 16.4111L36.9205 16.4597L36.8825 16.5228L36.8559 16.6005L36.8369 16.6781L36.8331 16.7461H36.7496Z" fill="white"/>
<path fill-rule="evenodd" clip-rule="evenodd" d="M37.0078 16.6929V16.4629H37.2178L37.2628 16.4679L37.3028 16.4779L37.3328 16.4879L37.3628 16.5029L37.3778 16.5279L37.3928 16.5479L37.4028 16.5729L37.4078 16.6029L37.4028 16.6379L37.3928 16.6629L37.3828 16.6829L37.3778 16.6929H37.2178L37.2328 16.6879L37.2578 16.6829L37.2828 16.6779L37.2978 16.6679L37.3128 16.6579L37.3228 16.6479L37.3278 16.6279V16.6029V16.5829L37.3178 16.5679L37.3078 16.5579L37.2978 16.5529L37.2778 16.5479L37.2578 16.5429H37.2378H37.2178H37.1028V16.6929H37.0078Z" fill="white"/>
<path fill-rule="evenodd" clip-rule="evenodd" d="M36.7496 16.6372L36.7458 16.6552L36.7534 16.7588L36.7761 16.8489L36.8179 16.93L36.8673 16.9976L36.928 17.0561L36.9964 17.1012L37.0724 17.1282L37.1521 17.1372L37.2319 17.1282L37.3078 17.1012L37.3762 17.0561L37.4369 16.9976L37.4863 16.93L37.5281 16.8489L37.5509 16.7588L37.5584 16.6552L37.5546 16.6372H37.4711V16.6552L37.4673 16.7408L37.4483 16.8129L37.4217 16.8804L37.3838 16.939L37.3382 16.9841L37.2812 17.0246L37.2167 17.0471L37.1521 17.0516L37.0875 17.0471L37.023 17.0246L36.966 16.9841L36.9204 16.939L36.8825 16.8804L36.8559 16.8129L36.8369 16.7408L36.8331 16.6552V16.6372H36.7496Z" fill="white"/>
<path fill-rule="evenodd" clip-rule="evenodd" d="M37.0078 16.6372V16.8672H37.1028V16.6772H37.1978L37.3128 16.8672H37.3878L37.2728 16.6772H37.2978L37.3278 16.6722L37.3478 16.6622L37.3678 16.6472L37.3778 16.6372H37.2178L37.1978 16.6422H37.1028V16.6372H37.0078Z" fill="white"/>
<path d="M37.1331 16.968H37.2167H37.2812L37.3382 16.9338L37.3838 16.8958L37.4217 16.8464L37.4483 16.7895V16.7287V16.6566V16.5882V16.5236L37.4217 16.4667L37.3838 16.4173L37.3382 16.3793L37.2812 16.33H37.2167H37.1521H37.0875H37.023L36.966 16.3603L36.9204 16.3983L36.8825 16.4477L36.8559 16.5047V16.5692V16.6376V16.7097V16.7705L36.8825 16.8275L36.9204 16.8768L36.966 16.9148L37.023 16.949H37.0875H37.1521M36.7458 16.6528V16.5692L36.7685 16.4933L36.8103 16.4249L36.8597 16.3641L36.9204 16.3148L36.9888 16.2806L37.0648 16.2578H37.1445H37.2243L37.3002 16.2806L37.3686 16.3148L37.4293 16.3641L37.4787 16.4249L37.5205 16.4933L37.5433 16.5692V16.6528V16.7363L37.5205 16.8161L37.4787 16.8844L37.4293 16.9414L37.3686 16.9908L37.3002 17.0287L37.2243 17.0515H37.1445H37.0648L36.9888 17.0287L36.9204 16.9908L36.8597 16.9414L36.8369 16.8844L36.7951 16.8161L36.7723 16.7363V16.6528H36.7458ZM37.1065 16.8123H37.0344V16.4629H37.2167H37.247H37.2698H37.2926V16.4857V16.5085V16.5312H37.2167L37.304 16.6756H37.247L37.1597 16.5312H37.0875V16.6756L37.1065 16.8123ZM37.1597 16.5047H37.1863H37.2167H37.061V16.6224H37.1331L37.1597 16.5047Z" stroke="white" stroke-width="0.22"/>
<path fill-rule="evenodd" clip-rule="evenodd" d="M31.7253 17.0324H32.538L32.8266 15.3918L32.838 15.3273L32.857 15.2665L32.8722 15.2019L32.8988 15.1374L32.9254 15.0766L32.9595 15.0121L32.9975 14.9551L33.0431 14.9019L33.0963 14.8526L33.1532 14.807L33.2216 14.7614L33.2937 14.7272L33.3773 14.7007L33.4722 14.6779L33.571 14.6589L33.6849 14.6551H33.7267H33.7456H33.757L33.8862 13.9146L33.8064 13.9183L33.7267 13.9259L33.6545 13.9411L33.5861 13.9601L33.5216 13.9867L33.4608 14.0133L33.4039 14.0437L33.3507 14.0816L33.2975 14.1196L33.2482 14.1614L33.2026 14.207L33.157 14.2525L33.1114 14.3019L33.0697 14.3551L33.0279 14.4082L32.9861 14.4652L33.0735 13.9449H32.2646L31.7253 17.0324Z" fill="white"/>
<path fill-rule="evenodd" clip-rule="evenodd" d="M31.7253 17.0324H32.538L32.8266 15.3918L32.838 15.3273L32.857 15.2665L32.8722 15.2019L32.8988 15.1374L32.9254 15.0766L32.9595 15.0121L32.9975 14.9551L33.0431 14.9019L33.0963 14.8526L33.1532 14.807L33.2216 14.7614L33.2937 14.7272L33.3773 14.7007L33.4722 14.6779L33.571 14.6589L33.6849 14.6551H33.7267H33.7456H33.757L33.8862 13.9146L33.8064 13.9183L33.7267 13.9259L33.6545 13.9411L33.5861 13.9601L33.5216 13.9867L33.4608 14.0133L33.4039 14.0437L33.3507 14.0816L33.2975 14.1196L33.2482 14.1614L33.2026 14.207L33.157 14.2525L33.1114 14.3019L33.0697 14.3551L33.0279 14.4082L32.9861 14.4652L33.0735 13.9449H32.2646L31.7253 17.0324Z" stroke="white" stroke-width="0.22"/>
<path fill-rule="evenodd" clip-rule="evenodd" d="M24.0921 17.0324H24.9048H24.9162L25.1934 15.3918L25.2048 15.3273L25.22 15.2665L25.2352 15.2057L25.2542 15.1488L25.277 15.0918L25.3073 15.0386L25.3415 14.9855L25.3833 14.9361L25.4289 14.8943L25.4782 14.8488L25.5428 14.8146L25.6111 14.7842L25.6947 14.7576L25.782 14.7348L25.8808 14.7196L25.9909 14.7121H26.0023L26.0137 14.7158H26.0289H26.0441L26.0555 14.7196L26.0669 14.7234L26.0783 14.7272L26.0821 14.7158L26.0896 14.6817L26.101 14.6285L26.1162 14.5639L26.139 14.488L26.158 14.4082L26.1846 14.3285L26.2112 14.2487L26.234 14.1918L26.2605 14.1386L26.2909 14.0816L26.3175 14.0323L26.3441 13.9905L26.3631 13.9563L26.3783 13.9373L26.3859 13.9259H26.3821H26.3707L26.3555 13.9221L26.3365 13.9183H26.3175L26.2947 13.9146H26.2719H26.2529L26.1618 13.9183L26.0821 13.9259L26.0061 13.9411L25.9377 13.9601L25.8732 13.9829L25.8124 14.0133L25.7555 14.0399L25.7061 14.0741L25.6567 14.112L25.6111 14.1538L25.5656 14.1994L25.5238 14.2487L25.4782 14.2981L25.4403 14.3513L25.3985 14.4082L25.3529 14.4652L25.4554 13.9449H24.6314L24.0921 17.0324Z" fill="white"/>
<path fill-rule="evenodd" clip-rule="evenodd" d="M24.0921 17.0324H24.9048H24.9162L25.1934 15.3918L25.2048 15.3273L25.22 15.2665L25.2352 15.2057L25.2542 15.1488L25.277 15.0918L25.3073 15.0386L25.3415 14.9855L25.3833 14.9361L25.4289 14.8943L25.4782 14.8488L25.5428 14.8146L25.6111 14.7842L25.6947 14.7576L25.782 14.7348L25.8808 14.7196L25.9909 14.7121H26.0023L26.0137 14.7158H26.0289H26.0441L26.0555 14.7196L26.0669 14.7234L26.0783 14.7272L26.0821 14.7158L26.0896 14.6817L26.101 14.6285L26.1162 14.5639L26.139 14.488L26.158 14.4082L26.1846 14.3285L26.2112 14.2487L26.234 14.1918L26.2605 14.1386L26.2909 14.0816L26.3175 14.0323L26.3441 13.9905L26.3631 13.9563L26.3783 13.9373L26.3859 13.9259H26.3821H26.3707L26.3555 13.9221L26.3365 13.9183H26.3175L26.2947 13.9146H26.2719H26.2529L26.1618 13.9183L26.0821 13.9259L26.0061 13.9411L25.9377 13.9601L25.8732 13.9829L25.8124 14.0133L25.7555 14.0399L25.7061 14.0741L25.6567 14.112L25.6111 14.1538L25.5656 14.1994L25.5238 14.2487L25.4782 14.2981L25.4403 14.3513L25.3985 14.4082L25.3529 14.4652L25.4554 13.9449H24.6314L24.0921 17.0324Z" stroke="white" stroke-width="0.22"/>
<path fill-rule="evenodd" clip-rule="evenodd" d="M36.7534 20.1637V20.1487L36.7761 20.0537L36.8179 19.9637L36.8673 19.8887L36.928 19.8287L36.9964 19.7837L37.0724 19.7587L37.1521 19.7437L37.2319 19.7587L37.3078 19.7837L37.3762 19.8287L37.4369 19.8887L37.4863 19.9637L37.5281 20.0537L37.5509 20.1487V20.1637H37.4673L37.4483 20.0887L37.4217 20.0137L37.3838 19.9487L37.3382 19.8987L37.2812 19.8537L37.2167 19.8287L37.1521 19.8187L37.0875 19.8287L37.023 19.8537L36.966 19.8987L36.9205 19.9487L36.8825 20.0137L36.8559 20.0887L36.8369 20.1637H36.7534Z" fill="#FBB231"/>
<path fill-rule="evenodd" clip-rule="evenodd" d="M37.0078 20.0939V19.9639H37.2178H37.2628L37.3028 19.9689L37.3328 19.9789L37.3628 19.9939L37.3778 20.0139L37.3928 20.0339L37.4028 20.0639L37.4078 20.0939H37.3278V20.0789V20.0589L37.3178 20.0439L37.3078 20.0339L37.2978 20.0289L37.2778 20.0239L37.2578 20.0189H37.2378H37.2178H37.1028V20.0939H37.0078Z" fill="#FBB231"/>
<path fill-rule="evenodd" clip-rule="evenodd" d="M36.7458 20.148L36.7558 20.063H36.8658V20.068L36.8608 20.148H36.7458Z" fill="#FBB231"/>
<path fill-rule="evenodd" clip-rule="evenodd" d="M37.0078 20.148V20.063H37.1028V20.143H37.1978L37.2328 20.133L37.2578 20.128L37.2828 20.123L37.2978 20.113L37.3128 20.103L37.3228 20.093L37.3278 20.073V20.063H37.4078L37.4028 20.093L37.3928 20.113L37.3828 20.133L37.3678 20.148H37.0078Z" fill="#FBB231"/>
<path fill-rule="evenodd" clip-rule="evenodd" d="M37.4723 20.148L37.4673 20.068V20.063H37.5773L37.5873 20.148H37.4723Z" fill="#FBB231"/>
<path fill-rule="evenodd" clip-rule="evenodd" d="M36.7458 20.1274V20.1366L36.7534 20.2375L36.7761 20.3339L36.8179 20.4164L36.8673 20.4898L36.928 20.5495L36.9964 20.5907L37.0724 20.6183L37.1521 20.6274L37.2319 20.6183L37.3078 20.5907L37.3762 20.5495L37.4369 20.4898L37.4863 20.4164L37.5281 20.3339L37.5509 20.2375L37.5584 20.1366V20.1274H37.4711V20.1366L37.4673 20.2238L37.4483 20.2972L37.4217 20.366L37.3838 20.4256L37.3382 20.4715L37.2812 20.5128L37.2167 20.5357L37.1521 20.5449L37.0875 20.5357L37.023 20.5128L36.966 20.4715L36.9204 20.4256L36.8825 20.366L36.8559 20.2972L36.8369 20.2238L36.8331 20.1366V20.1274H36.7458Z" fill="#FBB231"/>
<path fill-rule="evenodd" clip-rule="evenodd" d="M37.0078 20.1274V20.3474H37.1028V20.1574H37.1978L37.3128 20.3474H37.3878L37.2728 20.1574H37.2978L37.3278 20.1524L37.3478 20.1424L37.3678 20.1274H37.0078Z" fill="#FBB231"/>
<path fill-rule="evenodd" clip-rule="evenodd" d="M24.1794 14.8638L24.1567 14.6929L24.1149 14.5372L24.0579 14.4043L23.9858 14.2904L23.9022 14.1916L23.8073 14.1119L23.7009 14.0511L23.5908 13.9979L23.4731 13.9562L23.3554 13.9258H23.2376H23.1199H23.006H22.7743L22.5655 13.96L22.3794 14.0131L22.2123 14.0853L22.068 14.1726L21.9388 14.2676L21.8287 14.3777L21.7338 14.4954L21.6464 14.5828L21.5819 14.7119L21.5287 14.8372L21.4869 14.9587L21.4527 15.0803L21.43 15.1942V15.3005V15.3917V15.6271V15.8398L21.4641 16.0335L21.5097 16.2044L21.5819 16.3563L21.6654 16.4892L21.7604 16.6069L21.8743 16.7056L21.9958 16.7892L22.1249 16.8613L22.2616 16.9183L22.4022 16.9601L22.5465 16.9943H22.6908H22.8351H23.3781H23.4389H23.4959H23.549H23.5984H23.644H23.6895H23.7351H23.7769H23.8225L23.868 16.9677L23.9136 16.9449L24.0313 16.2385L23.9478 16.2879L23.868 16.3335L23.7845 16.3676L23.7009 16.398L23.625 16.4246H23.5452H23.4655H23.3895H23.3098H23.0819H23.006H22.9338H22.8617H22.7857H22.7287L22.6452 16.3297L22.5844 16.3069L22.5351 16.2727L22.4819 16.2385L22.4363 16.1968L22.406 16.1512L22.368 16.1018L22.3338 16.0562L22.3034 15.9993L22.2616 15.9499V15.8967V15.8436V15.7372V15.6993H24.1301V15.5246L24.1756 15.2815V15.0651L24.1794 14.8638ZM23.3971 15.1296H22.3452V15.0917V15.0309V14.9701L22.368 14.9132L22.3946 14.8638L22.4173 14.8144L22.4515 14.7651L22.4857 14.7233L22.5237 14.6815L22.5617 14.6473L22.6034 14.6169L22.6452 14.5904L22.6946 14.5676H22.7439H22.7933H22.8465H22.8996H22.9528H23.0022H23.0477H23.0933L23.1351 14.5904L23.1807 14.6169L23.2186 14.6435L23.2528 14.6777L23.2794 14.7195L23.3098 14.7613L23.3288 14.8106L23.3516 14.8676V14.9246V15.0575L23.3971 15.1296Z" fill="white"/>
</svg>
