<svg width="48" height="30" viewBox="0 0 48 30" fill="none" xmlns="http://www.w3.org/2000/svg">
<path d="M43.4516 0H4.18C1.87145 0 0 1.87145 0 4.18V25.5884C0 27.8969 1.87145 29.7684 4.18 29.7684H43.4516C45.7602 29.7684 47.6316 27.8969 47.6316 25.5884V4.18C47.6316 1.87145 45.7602 0 43.4516 0Z" fill="#F9F9F9"/>
<path d="M21.919 19.3559H19.5911L21.0456 10.4204H23.3734L21.919 19.3559Z" fill="#0066B2"/>
<path d="M17.6354 10.4203L15.4177 16.5646L15.1557 15.2431L14.3696 11.2253C14.275 10.7069 13.7911 10.3531 13.2684 10.4203H9.6L9.55823 10.5722C10.417 10.7863 11.238 11.1308 11.9924 11.5937L14.0127 19.3671H16.4392L20.1266 10.4203H17.6354Z" fill="#0066B2"/>
<path d="M35.9354 19.3669H38.0734L36.2127 10.4314H34.3405C33.8758 10.3955 33.4413 10.6642 33.2658 11.096L29.7949 19.3669H32.2215L32.7076 18.0416H35.6658L35.9354 19.3669ZM33.3759 16.2074L34.5987 12.8618L35.2861 16.2074H33.3759Z" fill="#0066B2"/>
<path d="M29.9772 12.5694L30.3114 10.6327C29.6383 10.3964 28.9321 10.2683 28.219 10.2529C27.0608 10.2529 24.3038 10.7656 24.3038 13.2188C24.3038 15.5276 27.524 15.5542 27.524 16.7694C27.524 17.9846 24.638 17.7643 23.6848 16.9972L23.3392 19.0061C24.1695 19.3544 25.0631 19.5264 25.9633 19.5112C27.5506 19.5112 29.9468 18.6871 29.9468 16.4504C29.9468 14.1263 26.7 13.9099 26.7 12.8998C26.7 11.8896 28.9823 12.0188 29.9772 12.5694Z" fill="#0066B2"/>
<path d="M15.1557 15.2431L14.3696 11.2253C14.275 10.7069 13.7911 10.3531 13.2684 10.4203H9.6L9.55823 10.5722C10.8205 10.8932 11.9982 11.4839 13.0101 12.3038C13.9725 13.0767 14.7128 14.0909 15.1557 15.2431Z" fill="#F9A533"/>
</svg>
