<?xml version="1.0" standalone="no"?>
<!DOCTYPE svg PUBLIC "-//W3C//DTD SVG 1.1//EN" "http://www.w3.org/Graphics/SVG/1.1/DTD/svg11.dtd" >
<svg xmlns="http://www.w3.org/2000/svg" xmlns:xlink="http://www.w3.org/1999/xlink" version="1.1">
<metadata>
Created by FontForge 20190801 at Sun Nov  5 15:25:43 2023
 By www-data
(c) 2023 MacPaw Inc. (Authors: Alfabravo + MacPaw)
</metadata>
<defs>
<font id="FixelDisplaySemiBold" horiz-adv-x="0" >
  <font-face 
    font-family="FixelDisplaySemiBold"
    font-weight="600"
    font-stretch="normal"
    units-per-em="1000"
    panose-1="0 0 0 0 0 0 0 0 0 0"
    ascent="800"
    descent="-200"
    x-height="520"
    cap-height="700"
    bbox="-1400 -410 1337 1025"
    underline-thickness="50"
    underline-position="-125"
    unicode-range="U+000D-FFE3"
  />
<missing-glyph horiz-adv-x="714" 
d="M199 619q-14 -1 -23 6t-10 18q-1 12 6.5 20t21.5 10q16 1 28.5 -5.5t14.5 -17.5q1 -11 -10.5 -20.5t-27.5 -10.5zM122 427q-20 -1 -36.5 9t-17.5 23q0 8 11 29.5t10 39.5q-2 18 -17.5 37t-15.5 27q-1 13 13 25.5t31 13.5q38 3 66 -40q9 -13 25.5 -26.5t18.5 -27.5
q1 -14 -14 -31.5t-22 -33.5q-18 -42 -52 -45zM254 551q-17 -1 -28.5 6.5t-12.5 21.5q-2 14 8.5 24t27.5 11q19 1 34.5 -7t17.5 -20q1 -13 -13 -23.5t-34 -12.5zM261 470q-17 -2 -28 6t-12 22q-2 14 8 23.5t27 10.5q19 2 34 -6t16 -21q1 -12 -12.5 -22.5t-32.5 -12.5z
M218 401q-14 -1 -23 6t-10 19q-1 11 7 19.5t22 9.5q16 1 28.5 -6t13.5 -18q1 -10 -10.5 -19t-27.5 -11zM564 245q-14 1 -22 9.5t-7 19.5q1 12 10 19t23 6q16 -2 27.5 -11t10.5 -19q-1 -11 -13.5 -18t-28.5 -6zM451 70q-18 1 -32 13t-13 25q0 8 15.5 27.5t17.5 37.5t-10 39.5
t-11 29.5q2 13 18 22.5t35 8.5q34 -1 54 -44q7 -15 21.5 -33t13.5 -32q-1 -11 -6.5 -18t-17 -16.5t-19.5 -20.5q-30 -42 -66 -39zM606 169q-17 1 -27 10.5t-9 23.5t13 22t29 6q19 -2 33 -12.5t13 -23.5q-1 -12 -17 -20t-35 -6zM599 87q-17 2 -26.5 11.5t-8.5 23.5
q2 14 13 21.5t27 6.5q19 -2 33 -12.5t13 -23.5q-2 -12 -17 -20t-34 -7zM545 27q-14 1 -22 9.5t-7 20.5q2 26 34 24q16 -2 27 -11.5t10 -19.5t-14 -17.5t-28 -5.5z" />
    <glyph glyph-name="uniE000" unicode="&#x457;&#x457;" horiz-adv-x="547" 
d="M65 595q-27 0 -44.5 17.5t-17.5 44.5t17.5 44.5t44.5 17.5q26 0 44 -17.5t18 -44.5t-18 -44.5t-44 -17.5zM272 595q-26 0 -43 17.5t-17 44.5t17 44.5t43 17.5q28 0 46 -17.5t18 -44.5t-18 -44.5t-46 -17.5zM482 595q-27 0 -44 17.5t-17 44.5t17 44.5t44 17.5t45 -17.5
t18 -44.5t-18 -44.5t-45 -17.5zM75 0v520h124v-520h-124zM348 0v520h124v-520h-124z" />
    <glyph glyph-name="uniF45D" unicode="&#x404;`" horiz-adv-x="692" 
d="M505 889l-71 -147h-100l52 147h119zM387 -11q-152 0 -249 101.5t-97 257.5v4q0 156 96.5 257.5t247.5 101.5q90 0 164 -40t120 -111l-100 -72q-62 107 -181 107h-2q-84 0 -139 -51t-69 -137h300v-106h-301q12 -89 68.5 -142t142.5 -53h1q60 0 108 27.5t77 77.5l97 -71
q-42 -69 -117.5 -110t-165.5 -41h-1z" />
    <glyph glyph-name="uniF45E" unicode="&#x406;`" horiz-adv-x="300" 
d="M264 889l-71 -147h-100l52 147h119zM84 0v700h131v-700h-131z" />
    <glyph glyph-name="uniF45F" unicode="&#x407;`" horiz-adv-x="300" 
d="M263 1025l-71 -147h-100l52 147h119zM58 754q-26 0 -43 17t-17 44q0 28 17 46t43 18t44.5 -18.5t18.5 -45.5t-18 -44t-45 -17zM240 754q-27 0 -44 17t-17 44q0 28 17 46t44 18q26 0 44 -18t18 -46q0 -27 -17.5 -44t-44.5 -17zM84 0v700h131v-700h-131z" />
    <glyph glyph-name="uniF460" unicode="&#x410;`" horiz-adv-x="662" 
d="M445 889l-71 -147h-100l52 147h119zM-2 0l247 700h172l246 -700h-140l-56 165h-273l-55 -165h-141zM226 273h209l-100 296h-8z" />
    <glyph glyph-name="uniF461" unicode="&#x415;`" horiz-adv-x="580" 
d="M419 889l-71 -147h-100l52 147h119zM84 0v700h432v-116h-301v-175h281v-110h-281v-183h311v-116h-442z" />
    <glyph glyph-name="uniF462" unicode="&#x418;`" horiz-adv-x="741" 
d="M485 889l-71 -147h-100l52 147h119zM84 0v700h129v-497h8l289 497h146v-700h-130v521h-8l-300 -521h-134z" />
    <glyph glyph-name="uniF463" unicode="&#x41e;`" horiz-adv-x="779" 
d="M504 889l-71 -147h-100l52 147h119zM41 347v6q0 155 97.5 257t247.5 102h7q150 0 247.5 -101.5t97.5 -256.5v-8q0 -154 -97.5 -256t-247.5 -102h-7q-149 0 -247 102.5t-98 256.5zM177 347q0 -107 59 -174t151 -67h7q91 0 149.5 67t58.5 174v6q0 108 -58.5 175t-150.5 67
h-7q-91 0 -150 -67.5t-59 -174.5v-6z" />
    <glyph glyph-name="uniF464" unicode="&#x423;`" horiz-adv-x="614" 
d="M435 889l-71 -147h-100l52 147h119zM215 -12q-54 0 -102 21v111q38 -21 80 -21q53 0 74 38l-258 563h142l178 -424h10l138 424h132l-209 -569q-26 -74 -70 -108.5t-115 -34.5z" />
    <glyph glyph-name="uniF465" unicode="&#x42b;`" horiz-adv-x="878" 
d="M554 889l-71 -147h-100l52 147h119zM84 0v700h131v-243h123q112 0 180 -60.5t68 -163.5v-6q0 -103 -68 -165t-180 -62h-254zM663 0v700h131v-700h-131zM212 113h107q66 0 101 30.5t35 86.5v5q0 55 -35 84.5t-101 29.5h-107v-236z" />
    <glyph glyph-name="uniF466" unicode="&#x42d;`" horiz-adv-x="693" 
d="M422 889l-71 -147h-100l52 147h119zM306 -11h-1q-91 0 -166.5 41t-116.5 110l97 71q29 -50 77.5 -77.5t108.5 -27.5h1q86 0 142.5 53t68.5 142h-302v106h301q-14 86 -69.5 137t-138.5 51h-2q-118 0 -183 -107l-100 72q46 70 120 110.5t164 40.5q151 0 248 -101.5
t97 -257.5v-4q0 -156 -97 -257.5t-249 -101.5z" />
    <glyph glyph-name="uniF467" unicode="&#x42e;`" horiz-adv-x="1029" 
d="M651 889l-71 -147h-100l52 147h119zM645 -12q-135 0 -227.5 88t-106.5 225h-96v-301h-131v700h131v-287h97q18 131 110 215t223 84h6q146 0 241.5 -101t95.5 -252v-17q0 -151 -96 -252.5t-240 -101.5h-7zM444 358v-16q0 -104 56.5 -170.5t144.5 -66.5h6q88 0 144.5 66.5
t56.5 170.5v16q0 104 -56.5 170.5t-144.5 66.5h-5q-89 0 -145.5 -66.5t-56.5 -170.5z" />
    <glyph glyph-name="uniF468" unicode="&#x42f;`" horiz-adv-x="657" 
d="M450 889l-71 -147h-100l52 147h119zM16 0l162 275q-65 28 -102.5 79.5t-37.5 117.5v15q0 99 73.5 156t198.5 57h262v-700h-131v246h-140l-137 -246h-148zM445 349v239h-123q-70 0 -109.5 -28.5t-39.5 -79.5v-12q0 -54 39.5 -86.5t110.5 -32.5h122z" />
    <glyph glyph-name="uniF469" unicode="&#x401;`" horiz-adv-x="580" 
d="M415 1025l-71 -147h-100l52 147h119zM189 755q-28 0 -46 16.5t-18 43.5t18 45t46 18q29 0 48 -18t19 -45t-19 -43.5t-48 -16.5zM418 755q-29 0 -46.5 16.5t-17.5 43.5t18 45t46 18q29 0 48 -18t19 -45t-19 -43.5t-48 -16.5zM84 0v700h432v-116h-301v-175h281v-110h-281
v-183h311v-116h-442z" />
    <glyph glyph-name="uniF46A" unicode="&#x430;`" horiz-adv-x="586" 
d="M332 575h-95l57 155h113zM220 -10q-81 0 -131.5 43t-50.5 112v7q0 169 314 169h42v23q0 38 -28.5 61t-79.5 23h-3q-85 0 -169 -53l-51 90q106 66 227 66h6q99 0 157 -50.5t58 -138.5v-235q0 -46 18 -107h-118q-9 24 -14 62q-72 -72 -177 -72zM245 90q90 0 149 64v87h-35
q-201 0 -201 -83v-4q0 -28 24 -46t63 -18z" />
    <glyph glyph-name="uniF46B" unicode="&#x435;`" horiz-adv-x="610" 
d="M359 575h-95l57 155h113zM312 -9q-119 0 -193.5 72t-74.5 187v14q0 115 75.5 190t190.5 75h6q108 0 178 -67.5t70 -172.5v-67h-397v-1q7 -57 48.5 -91.5t104.5 -34.5h5q47 0 88 19t64 48l69 -75q-36 -44 -98 -70t-127 -26h-9zM170 305h276q-5 56 -42 91.5t-93 35.5h-1
q-54 0 -91.5 -34.5t-48.5 -92.5z" />
    <glyph glyph-name="uniF46C" unicode="&#x438;`" horiz-adv-x="641" 
d="M363 575h-95l57 155h113zM75 0v520h121v-331h6l235 331h129v-520h-122v359h-5l-251 -359h-113z" />
    <glyph glyph-name="uniF46D" unicode="&#x43e;`" horiz-adv-x="646" 
d="M366 575h-95l57 155h113zM319 -9q-120 0 -197.5 73.5t-77.5 188.5v14q0 115 77.5 188.5t197.5 73.5h8q120 0 197.5 -73.5t77.5 -188.5v-14q0 -115 -77.5 -188.5t-197.5 -73.5h-8zM320 89h6q64 0 105.5 46.5t41.5 119.5v10q0 73 -41.5 119.5t-105.5 46.5h-6
q-64 0 -105 -46.5t-41 -119.5v-10q0 -73 41 -119.5t105 -46.5z" />
    <glyph glyph-name="uniF46E" unicode="&#x443;`" horiz-adv-x="558" 
d="M328 575h-95l57 155h113zM156 -201q-59 0 -96 19v106q40 -20 72 -20q61 0 102 73l-225 543h132l153 -399h7l127 399h126l-191 -549q-59 -172 -207 -172z" />
    <glyph glyph-name="uniF46F" unicode="&#x44b;`" horiz-adv-x="773" 
d="M430 575h-95l57 155h113zM75 0v520h124v-167h112q78 0 128.5 -47.5t50.5 -120.5v-17q0 -72 -51.5 -120t-130.5 -48h-233zM574 0v520h124v-520h-124zM195 95h96q32 0 54 22t22 55v10q0 34 -21.5 55.5t-54.5 21.5h-96v-164z" />
    <glyph glyph-name="uniF470" unicode="&#x44d;`" horiz-adv-x="571" 
d="M300 575h-95l57 155h113zM262 -8h-8q-151 0 -230 115l90 67q47 -82 136 -82h5q58 0 97 34t49 92h-218v84h218q-9 61 -46.5 94.5t-95.5 33.5h-3q-91 0 -136 -82l-92 61q75 119 226 119h7q115 0 190.5 -73t75.5 -186v-16q0 -115 -73.5 -188t-191.5 -73z" />
    <glyph glyph-name="uniF471" unicode="&#x44e;`" horiz-adv-x="835" 
d="M476 575h-95l57 155h113zM528 -9q-103 0 -173.5 64t-79.5 165h-78v-220h-122v520h122v-200h82q15 94 83 151.5t166 57.5h7q111 0 183 -72.5t72 -183.5v-26q0 -111 -72 -183.5t-183 -72.5h-7zM530 90h4q56 0 91.5 44t35.5 116v24q0 70 -35 113t-92 43h-4q-57 0 -92 -43
t-35 -113v-24q0 -72 35.5 -116t91.5 -44z" />
    <glyph glyph-name="uniF472" unicode="&#x44f;`" horiz-adv-x="567" 
d="M331 575h-95l57 155h113zM29 0l118 201q-99 46 -99 138v18q0 71 53 117t135 46h256v-520h-117v177h-116l-99 -177h-131zM256 268h120v157h-120q-38 0 -63 -20t-25 -51v-11q0 -32 25 -53.5t63 -21.5z" />
    <glyph glyph-name="uniF473" unicode="&#x451;`" horiz-adv-x="610" 
d="M324 581h-84l57 155h103zM167 596q-26 0 -43 17t-17 44t17 44.5t43 17.5t43.5 -17.5t17.5 -44.5t-17.5 -44t-43.5 -17zM465 596q-27 0 -43.5 17t-16.5 44t16.5 44.5t43.5 17.5q26 0 43.5 -17.5t17.5 -44.5t-17.5 -44t-43.5 -17zM312 -9q-119 0 -193.5 72t-74.5 187v14
q0 115 75.5 190t190.5 75h6q108 0 178 -67.5t70 -172.5v-67h-397v-1q7 -57 48.5 -91.5t104.5 -34.5h5q47 0 88 19t64 48l69 -75q-36 -44 -98 -70t-127 -26h-9zM170 305h276q-5 56 -42 91.5t-93 35.5h-1q-54 0 -91.5 -34.5t-48.5 -92.5z" />
    <glyph glyph-name="uniF475" unicode="&#x454;`" horiz-adv-x="573" 
d="M362 575h-95l57 155h113zM314 -8q-119 0 -194.5 73t-75.5 188v16q0 113 76 186t192 73h7q74 0 132.5 -31.5t93.5 -87.5l-92 -61q-44 81 -135 81h-3q-58 0 -95.5 -33.5t-45.5 -93.5h216v-84h-216q10 -58 49.5 -91.5t97.5 -33.5h4q89 0 134 81l90 -67q-76 -115 -227 -115
h-8z" />
    <glyph glyph-name="uniF476" unicode="&#x456;`" horiz-adv-x="274" 
d="M180 575h-95l57 155h113zM75 0v520h124v-520h-124z" />
    <glyph glyph-name="uniF477" unicode="&#x457;`" horiz-adv-x="274" 
d="M145 581h-84l57 155h103zM-12 596q-26 0 -43 17t-17 44t17 44.5t43 17.5t43.5 -17.5t17.5 -44.5t-17.5 -44t-43.5 -17zM286 596q-27 0 -43.5 17t-16.5 44t16.5 44.5t43.5 17.5q26 0 43.5 -17.5t17.5 -44.5t-17.5 -44t-43.5 -17zM75 0v520h124v-520h-124z" />
    <glyph glyph-name="uniF478" unicode="&#x462;`" horiz-adv-x="704" 
d="M315 889l-71 -147h-100l52 147h119zM135 705h130v-78h145v-106h-145v-89h163q108 0 174.5 -57.5t66.5 -153.5v-7q0 -97 -67.5 -155.5t-177.5 -58.5h-289v521h-119v106h119v78zM263 113h156q54 0 85.5 28t31.5 76v6q0 48 -32 75.5t-85 27.5h-156v-213z" />
    <glyph glyph-name="uniF479" unicode="&#x463;`" horiz-adv-x="564" 
d="M380 575h-95l57 155h113zM98 640l124 15v-135h165v-96h-165v-84h136q78 0 127.5 -46t49.5 -116v-17q0 -69 -51 -115t-130 -46h-256v420h-84v84q45 11 84 14v122zM218 94h118q32 0 53.5 20t21.5 51v12q0 30 -21.5 50.5t-53.5 20.5h-118v-154z" />
    <glyph glyph-name="f_f" unicode="ff" horiz-adv-x="696" 
d="M87 0v418h-63v80q22 9 63 15v34q0 80 42 125.5t117 45.5q65 0 113 -19v-99q-40 17 -80 17q-38 0 -56 -18t-18 -61v-23h198v32q0 80 42 125.5t117 45.5q66 0 112 -19v-99q-39 17 -80 17q-38 0 -55.5 -18t-17.5 -60v-24h152v-97h-146v-418h-124v418h-192v-418h-124z" />
    <glyph glyph-name="fi" unicode="fi" horiz-adv-x="612" 
d="M462 601q-32 0 -52.5 18.5t-20.5 47.5t20.5 48.5t52.5 19.5q33 0 54 -19.5t21 -48.5t-21 -47.5t-54 -18.5zM87 0v418h-63v80q22 9 63 15v34q0 80 42 125.5t117 45.5q65 0 113 -19v-99q-40 17 -80 17q-38 0 -56 -18t-18 -61v-23h320v-515h-124v418h-190v-418h-124z" />
    <glyph glyph-name="fl" unicode="fl" horiz-adv-x="583" 
d="M384 0v588q-48 29 -111 29q-35 0 -51.5 -18.5t-16.5 -60.5v-23h132v-97h-126v-418h-124v418h-63v80q22 9 63 15v34q0 81 44 126t124 45q108 0 253 -68v-650h-124z" />
    <glyph glyph-name="f_f_i" unicode="ffi" horiz-adv-x="929" 
d="M779 601q-32 0 -52.5 18.5t-20.5 47.5t21 48.5t52 19.5q33 0 54 -19.5t21 -48.5t-21 -47.5t-54 -18.5zM718 0v418h-191v-418h-124v418h-192v-418h-124v418h-63v80q22 9 63 15v34q0 80 42 125.5t117 45.5q65 0 113 -19v-99q-40 17 -80 17q-38 0 -56 -18t-18 -61v-23h198
v32q0 80 42 125.5t117 45.5q66 0 112 -19v-99q-39 17 -80 17q-38 0 -55.5 -18t-17.5 -60v-24h321v-515h-124z" />
    <glyph glyph-name="f_f_l" unicode="ffl" horiz-adv-x="898" 
d="M87 0v418h-63v80q22 9 63 15v34q0 80 42 125.5t117 45.5q65 0 113 -19v-99q-40 17 -80 17q-38 0 -56 -18t-18 -59v-25h198v32q0 81 43.5 126t123.5 45q109 0 254 -68v-650h-124v588q-50 29 -111 29q-35 0 -51.5 -18t-16.5 -60v-24h144v-97h-138v-418h-124v418h-192v-418
h-124z" />
    <glyph glyph-name="uni0407_uni0407" unicode="&#x407;&#x407;" horiz-adv-x="599" 
d="M383 753q-26 0 -43 17.5t-17 44.5q0 28 17 45.5t43 17.5q27 0 44.5 -17.5t17.5 -45.5q0 -27 -17.5 -44.5t-44.5 -17.5zM552 753q-26 0 -43 17.5t-17 44.5t17 45t43 18q27 0 44.5 -17.5t17.5 -45.5q0 -27 -17.5 -44.5t-44.5 -17.5zM45 753q-26 0 -43 17.5t-17 44.5
q0 28 17 45.5t43 17.5q27 0 45 -18t18 -45t-18 -44.5t-45 -17.5zM214 753q-26 0 -43 17.5t-17 44.5q0 28 17 45.5t43 17.5q27 0 44.5 -17.5t17.5 -45.5q0 -27 -17.5 -44.5t-44.5 -17.5zM384 0v700h131v-700h-131zM84 0v700h131v-700h-131z" />
    <glyph glyph-name=".notdef" horiz-adv-x="714" 
d="M199 619q-14 -1 -23 6t-10 18q-1 12 6.5 20t21.5 10q16 1 28.5 -5.5t14.5 -17.5q1 -11 -10.5 -20.5t-27.5 -10.5zM122 427q-20 -1 -36.5 9t-17.5 23q0 8 11 29.5t10 39.5q-2 18 -17.5 37t-15.5 27q-1 13 13 25.5t31 13.5q38 3 66 -40q9 -13 25.5 -26.5t18.5 -27.5
q1 -14 -14 -31.5t-22 -33.5q-18 -42 -52 -45zM254 551q-17 -1 -28.5 6.5t-12.5 21.5q-2 14 8.5 24t27.5 11q19 1 34.5 -7t17.5 -20q1 -13 -13 -23.5t-34 -12.5zM261 470q-17 -2 -28 6t-12 22q-2 14 8 23.5t27 10.5q19 2 34 -6t16 -21q1 -12 -12.5 -22.5t-32.5 -12.5z
M218 401q-14 -1 -23 6t-10 19q-1 11 7 19.5t22 9.5q16 1 28.5 -6t13.5 -18q1 -10 -10.5 -19t-27.5 -11zM564 245q-14 1 -22 9.5t-7 19.5q1 12 10 19t23 6q16 -2 27.5 -11t10.5 -19q-1 -11 -13.5 -18t-28.5 -6zM451 70q-18 1 -32 13t-13 25q0 8 15.5 27.5t17.5 37.5t-10 39.5
t-11 29.5q2 13 18 22.5t35 8.5q34 -1 54 -44q7 -15 21.5 -33t13.5 -32q-1 -11 -6.5 -18t-17 -16.5t-19.5 -20.5q-30 -42 -66 -39zM606 169q-17 1 -27 10.5t-9 23.5t13 22t29 6q19 -2 33 -12.5t13 -23.5q-1 -12 -17 -20t-35 -6zM599 87q-17 2 -26.5 11.5t-8.5 23.5
q2 14 13 21.5t27 6.5q19 -2 33 -12.5t13 -23.5q-2 -12 -17 -20t-34 -7zM545 27q-14 1 -22 9.5t-7 20.5q2 26 34 24q16 -2 27 -11.5t10 -19.5t-14 -17.5t-28 -5.5z" />
    <glyph glyph-name="uni0000" 
 />
    <glyph glyph-name="uni0000" 
 />
    <glyph glyph-name="uni000D" unicode="&#xd;" horiz-adv-x="250" 
 />
    <glyph glyph-name="space" unicode=" " horiz-adv-x="266" 
 />
    <glyph glyph-name="exclam" unicode="!" horiz-adv-x="278" 
d="M86 220l-15 242v238h136v-238l-16 -242h-105zM138 -12q-33 0 -55.5 21.5t-22.5 52.5v5q0 30 22.5 51.5t55.5 21.5t57 -21.5t24 -51.5v-5q0 -31 -24 -52.5t-57 -21.5z" />
    <glyph glyph-name="quotedbl" unicode="&#x22;" horiz-adv-x="358" 
d="M52 418l-15 168v114h112v-114l-15 -168h-82zM224 418l-15 168v114h112v-114l-15 -168h-82z" />
    <glyph glyph-name="numbersign" unicode="#" horiz-adv-x="820" 
d="M86 0l53 167h-114v108h149l51 160h-114v108h148l50 157h129l-50 -157h164l50 157h128l-49 -157h114v-108h-149l-51 -160h114v-108h-148l-54 -167h-128l53 167h-163l-54 -167h-129zM303 275h163l51 160h-164z" />
    <glyph glyph-name="dollar" unicode="$" horiz-adv-x="593" 
d="M240 -75v97q-128 17 -209 89l63 99q39 -34 99 -55.5t118 -21.5q55 0 85.5 17.5t30.5 49.5q0 37 -35.5 57.5t-114.5 42.5q-123 34 -175 78t-52 114q0 71 49 121t131 64v98h109v-96q116 -13 193 -76l-56 -97q-85 62 -192 62q-49 0 -77.5 -18t-28.5 -48q0 -31 33.5 -50.5
t112.5 -41.5q128 -34 182 -79t54 -119q0 -78 -58 -130t-153 -62v-95h-109z" />
    <glyph glyph-name="percent" unicode="%" horiz-adv-x="833" 
d="M199 336q-71 0 -116.5 51t-45.5 128v14q0 78 45 128.5t117 50.5h13q72 0 117.5 -50.5t45.5 -128.5v-14q0 -77 -46 -128t-117 -51h-13zM74 0l548 703h138l-548 -703h-138zM204 432h3q30 0 49 25t19 62v6q0 38 -19 62.5t-49 24.5h-3q-30 0 -49 -24.5t-19 -62.5v-6
q0 -37 19 -62t49 -25zM621 -8q-72 0 -117.5 50.5t-45.5 128.5v14q0 77 45.5 128t117.5 51h12q72 0 117.5 -51t45.5 -128v-14q0 -78 -45.5 -128.5t-117.5 -50.5h-12zM625 88h4q30 0 48.5 24.5t18.5 62.5v6q0 37 -18.5 62t-48.5 25h-4q-30 0 -48.5 -25t-18.5 -62v-6
q0 -38 18.5 -62.5t48.5 -24.5z" />
    <glyph glyph-name="ampersand" unicode="&#x26;" horiz-adv-x="744" 
d="M299 -11q-113 0 -180 53t-67 143q0 68 40 121t108 83l-4 5q-35 38 -53 71t-18 76q0 77 53 123.5t140 46.5q85 0 136 -44.5t51 -117.5q0 -116 -134 -182l135 -151q25 50 25 123v37h108v-59q0 -104 -54 -187l115 -130h-152l-44 52q-90 -63 -205 -63zM308 438q88 48 88 109
q0 31 -20 49.5t-55 18.5q-36 0 -58 -19t-22 -49q0 -17 9.5 -36t18.5 -29t39 -44zM432 129l-165 185q-97 -37 -97 -119q0 -48 36.5 -76.5t98.5 -28.5q78 0 127 39z" />
    <glyph glyph-name="quotesingle" unicode="'" horiz-adv-x="194" 
d="M56 418l-15 168v114h112v-114l-15 -168h-82z" />
    <glyph glyph-name="parenleft" unicode="(" horiz-adv-x="294" 
d="M194 -176q-70 91 -108 211t-38 241q0 122 38.5 243t107.5 214l82 -46q-100 -186 -100 -410q0 -226 100 -408z" />
    <glyph glyph-name="parenright" unicode=")" horiz-adv-x="294" 
d="M101 -176l-83 45q101 184 101 408q0 225 -101 410l83 46q69 -94 107.5 -214.5t38.5 -242.5q0 -121 -38.5 -240.5t-107.5 -211.5z" />
    <glyph glyph-name="asterisk" unicode="*" horiz-adv-x="453" 
d="M185 311v104l4 24l-19 -16l-90 -51l-42 72l89 52l24 9l-23 8l-91 52l43 73l88 -51l21 -17l-4 25v104h84v-103l-4 -25l19 16l89 51l42 -72l-89 -52l-23 -9l24 -9l89 -51l-43 -73l-89 52l-19 16l4 -26v-103h-84z" />
    <glyph glyph-name="plus" unicode="+" horiz-adv-x="592" 
d="M243 67v206h-197v104h197v206h105v-206h198v-104h-198v-206h-105z" />
    <glyph glyph-name="comma" unicode="," horiz-adv-x="240" 
d="M9 -131l64 270h130l-97 -270h-97z" />
    <glyph glyph-name="hyphen" unicode="-" horiz-adv-x="453" 
d="M67 258v104h320v-104h-320z" />
    <glyph glyph-name="period" unicode="." horiz-adv-x="242" 
d="M121 -12q-33 0 -56 21.5t-23 52.5v5q0 30 23 51.5t56 21.5q32 0 56 -21.5t24 -51.5v-5q0 -31 -24 -52.5t-56 -21.5z" />
    <glyph glyph-name="slash" unicode="/" horiz-adv-x="325" 
d="M21 -111l163 831h120l-163 -831h-120z" />
    <glyph glyph-name="zero" unicode="0" horiz-adv-x="654" 
d="M327 -11q-131 0 -208.5 97.5t-77.5 263.5t77.5 263.5t208.5 97.5t208.5 -97.5t77.5 -263.5t-77.5 -263.5t-208.5 -97.5zM327 105q74 0 115 64t41 181t-41 181t-115 64q-75 0 -116 -64t-41 -181t41 -181t116 -64z" />
    <glyph glyph-name="one" unicode="1" horiz-adv-x="398" 
d="M196 700h118v-700h-125v490q-67 -54 -163 -54v103q75 4 122.5 48t47.5 113z" />
    <glyph glyph-name="two" unicode="2" horiz-adv-x="571" 
d="M33 0v100q41 25 82 53.5t95 72t93.5 84.5t67 90.5t27.5 91.5q0 47 -30.5 76t-80.5 29q-52 0 -89.5 -34t-48.5 -100l-122 27q14 104 84 163t176 59t173 -59.5t67 -153.5q0 -56 -28.5 -114.5t-76.5 -109t-95.5 -89t-100.5 -73.5h318v-113h-511z" />
    <glyph glyph-name="three" unicode="3" horiz-adv-x="616" 
d="M299 -11q-101 0 -170 45.5t-94 129.5l116 27q36 -86 148 -86q67 0 106 36t39 97q0 56 -35 87.5t-100 31.5q-53 0 -98 -26l-42 77l203 179h-303v113h464v-97l-187 -155q99 0 163.5 -57.5t64.5 -155.5q0 -111 -75 -178.5t-200 -67.5z" />
    <glyph glyph-name="four" unicode="4" horiz-adv-x="601" 
d="M369 0v130h-352v98l300 472h172v-463h87v-107h-87v-130h-120zM144 237h225v343h-12l-213 -332v-11z" />
    <glyph glyph-name="five" unicode="5" horiz-adv-x="606" 
d="M296 -11q-99 0 -168 45.5t-94 129.5l117 27q37 -86 146 -86q71 0 109.5 35.5t38.5 95.5q0 58 -35 90t-97 32q-89 0 -147 -57l-100 28l41 371h420v-114h-323l-19 -170q67 45 151 45q111 0 174 -59.5t63 -162.5q0 -113 -75.5 -181.5t-201.5 -68.5z" />
    <glyph glyph-name="six" unicode="6" horiz-adv-x="641" 
d="M582 544l-119 -30q-35 88 -128 88q-61 0 -100.5 -37t-53.5 -86.5t-14 -109.5q33 42 85 64t109 22q102 0 171.5 -60.5t69.5 -164.5q0 -107 -76 -174t-197 -67q-137 0 -212 91.5t-75 259.5q0 174 77.5 272.5t215.5 98.5q92 0 156.5 -44t90.5 -123zM176 235q14 -65 53 -99
t99 -34q66 0 107 37t41 95q0 55 -37.5 88t-98.5 33q-56 0 -102.5 -25.5t-61.5 -68.5q-2 -12 0 -26z" />
    <glyph glyph-name="seven" unicode="7" horiz-adv-x="509" 
d="M96 0l260 574v10h-335v116h472v-96l-256 -604h-141z" />
    <glyph glyph-name="eight" unicode="8" horiz-adv-x="622" 
d="M311 -11q-126 0 -200 56t-74 149q0 128 131 179q-102 49 -102 155q0 85 66 134t179 49t179 -49t66 -132q0 -109 -110 -157q66 -24 102.5 -70.5t36.5 -109.5q0 -93 -74.5 -148.5t-199.5 -55.5zM311 419q59 0 92.5 24.5t33.5 67.5t-33.5 67t-92.5 24t-92 -24t-33 -67
q0 -44 33 -68t92 -24zM312 102q71 0 110 28.5t39 79.5q0 50 -39 78.5t-110 28.5q-72 0 -111.5 -28.5t-39.5 -78.5q0 -51 39.5 -79.5t111.5 -28.5z" />
    <glyph glyph-name="nine" unicode="9" horiz-adv-x="641" 
d="M59 156l119 30q35 -88 128 -88q61 0 100.5 37t53.5 86.5t14 109.5q-33 -42 -85 -64t-109 -22q-102 0 -171.5 60.5t-69.5 164.5q0 107 76 174t197 67q137 0 212 -91.5t75 -259.5q0 -174 -77.5 -272.5t-215.5 -98.5q-92 0 -156.5 44t-90.5 123zM465 465q-14 65 -53 99
t-99 34q-66 0 -107 -37t-41 -95q0 -55 37.5 -88t98.5 -33q56 0 102.5 25.5t61.5 68.5q2 12 0 26z" />
    <glyph glyph-name="colon" unicode=":" horiz-adv-x="242" 
d="M121 306q-33 0 -56 21.5t-23 52.5v5q0 30 23 51.5t56 21.5q32 0 56 -21.5t24 -51.5v-5q0 -31 -24 -52.5t-56 -21.5zM121 -12q-33 0 -56 21.5t-23 52.5v5q0 30 23 51.5t56 21.5q32 0 56 -21.5t24 -51.5v-5q0 -31 -24 -52.5t-56 -21.5z" />
    <glyph glyph-name="semicolon" unicode=";" horiz-adv-x="249" 
d="M134 305q-33 0 -56 21.5t-23 52.5v5q0 30 23 51.5t56 21.5q32 0 56 -21.5t24 -51.5v-5q0 -31 -24 -52.5t-56 -21.5zM9 -131l64 270h130l-97 -270h-97z" />
    <glyph glyph-name="less" unicode="&#x3c;" horiz-adv-x="565" 
d="M501 51l-455 227v93l455 226v-118l-329 -155l329 -157v-116z" />
    <glyph glyph-name="equal" unicode="=" horiz-adv-x="592" 
d="M56 367v103h480v-103h-480zM56 180v104h480v-104h-480z" />
    <glyph glyph-name="greater" unicode="&#x3e;" horiz-adv-x="565" 
d="M64 51v116l328 157v1l-328 154v118l455 -226v-93z" />
    <glyph glyph-name="question" unicode="?" horiz-adv-x="519" 
d="M198 220q-1 3 -1 27q0 56 23 94t69 77q3 3 14 12t14.5 12.5t12.5 12t12 13t9 12.5t8.5 14.5t4.5 15t2 17.5q0 37 -27.5 57t-72.5 20q-53 0 -87.5 -30t-39.5 -77l-113 18q7 89 76.5 147t174.5 58q96 0 157.5 -49.5t61.5 -128.5q0 -51 -22 -87t-73 -77q-32 -26 -47.5 -40.5
t-30 -42t-14.5 -59.5v-16h-111zM257 -12q-33 0 -56 21.5t-23 52.5v5q0 30 23 51.5t56 21.5q32 0 56 -21.5t24 -51.5v-5q0 -31 -23.5 -52.5t-56.5 -21.5z" />
    <glyph glyph-name="at" unicode="@" horiz-adv-x="999" 
d="M500 -191q-193 0 -326 131t-133 321t135.5 320.5t331.5 130.5q193 0 321.5 -127.5t128.5 -318.5q0 -116 -52.5 -185t-140.5 -69q-47 0 -82 21.5t-52 58.5q-64 -80 -160 -80h-4q-92 0 -151 65.5t-59 166.5v24q0 101 59 166.5t151 65.5h4q91 0 153 -70q10 46 18 63h83v-303
q0 -85 53 -85q39 0 62 42.5t23 114.5q0 157 -99.5 257t-254.5 100q-158 0 -265 -102.5t-107 -255.5q0 -152 106 -255.5t260 -103.5q115 0 204 63l45 -82q-114 -74 -252 -74zM491 105h2q50 0 81.5 39.5t31.5 101.5v20q0 62 -32 101.5t-82 39.5h-2q-51 0 -83.5 -39.5
t-32.5 -101.5v-20q0 -61 33 -101t84 -40z" />
    <glyph glyph-name="A" unicode="A" horiz-adv-x="662" 
d="M-2 0l247 700h172l246 -700h-140l-56 165h-273l-55 -165h-141zM226 273h209l-100 296h-8z" />
    <glyph glyph-name="B" unicode="B" horiz-adv-x="664" 
d="M84 0v700h267q104 0 168.5 -48.5t64.5 -126.5v-7q0 -91 -84 -145q57 -24 88 -69t31 -103v-6q0 -89 -65 -142t-174 -53h-296zM210 406h138q50 0 78.5 24.5t28.5 65.5v6q0 39 -27.5 62t-77.5 23h-140v-181zM210 113h163q53 0 84 25t31 68v5q0 44 -31.5 70t-85.5 26h-161
v-194z" />
    <glyph glyph-name="C" unicode="C" horiz-adv-x="687" 
d="M386 -11q-152 0 -248.5 101.5t-96.5 257.5v4q0 156 97 257.5t248 101.5q89 0 161 -40t118 -111l-100 -72q-61 103 -173 103h-1q-98 0 -156 -66t-58 -173v-5q0 -106 58.5 -172t154.5 -66h1q119 0 178 102l97 -71q-42 -70 -115.5 -110.5t-163.5 -40.5h-1z" />
    <glyph glyph-name="D" unicode="D" horiz-adv-x="720" 
d="M84 0v700h233q161 0 261.5 -94t100.5 -242v-19q0 -151 -100.5 -248t-261.5 -97h-233zM215 116h103q103 0 163.5 64t60.5 167v17q0 99 -60.5 159.5t-163.5 60.5h-103v-468z" />
    <glyph glyph-name="E" unicode="E" horiz-adv-x="580" 
d="M84 0v700h432v-116h-301v-175h281v-110h-281v-183h311v-116h-442z" />
    <glyph glyph-name="F" unicode="F" horiz-adv-x="546" 
d="M84 0v700h417v-116h-286v-192h266v-110h-266v-282h-131z" />
    <glyph glyph-name="G" unicode="G" horiz-adv-x="752" 
d="M370 -10q-145 0 -237 100.5t-92 256.5v5q0 155 98 257t247 102h2q187 0 288 -156l-106 -67q-59 107 -174 107h-2q-97 0 -157 -67.5t-60 -175.5v-6q0 -108 59.5 -174t157.5 -66h2q80 0 129 41t49 101v14h-156v110h278v-372h-95q-13 25 -17 77q-33 -39 -89.5 -63
t-117.5 -24h-7z" />
    <glyph glyph-name="H" unicode="H" horiz-adv-x="724" 
d="M84 0v700h131v-285h294v285h131v-700h-131v299h-294v-299h-131z" />
    <glyph glyph-name="I" unicode="I" horiz-adv-x="300" 
d="M84 0v700h131v-700h-131z" />
    <glyph glyph-name="J" unicode="J" horiz-adv-x="418" 
d="M141 -10q-59 0 -107 18v123q38 -22 79 -22q99 0 99 98v493h131v-506q0 -98 -52.5 -151t-149.5 -53z" />
    <glyph glyph-name="K" unicode="K" horiz-adv-x="661" 
d="M84 0v700h132v-298h6l260 298h152l-292 -322l316 -378h-161l-275 337h-6v-337h-132z" />
    <glyph glyph-name="L" unicode="L" horiz-adv-x="539" 
d="M84 0v700h131v-584h289v-116h-420z" />
    <glyph glyph-name="M" unicode="M" horiz-adv-x="890" 
d="M85 0v700h187l169 -435h9l169 435h187v-700h-128v540h-7l-175 -445h-101l-175 445h-7v-540h-128z" />
    <glyph glyph-name="N" unicode="N" horiz-adv-x="741" 
d="M84 0v700h147l290 -497h8v497h127v-700h-134l-302 521h-8v-521h-128z" />
    <glyph glyph-name="O" unicode="O" horiz-adv-x="779" 
d="M41 347v6q0 155 97.5 257t247.5 102h7q150 0 247.5 -101.5t97.5 -256.5v-8q0 -154 -97.5 -256t-247.5 -102h-7q-149 0 -247 102.5t-98 256.5zM177 347q0 -107 59 -174t151 -67h7q91 0 149.5 67t58.5 174v6q0 108 -58.5 175t-150.5 67h-7q-91 0 -150 -67.5t-59 -174.5v-6z
" />
    <glyph glyph-name="P" unicode="P" horiz-adv-x="627" 
d="M84 0v700h252q114 0 184.5 -63t70.5 -167v-6q0 -105 -70 -169t-184 -64h-122v-231h-131zM212 339h115q62 0 96.5 33.5t34.5 89.5v6q0 55 -33.5 86t-94.5 31h-118v-246z" />
    <glyph glyph-name="Q" unicode="Q" horiz-adv-x="779" 
d="M571 -58v-97q-49 -13 -100 -13q-150 0 -150 146v16q-125 22 -202.5 119.5t-77.5 233.5v6q0 154 97.5 256.5t247.5 102.5h7q150 0 247.5 -101.5t97.5 -256.5v-8q0 -142 -83.5 -240.5t-216.5 -114.5v-11q3 -48 55 -48q38 0 78 10zM177 347q0 -107 59 -174.5t150 -67.5h6
q92 0 151 67.5t59 174.5v6q0 108 -58.5 175t-151.5 67h-6q-91 0 -150 -67.5t-59 -174.5v-6z" />
    <glyph glyph-name="R" unicode="R" horiz-adv-x="664" 
d="M84 0v700h268q116 0 182 -57.5t66 -157.5v-10q0 -67 -33 -117t-91 -74l172 -284h-155l-144 255h-134v-255h-131zM212 358h124q65 0 99 29.5t34 82.5v10q0 52 -33.5 80t-98.5 28h-125v-230z" />
    <glyph glyph-name="S" unicode="S" horiz-adv-x="601" 
d="M308 -11q-169 0 -277 99l67 104q42 -40 100 -61.5t116 -21.5q57 0 89.5 22t32.5 60q0 18 -9 33t-20 24.5t-35.5 20t-39.5 15t-48 14.5q-42 12 -69 21.5t-62 27.5t-55.5 38.5t-35.5 53t-15 72.5q0 95 69 148t168 53q152 0 255 -87l-69 -103q-35 33 -86 51t-99 18
q-51 0 -80.5 -21t-29.5 -57q0 -17 9 -30.5t19.5 -22t35 -18.5t39 -14.5t48.5 -14.5q53 -14 89 -28.5t75 -38.5t59 -61.5t20 -86.5q0 -98 -74 -153.5t-187 -55.5z" />
    <glyph glyph-name="T" unicode="T" horiz-adv-x="555" 
d="M212 0v584h-196v116h524v-116h-197v-584h-131z" />
    <glyph glyph-name="U" unicode="U" horiz-adv-x="719" 
d="M360 -12q-133 0 -209.5 73t-76.5 203v436h132v-428q0 -77 40.5 -120t113.5 -43t113 43t40 120v428h132v-436q0 -131 -77 -203.5t-208 -72.5z" />
    <glyph glyph-name="V" unicode="V" horiz-adv-x="645" 
d="M235 0l-227 700h138l171 -563h9l171 563h138l-228 -700h-172z" />
    <glyph glyph-name="W" unicode="W" horiz-adv-x="935" 
d="M171 0l-155 700h134l109 -550h6l144 550h111l146 -550h5l114 550h134l-160 -700h-168l-122 476h-7l-123 -476h-168z" />
    <glyph glyph-name="X" unicode="X" horiz-adv-x="642" 
d="M11 0l220 360v5l-207 335h151l142 -244h8l143 244h150l-207 -334v-5l221 -361h-151l-156 273h-8l-155 -273h-151z" />
    <glyph glyph-name="Y" unicode="Y" horiz-adv-x="624" 
d="M247 0v273l-248 427h152l158 -298h6l158 298h151l-246 -427v-273h-131z" />
    <glyph glyph-name="Z" unicode="Z" horiz-adv-x="593" 
d="M36 0v100l349 479v5h-327v116h491v-100l-346 -476v-8h355v-116h-522z" />
    <glyph glyph-name="bracketleft" unicode="[" horiz-adv-x="349" 
d="M75 -156v876h242v-105h-125v-666h125v-105h-242z" />
    <glyph glyph-name="backslash" unicode="\" horiz-adv-x="319" 
d="M185 -111l-160 831h109l160 -831h-109z" />
    <glyph glyph-name="bracketright" unicode="]" horiz-adv-x="348" 
d="M32 -156v105h122v666h-122v105h241v-876h-241z" />
    <glyph glyph-name="asciicircum" unicode="^" horiz-adv-x="542" 
d="M29 341l192 360h100l192 -360h-116l-116 228h-20l-116 -228h-116z" />
    <glyph glyph-name="underscore" unicode="_" horiz-adv-x="478" 
d="M19 -139v89h440v-89h-440z" />
    <glyph glyph-name="grave" unicode="`" 
d="M-134 575l-75 155h114l56 -155h-95z" />
    <glyph glyph-name="a" unicode="a" horiz-adv-x="586" 
d="M220 -10q-81 0 -131.5 43t-50.5 112v7q0 169 314 169h42v23q0 38 -28.5 61t-79.5 23h-3q-85 0 -169 -53l-51 90q106 66 227 66h6q99 0 157 -50.5t58 -138.5v-235q0 -46 18 -107h-118q-9 24 -14 62q-72 -72 -177 -72zM245 90q90 0 149 64v87h-35q-201 0 -201 -83v-4
q0 -28 24 -46t63 -18z" />
    <glyph glyph-name="b" unicode="b" horiz-adv-x="670" 
d="M372 -9q-114 0 -184 78q-3 -35 -15 -69h-98v720h124v-259q68 68 173 68h5q108 0 178.5 -72.5t70.5 -183.5v-26q0 -111 -70.5 -183.5t-178.5 -72.5h-5zM344 90h8q64 0 104.5 44.5t40.5 114.5v22q0 70 -40.5 114.5t-104.5 44.5h-8q-64 0 -104.5 -44.5t-40.5 -114.5v-22
q0 -70 40.5 -114.5t104.5 -44.5z" />
    <glyph glyph-name="c" unicode="c" horiz-adv-x="565" 
d="M309 -8q-117 0 -191 73t-74 188v16q0 113 74.5 186t188.5 73h6q149 0 224 -119l-92 -61q-43 81 -130 81h-3q-65 0 -102 -43.5t-37 -120.5v-10q0 -74 40 -118t104 -44h5q84 0 129 81l90 -67q-78 -115 -225 -115h-7z" />
    <glyph glyph-name="d" unicode="d" horiz-adv-x="671" 
d="M294 -9q-109 0 -179 73.5t-70 188.5v14q0 115 70 188.5t179 73.5h5q106 0 173 -69v260h124v-720h-98q-12 33 -15 70q-71 -79 -184 -79h-5zM319 90h8q65 0 105 45.5t40 119.5v10q0 74 -40 119.5t-105 45.5h-8q-65 0 -105 -45.5t-40 -119.5v-10q0 -74 40 -119.5t105 -45.5z
" />
    <glyph glyph-name="e" unicode="e" horiz-adv-x="610" 
d="M312 -9q-119 0 -193.5 72t-74.5 187v14q0 115 75.5 190t190.5 75h6q108 0 178 -67.5t70 -172.5v-67h-397v-1q7 -57 48.5 -91.5t104.5 -34.5h5q47 0 88 19t64 48l69 -75q-36 -44 -98 -70t-127 -26h-9zM170 305h276q-5 56 -42 91.5t-93 35.5h-1q-54 0 -91.5 -34.5
t-48.5 -92.5z" />
    <glyph glyph-name="f" unicode="f" horiz-adv-x="380" 
d="M87 0v418h-63v80q22 9 63 15v34q0 80 42 125.5t117 45.5q65 0 113 -19v-99q-40 17 -80 17q-38 0 -56 -18t-18 -61v-23h152v-97h-146v-418h-124z" />
    <glyph glyph-name="g" unicode="g" horiz-adv-x="572" 
d="M41 335v8q0 83 65.5 134.5t167.5 51.5h15q59 0 106 -18q17 50 36 74h113l-65 -129q42 -47 42 -113v-8q0 -80 -66 -132.5t-166 -52.5h-5q-17 0 -35 3v-56q17 1 49 1h9q104 0 171.5 -40.5t67.5 -107.5v-10q0 -67 -68 -108t-174 -41h-25q-106 0 -174.5 40.5t-68.5 107.5v12
q0 43 30 78t81 54v95q-49 23 -77.5 64.5t-28.5 92.5zM164 342v-11q0 -40 33 -66t81 -26h11q47 0 80 26.5t33 65.5v11q0 40 -33 66t-81 26h-9q-48 0 -81.5 -26t-33.5 -66zM160 -47v-7q0 -28 33.5 -45.5t86.5 -17.5h23q53 0 87 18t34 45v7q0 27 -34 44.5t-87 17.5h-23
q-53 0 -86.5 -17t-33.5 -45z" />
    <glyph glyph-name="h" unicode="h" horiz-adv-x="636" 
d="M75 0v720h124v-267q74 77 187 77q88 0 136 -52t48 -146v-332h-124v306q0 116 -107 116q-64 0 -102 -36t-38 -98v-288h-124z" />
    <glyph glyph-name="i" unicode="i" horiz-adv-x="274" 
d="M137 590q-32 0 -52.5 19t-20.5 48q0 30 20.5 49t52.5 19q33 0 54.5 -19t21.5 -49q0 -29 -21.5 -48t-54.5 -19zM75 0v520h124v-520h-124z" />
    <glyph glyph-name="j" unicode="j" horiz-adv-x="271" 
d="M148 590q-32 0 -52.5 19t-20.5 48q0 30 20.5 49t52.5 19q33 0 54.5 -19t21.5 -49q0 -29 -21.5 -48t-54.5 -19zM62 -197q-56 0 -99 18v104q26 -12 55 -12q35 0 51 17.5t16 61.5v528h124v-548q0 -81 -38.5 -125t-108.5 -44z" />
    <glyph glyph-name="k" unicode="k" horiz-adv-x="569" 
d="M75 0v720h124v-419h8l210 219h140l-240 -241l246 -279h-149l-207 246h-8v-246h-124z" />
    <glyph glyph-name="l" unicode="l" horiz-adv-x="274" 
d="M74 0v720h124v-720h-124z" />
    <glyph glyph-name="m" unicode="m" horiz-adv-x="919" 
d="M75 0v520h98q8 -20 15 -70q67 80 164 80h2q113 0 153 -91q67 91 174 91h2q83 0 126.5 -50t43.5 -143v-337h-124v316q0 56 -21.5 81t-67.5 25h-2q-51 0 -81.5 -33t-30.5 -96v-293h-124v315q0 57 -21.5 82t-68.5 25h-2q-51 -1 -81 -34t-30 -96v-292h-124z" />
    <glyph glyph-name="n" unicode="n" horiz-adv-x="636" 
d="M75 0v520h98q12 -37 16 -79q74 89 190 89h3q91 0 139.5 -51.5t48.5 -146.5v-332h-124v306q0 116 -105 116h-4q-62 0 -100 -39t-38 -102v-281h-124z" />
    <glyph glyph-name="o" unicode="o" horiz-adv-x="646" 
d="M319 -9q-120 0 -197.5 73.5t-77.5 188.5v14q0 115 77.5 188.5t197.5 73.5h8q120 0 197.5 -73.5t77.5 -188.5v-14q0 -115 -77.5 -188.5t-197.5 -73.5h-8zM320 89h6q64 0 105.5 46.5t41.5 119.5v10q0 73 -41.5 119.5t-105.5 46.5h-6q-64 0 -105 -46.5t-41 -119.5v-10
q0 -73 41 -119.5t105 -46.5z" />
    <glyph glyph-name="p" unicode="p" horiz-adv-x="671" 
d="M74 -200v720h98q10 -24 16 -70q70 79 183 79h5q109 0 179.5 -73.5t70.5 -188.5v-14q0 -115 -70.5 -188.5t-179.5 -73.5h-5q-106 0 -173 69v-260h-124zM344 90h7q65 0 105.5 45.5t40.5 119.5v10q0 74 -40.5 119.5t-105.5 45.5h-7q-65 0 -105.5 -45.5t-40.5 -119.5v-10
q0 -74 40.5 -119.5t105.5 -45.5z" />
    <glyph glyph-name="q" unicode="q" horiz-adv-x="671" 
d="M472 -200v260q-67 -69 -173 -69h-5q-109 0 -179.5 73.5t-70.5 188.5v14q0 115 70.5 188.5t179.5 73.5h5q113 0 184 -79q4 43 15 70h98v-720h-124zM319 90h7q65 0 105.5 45.5t40.5 119.5v10q0 74 -40.5 119.5t-105.5 45.5h-7q-65 0 -105 -45.5t-40 -119.5v-10
q0 -74 40 -119.5t105 -45.5z" />
    <glyph glyph-name="r" unicode="r" horiz-adv-x="392" 
d="M75 0v520h98q13 -38 15 -74q64 74 171 74h12v-120q-15 6 -33 6q-67 0 -103 -34.5t-36 -95.5v-276h-124z" />
    <glyph glyph-name="s" unicode="s" horiz-adv-x="509" 
d="M269 -10q-145 0 -244 75l62 89q78 -63 182 -63q90 0 90 57q0 14 -6 24t-23 18t-31 12.5t-47 14t-54 15.5q-70 19 -110.5 49.5t-40.5 91.5q0 72 54 114.5t145 42.5q122 0 210 -66l-59 -87q-69 52 -158 52q-78 0 -78 -50q0 -25 28 -39t99 -31q33 -8 54 -14t50 -19
t45.5 -28.5t28.5 -40.5t12 -56q0 -74 -57.5 -117.5t-151.5 -43.5z" />
    <glyph glyph-name="t" unicode="t" horiz-adv-x="405" 
d="M252 -5q-77 0 -120 40t-43 120v265h-69v84q33 11 69 15v121l123 15v-135h163v-100h-164v-242q0 -41 18.5 -58.5t56.5 -17.5q56 0 94 11v-98q-46 -20 -128 -20z" />
    <glyph glyph-name="u" unicode="u" horiz-adv-x="628" 
d="M250 -10q-89 0 -136.5 51t-47.5 146v333h124v-307q0 -115 101 -115h2q62 0 99 38.5t37 104.5v279h124v-520h-98q-13 38 -15 78q-73 -88 -188 -88h-2z" />
    <glyph glyph-name="v" unicode="v" horiz-adv-x="562" 
d="M204 0l-190 520h131l132 -406h10l131 406h131l-191 -520h-154z" />
    <glyph glyph-name="w" unicode="w" horiz-adv-x="825" 
d="M152 0l-124 520h125l80 -386h10l110 386h119l110 -387h10l81 387h124l-124 -520h-148l-110 362h-4l-111 -362h-148z" />
    <glyph glyph-name="x" unicode="x" horiz-adv-x="550" 
d="M12 0l185 266v4l-178 250h142l113 -177h5l113 177h138l-176 -250v-4l183 -266h-141l-122 191h-4l-119 -191h-139z" />
    <glyph glyph-name="y" unicode="y" horiz-adv-x="558" 
d="M156 -201q-59 0 -96 19v106q40 -20 72 -20q61 0 102 73l-225 543h132l153 -399h7l127 399h126l-191 -549q-59 -172 -207 -172z" />
    <glyph glyph-name="z" unicode="z" horiz-adv-x="506" 
d="M28 0v100l287 314v6h-269v100h420v-98l-286 -317v-5h298v-100h-450z" />
    <glyph glyph-name="braceleft" unicode="{" horiz-adv-x="378" 
d="M231 -150q-53 0 -86 31.5t-33 84.5v200q0 69 -80 69v100q80 0 80 69v200q0 53 33 84.5t86 31.5h115v-105h-55q-62 0 -62 -63v-174q0 -42 -21.5 -64.5t-61.5 -22.5v-12q40 0 61.5 -23t21.5 -64v-175q0 -62 62 -62h55v-105h-115z" />
    <glyph glyph-name="bar" unicode="|" horiz-adv-x="265" 
d="M74 -190v910h117v-910h-117z" />
    <glyph glyph-name="braceright" unicode="}" horiz-adv-x="378" 
d="M32 -150v105h56q62 0 62 62v175q0 42 21.5 64.5t61.5 22.5v12q-40 0 -61.5 22.5t-21.5 64.5v174q0 63 -62 63h-56v105h116q53 0 85.5 -31.5t32.5 -84.5v-200q0 -69 80 -69v-100q-80 0 -80 -69v-200q0 -53 -32.5 -84.5t-85.5 -31.5h-116z" />
    <glyph glyph-name="asciitilde" unicode="~" horiz-adv-x="563" 
d="M287 373q54 -20 85 -20q44 0 48 47h104q-5 -61 -40 -100t-94 -39q-43 0 -111 28q-52 20 -85 20q-43 0 -49 -47h-104q7 60 42.5 99.5t93.5 39.5q44 0 110 -28z" />
    <glyph glyph-name="exclamdown" unicode="&#xa1;" horiz-adv-x="278" 
d="M139 378q-32 0 -55.5 21.5t-23.5 50.5v5q0 31 23.5 52.5t55.5 21.5q33 0 56.5 -21.5t23.5 -52.5v-5q0 -29 -23.5 -50.5t-56.5 -21.5zM71 -190v246l15 242h105l16 -242v-246h-136z" />
    <glyph glyph-name="cent" unicode="&#xa2;" horiz-adv-x="533" 
d="M247 -122l-105 27l30 117q-60 30 -94 92t-34 145v4q0 113 60.5 184.5t160.5 78.5q6 2 12 2h9l32 120l105 -26l-31 -115q66 -27 109 -96l-85 -63q-34 72 -114 72h-3q-59 0 -94 -43t-35 -114v-4q0 -72 36.5 -115.5t96.5 -43.5h3q77 0 118 75l85 -67q-76 -116 -214 -116h-7
h-3h-8z" />
    <glyph glyph-name="sterling" unicode="&#xa3;" horiz-adv-x="511" 
d="M33 0v98q18 7 45 12v193h-41v93h41v102q0 95 57 154t151 59q133 0 196 -122l-99 -60q-23 67 -89 67q-40 0 -64.5 -26t-24.5 -71v-103h177v-93h-177v-188h290v-115h-462z" />
    <glyph glyph-name="currency" unicode="&#xa4;" horiz-adv-x="563" 
d="M427 105l-73 73q-30 -15 -71 -15q-43 0 -75 16l-67 -67l-72 72l67 68q-16 34 -16 74q0 36 15 71l-73 73l74 75l73 -73q35 15 74 15q43 0 73 -15l66 66l73 -72l-66 -66q16 -31 16 -74t-16 -74l73 -72zM283 250q33 0 52.5 20.5t19.5 55.5q0 34 -19.5 54t-52.5 20t-53 -20
t-20 -54t20 -55t53 -21z" />
    <glyph glyph-name="yen" unicode="&#xa5;" horiz-adv-x="624" 
d="M60 146v93h187v34l-22 38h-165v94h110l-171 295h152l158 -298h6l158 298h151l-170 -295h111v-94h-165l-22 -38v-34h187v-93h-187v-146h-131v146h-187z" />
    <glyph glyph-name="brokenbar" unicode="&#xa6;" horiz-adv-x="257" 
d="M74 340v380h109v-380h-109zM74 -190v390h109v-390h-109z" />
    <glyph glyph-name="section" unicode="&#xa7;" horiz-adv-x="546" 
d="M257 711q118 0 200 -66l-59 -88q-55 53 -136 53q-38 0 -64.5 -20.5t-26.5 -52.5q0 -35 30.5 -55t100.5 -38q41 -10 71.5 -22t61.5 -32t47.5 -52t16.5 -73q0 -101 -101 -154q72 -49 72 -131t-58.5 -130t-142.5 -48q-120 0 -202 66l59 88q54 -52 138 -52q40 0 67 20t27 52
q0 35 -30 55.5t-100 37.5q-41 11 -71.5 23t-61.5 32t-47.5 51.5t-16.5 72.5q0 50 27 90t74 64q-73 48 -73 132q0 82 57.5 129.5t140.5 47.5zM300 151q40 11 63.5 34.5t23.5 57.5q0 46 -31 69t-96 41q-5 1 -15.5 4t-15.5 5q-86 -24 -86 -92q0 -45 30 -68t91 -40q6 -2 18 -5.5
t18 -5.5z" />
    <glyph glyph-name="dieresis" unicode="&#xa8;" 
d="M-103 595q-28 0 -46 17.5t-18 44.5t18 44.5t46 17.5q29 0 48 -17.5t19 -44.5t-19 -44.5t-48 -17.5zM-316 595q-28 0 -46.5 17.5t-18.5 44.5t18.5 44.5t46.5 17.5t47 -17.5t19 -44.5t-19 -44.5t-47 -17.5z" />
    <glyph glyph-name="copyright" unicode="&#xa9;" horiz-adv-x="802" 
d="M401 -10q-156 0 -258 102t-102 258q0 153 103.5 256.5t256.5 103.5q156 0 258 -102t102 -258t-102 -258t-258 -102zM401 85q115 0 190 75t75 190t-75 190t-190 75t-190 -75t-75 -190t75 -190t190 -75zM402 168q-81 0 -132 52t-51 135q0 82 50.5 134t130.5 52q49 0 90 -21
t64 -58l-75 -50q-20 43 -71 43q-40 0 -64 -27.5t-24 -73.5t23.5 -73t63.5 -27q56 0 80 47l74 -53q-25 -38 -67 -59t-92 -21z" />
    <glyph glyph-name="ordfeminine" unicode="&#xaa;" horiz-adv-x="281" 
d="M106 449q-37 0 -60.5 20.5t-23.5 53.5v3q0 82 146 82h11q-1 32 -42 32h-1q-41 0 -75 -25l-28 58q53 32 111 32h3q48 0 77 -25t29 -67v-103q0 -31 9 -57h-75q-5 16 -6 23q-33 -27 -75 -27zM132 510q26 0 47 19v27h-4q-75 0 -75 -25v-2q0 -19 32 -19zM38 320v78h215v-78
h-215z" />
    <glyph glyph-name="guillemotleft" unicode="&#xab;" horiz-adv-x="599" 
d="M423 70l-155 200v8l155 200h130l-154 -199v-10l154 -199h-130zM192 70l-156 200v8l156 200h130l-154 -199v-10l154 -199h-130z" />
    <glyph glyph-name="registered" unicode="&#xae;" horiz-adv-x="802" 
d="M401 -10q-156 0 -258 102t-102 258q0 153 103.5 256.5t256.5 103.5q156 0 258 -102t102 -258t-102 -258t-258 -102zM401 85q115 0 190 75t75 190t-75 190t-190 75t-190 -75t-75 -190t75 -190t190 -75zM266 181v349h147q57 0 90 -31.5t33 -86.5q0 -66 -46 -97l73 -134h-95
l-58 113h-58v-113h-86zM352 371h52q44 0 44 40q0 39 -44 39h-52v-79z" />
    <glyph glyph-name="macron" unicode="&#xaf;" 
d="M-326 607v92h293v-92h-293z" />
    <glyph glyph-name="degree" unicode="&#xb0;" horiz-adv-x="408" 
d="M205 399q-71 0 -114.5 42.5t-43.5 111.5q0 70 43.5 112.5t114.5 42.5q70 0 113 -42.5t43 -112.5q0 -69 -43 -111.5t-113 -42.5zM205 486q30 0 48 18.5t18 48.5q0 31 -18 49t-48 18q-31 0 -49.5 -18t-18.5 -49q0 -30 18.5 -48.5t49.5 -18.5z" />
    <glyph glyph-name="plusminus" unicode="&#xb1;" horiz-adv-x="606" 
d="M250 141v174h-197v104h197v184h105v-184h198v-104h-198v-174h-105zM53 103h500v-103h-500v103z" />
    <glyph glyph-name="twosuperior" unicode="&#xb2;" horiz-adv-x="366" 
d="M29 306v68q89 47 144.5 101.5t55.5 97.5q0 22 -14.5 36t-37.5 14q-25 0 -42.5 -17t-20.5 -44l-90 19q8 58 50.5 92.5t105.5 34.5q64 0 103 -33.5t39 -88.5q0 -50 -34 -101.5t-93 -94.5h145v-84h-311z" />
    <glyph glyph-name="threesuperior" unicode="&#xb3;" horiz-adv-x="371" 
d="M188 298q-58 0 -102.5 25t-66.5 69l77 45q10 -25 33.5 -39t53.5 -14q32 0 51.5 15.5t19.5 40.5q0 24 -19 39t-50 15q-32 0 -56 -13l-36 47l104 88h-152v84h275v-68l-86 -77q51 -5 82 -38.5t31 -84.5q0 -60 -43.5 -97t-115.5 -37z" />
    <glyph glyph-name="acute" unicode="&#xb4;" 
d="M-100 575h-95l57 155h113z" />
    <glyph glyph-name="paragraph" unicode="&#xb6;" horiz-adv-x="577" 
d="M268 -140v393q-104 0 -168 62t-64 163q0 100 68.5 161t180.5 61h207v-109h-105v-731h-119z" />
    <glyph glyph-name="periodcentered" unicode="&#xb7;" horiz-adv-x="211" 
d="M104 228q-32 0 -52.5 18.5t-20.5 48.5t20.5 49t52.5 19q33 0 54.5 -19t21.5 -49t-21.5 -48.5t-54.5 -18.5z" />
    <glyph glyph-name="cedilla" unicode="&#xb8;" 
d="M-104 -204q-50 0 -90 24l22 66q19 -19 51 -19q19 0 30 9t11 24q0 39 -67 39l24 61l40 10l32 -10l-15 -29q73 -15 73 -77q0 -45 -33.5 -71.5t-77.5 -26.5z" />
    <glyph glyph-name="onesuperior" unicode="&#xb9;" horiz-adv-x="283" 
d="M26 595q54 0 87.5 29t33.5 76h90v-394h-95v234q-50 -34 -116 -32v87z" />
    <glyph glyph-name="ordmasculine" unicode="&#xba;" horiz-adv-x="322" 
d="M156 438q-58 0 -94 36t-36 95v6q0 58 36 94t94 36h12q57 0 92.5 -36t35.5 -94v-6q0 -59 -35.5 -95t-92.5 -36h-12zM160 511h6q23 0 37 15.5t14 42.5v6q0 27 -14 42t-37 15h-6q-24 0 -39.5 -15t-15.5 -42v-6q0 -27 15.5 -42.5t39.5 -15.5zM43 312v78h237v-78h-237z" />
    <glyph glyph-name="guillemotright" unicode="&#xbb;" horiz-adv-x="599" 
d="M278 70l154 199v10l-154 199h130l155 -200v-8l-155 -200h-130zM47 70l154 199v10l-154 199h130l155 -200v-8l-155 -200h-130z" />
    <glyph glyph-name="onequarter" unicode="&#xbc;" horiz-adv-x="750" 
d="M110 334v227q-30 -15 -65 -15h-15v75l14 1q31 2 50 20t19 45v13h88v-366h-91zM20 0l528 700h129l-528 -700h-129zM367 57v62l150 241h110v-225h43v-78h-43v-62h-89v62h-171zM472 135h66v110z" />
    <glyph glyph-name="onehalf" unicode="&#xbd;" horiz-adv-x="773" 
d="M110 334v227q-30 -15 -65 -15h-15v75l14 1q31 2 50 20t19 45v13h88v-366h-91zM20 0l528 700h129l-528 -700h-129zM430 -1v67l6 4q62 38 112.5 88t50.5 94q0 17 -9.5 27t-26.5 10q-36 0 -46 -53l-2 -15l-90 20l2 11q8 49 43 84t94 35q58 0 93 -33.5t35 -82.5
q0 -88 -113 -175h122v-81h-271z" />
    <glyph glyph-name="threequarters" unicode="&#xbe;" horiz-adv-x="809" 
d="M177 329q-54 0 -93.5 26t-49.5 72l-1 8l84 20l3 -7q19 -38 53 -38q26 0 40.5 14t14.5 38q0 46 -49 46q-25 0 -50 -15l-33 53l79 73h-123v81h249v-66l-69 -61q44 -11 66 -41.5t22 -71.5q0 -56 -38.5 -93.5t-104.5 -37.5zM79 0l528 700h129l-528 -700h-129zM426 57v62
l150 241h110v-225h43v-78h-43v-62h-89v62h-171zM531 135h66v110z" />
    <glyph glyph-name="questiondown" unicode="&#xbf;" horiz-adv-x="519" 
d="M262 378q-33 0 -57 21.5t-24 50.5v5q0 31 24 52.5t57 21.5t55.5 -21.5t22.5 -52.5v-5q0 -30 -22.5 -51t-55.5 -21zM242 -202q-96 0 -157.5 50t-61.5 130q0 51 22.5 86t74.5 77q49 41 69.5 70t20.5 70v17h111q0 -74 -17.5 -112.5t-73.5 -85.5q-28 -23 -39 -33t-24 -31.5
t-13 -43.5q0 -38 27 -57.5t71 -19.5q54 0 88.5 30t39.5 77l113 -18q-8 -89 -77.5 -147.5t-173.5 -58.5z" />
    <glyph glyph-name="Agrave" unicode="&#xc0;" horiz-adv-x="662" 
d="M276 742l-73 147h121l56 -147h-104zM-2 0l247 700h172l246 -700h-140l-56 165h-273l-55 -165h-141zM226 273h209l-100 296h-8z" />
    <glyph glyph-name="Aacute" unicode="&#xc1;" horiz-adv-x="662" 
d="M445 889l-71 -147h-100l52 147h119zM-2 0l247 700h172l246 -700h-140l-56 165h-273l-55 -165h-141zM226 273h209l-100 296h-8z" />
    <glyph glyph-name="Acircumflex" unicode="&#xc2;" horiz-adv-x="662" 
d="M134 752l127 126h140l127 -126h-119l-69 57h-18l-69 -57h-119zM-2 0l247 700h172l246 -700h-140l-56 165h-273l-55 -165h-141zM226 273h209l-100 296h-8z" />
    <glyph glyph-name="Atilde" unicode="&#xc3;" horiz-adv-x="662" 
d="M333 866q40 -17 64 -17q29 0 31 35h104q-5 -60 -32.5 -95t-73.5 -35q-36 0 -83 19q-40 17 -64 17q-29 0 -31 -35h-104q5 60 32.5 95t73.5 35q36 0 83 -19zM-2 0l247 700h172l246 -700h-140l-56 165h-273l-55 -165h-141zM226 273h209l-100 296h-8z" />
    <glyph glyph-name="Adieresis" unicode="&#xc4;" horiz-adv-x="662" 
d="M215 755q-28 0 -46 16.5t-18 43.5t18 45t46 18q29 0 48 -18t19 -45t-19 -43.5t-48 -16.5zM444 755q-29 0 -46.5 16.5t-17.5 43.5t18 45t46 18q29 0 48 -18t19 -45t-19 -43.5t-48 -16.5zM-2 0l247 700h172l246 -700h-140l-56 165h-273l-55 -165h-141zM226 273h209
l-100 296h-8z" />
    <glyph glyph-name="Aring" unicode="&#xc5;" horiz-adv-x="662" 
d="M330 721q-46 0 -76.5 26.5t-30.5 67.5q0 44 30 71t77 27t77.5 -27.5t30.5 -70.5q0 -41 -30.5 -67.5t-77.5 -26.5zM330 778q19 0 31 10.5t12 27.5q0 18 -12 29.5t-31 11.5t-30.5 -11.5t-11.5 -29.5q0 -17 11.5 -27.5t30.5 -10.5zM-2 0l247 700h172l246 -700h-140l-56 165
h-273l-55 -165h-141zM226 273h209l-100 296h-8z" />
    <glyph glyph-name="AE" unicode="&#xc6;" horiz-adv-x="853" 
d="M-2 0l247 700h545v-116h-279v-175h259v-110h-259v-183h289v-116h-415v165h-190l-56 -165h-141zM228 273h157v311h-53z" />
    <glyph glyph-name="Ccedilla" unicode="&#xc7;" horiz-adv-x="687" 
d="M359 -204q-50 0 -90 24l22 66q19 -19 51 -19q19 0 30 9t11 24q0 39 -67 39l21 53q-133 16 -214.5 114.5t-81.5 241.5v4q0 156 97 257.5t248 101.5q89 0 161 -40t118 -111l-100 -72q-61 103 -173 103h-1q-98 0 -156 -66t-58 -173v-5q0 -106 58.5 -172t154.5 -66h1
q119 0 178 102l97 -71q-40 -66 -108 -106.5t-152 -44.5l-9 -18q73 -15 73 -77q0 -45 -33.5 -71.5t-77.5 -26.5z" />
    <glyph glyph-name="Egrave" unicode="&#xc8;" horiz-adv-x="580" 
d="M250 742l-73 147h121l56 -147h-104zM84 0v700h432v-116h-301v-175h281v-110h-281v-183h311v-116h-442z" />
    <glyph glyph-name="Eacute" unicode="&#xc9;" horiz-adv-x="580" 
d="M419 889l-71 -147h-100l52 147h119zM84 0v700h432v-116h-301v-175h281v-110h-281v-183h311v-116h-442z" />
    <glyph glyph-name="Ecircumflex" unicode="&#xca;" horiz-adv-x="580" 
d="M108 752l127 126h140l127 -126h-119l-69 57h-18l-69 -57h-119zM84 0v700h432v-116h-301v-175h281v-110h-281v-183h311v-116h-442z" />
    <glyph glyph-name="Edieresis" unicode="&#xcb;" horiz-adv-x="580" 
d="M189 755q-28 0 -46 16.5t-18 43.5t18 45t46 18q29 0 48 -18t19 -45t-19 -43.5t-48 -16.5zM418 755q-29 0 -46.5 16.5t-17.5 43.5t18 45t46 18q29 0 48 -18t19 -45t-19 -43.5t-48 -16.5zM84 0v700h432v-116h-301v-175h281v-110h-281v-183h311v-116h-442z" />
    <glyph glyph-name="Igrave" unicode="&#xcc;" horiz-adv-x="300" 
d="M95 742l-73 147h121l56 -147h-104zM84 0v700h131v-700h-131z" />
    <glyph glyph-name="Iacute" unicode="&#xcd;" horiz-adv-x="300" 
d="M264 889l-71 -147h-100l52 147h119zM84 0v700h131v-700h-131z" />
    <glyph glyph-name="Icircumflex" unicode="&#xce;" horiz-adv-x="300" 
d="M-47 752l127 126h140l127 -126h-119l-69 57h-18l-69 -57h-119zM84 0v700h131v-700h-131z" />
    <glyph glyph-name="Idieresis" unicode="&#xcf;" horiz-adv-x="300" 
d="M58 754q-26 0 -43 17t-17 44q0 28 17 46t43 18t44.5 -18.5t18.5 -45.5t-18 -44t-45 -17zM240 754q-27 0 -44 17t-17 44q0 28 17 46t44 18q26 0 44 -18t18 -46q0 -27 -17.5 -44t-44.5 -17zM84 0v700h131v-700h-131z" />
    <glyph glyph-name="Eth" unicode="&#xd0;" horiz-adv-x="732" 
d="M97 0v299h-65v116h65v285h232q161 0 261.5 -94t100.5 -242v-19q0 -152 -100.5 -248.5t-261.5 -96.5h-232zM228 116h103q103 0 163 64t60 167v17q0 99 -60 159.5t-163 60.5h-103v-169h154v-116h-154v-183z" />
    <glyph glyph-name="Ntilde" unicode="&#xd1;" horiz-adv-x="741" 
d="M373 866q40 -17 64 -17q29 0 31 35h104q-5 -60 -32.5 -95t-73.5 -35q-36 0 -83 19q-40 17 -64 17q-29 0 -31 -35h-104q5 60 32.5 95t73.5 35q36 0 83 -19zM84 0v700h147l290 -497h8v497h127v-700h-134l-302 521h-8v-521h-128z" />
    <glyph glyph-name="Ograve" unicode="&#xd2;" horiz-adv-x="779" 
d="M335 742l-73 147h121l56 -147h-104zM41 347v6q0 155 97.5 257t247.5 102h7q150 0 247.5 -101.5t97.5 -256.5v-8q0 -154 -97.5 -256t-247.5 -102h-7q-149 0 -247 102.5t-98 256.5zM177 347q0 -107 59 -174t151 -67h7q91 0 149.5 67t58.5 174v6q0 108 -58.5 175t-150.5 67
h-7q-91 0 -150 -67.5t-59 -174.5v-6z" />
    <glyph glyph-name="Oacute" unicode="&#xd3;" horiz-adv-x="779" 
d="M504 889l-71 -147h-100l52 147h119zM41 347v6q0 155 97.5 257t247.5 102h7q150 0 247.5 -101.5t97.5 -256.5v-8q0 -154 -97.5 -256t-247.5 -102h-7q-149 0 -247 102.5t-98 256.5zM177 347q0 -107 59 -174t151 -67h7q91 0 149.5 67t58.5 174v6q0 108 -58.5 175t-150.5 67
h-7q-91 0 -150 -67.5t-59 -174.5v-6z" />
    <glyph glyph-name="Ocircumflex" unicode="&#xd4;" horiz-adv-x="779" 
d="M193 752l127 126h140l127 -126h-119l-69 57h-18l-69 -57h-119zM41 347v6q0 155 97.5 257t247.5 102h7q150 0 247.5 -101.5t97.5 -256.5v-8q0 -154 -97.5 -256t-247.5 -102h-7q-149 0 -247 102.5t-98 256.5zM177 347q0 -107 59 -174t151 -67h7q91 0 149.5 67t58.5 174v6
q0 108 -58.5 175t-150.5 67h-7q-91 0 -150 -67.5t-59 -174.5v-6z" />
    <glyph glyph-name="Otilde" unicode="&#xd5;" horiz-adv-x="779" 
d="M392 866q40 -17 64 -17q29 0 31 35h104q-5 -60 -32.5 -95t-73.5 -35q-35 0 -83 19q-40 17 -64 17q-29 0 -31 -35h-104q5 60 32.5 95t73.5 35q35 0 83 -19zM41 347v6q0 155 97.5 257t247.5 102h7q150 0 247.5 -101.5t97.5 -256.5v-8q0 -154 -97.5 -256t-247.5 -102h-7
q-149 0 -247 102.5t-98 256.5zM177 347q0 -107 59 -174t151 -67h7q91 0 149.5 67t58.5 174v6q0 108 -58.5 175t-150.5 67h-7q-91 0 -150 -67.5t-59 -174.5v-6z" />
    <glyph glyph-name="Odieresis" unicode="&#xd6;" horiz-adv-x="779" 
d="M274 755q-28 0 -46 16.5t-18 43.5t18 45t46 18q29 0 48 -18t19 -45t-19 -43.5t-48 -16.5zM503 755q-29 0 -46.5 16.5t-17.5 43.5t18 45t46 18q29 0 48 -18t19 -45t-19 -43.5t-48 -16.5zM41 347v6q0 155 97.5 257t247.5 102h7q150 0 247.5 -101.5t97.5 -256.5v-8
q0 -154 -97.5 -256t-247.5 -102h-7q-149 0 -247 102.5t-98 256.5zM177 347q0 -107 59 -174t151 -67h7q91 0 149.5 67t58.5 174v6q0 108 -58.5 175t-150.5 67h-7q-91 0 -150 -67.5t-59 -174.5v-6z" />
    <glyph glyph-name="multiply" unicode="&#xd7;" horiz-adv-x="518" 
d="M119 112l-73 72l141 141l-141 141l73 72l140 -141l141 141l72 -72l-141 -141l141 -141l-72 -72l-141 141z" />
    <glyph glyph-name="Oslash" unicode="&#xd8;" horiz-adv-x="779" 
d="M116 -36l56 97q-62 49 -96.5 123t-34.5 163v6q0 155 97 257t247 102h8q76 0 139 -27l29 50h103l-56 -95q62 -49 96 -123t34 -163v-8q0 -154 -97.5 -256t-247.5 -102h-8q-73 0 -138 28l-29 -52h-102zM173 346q0 -113 63 -182l244 419q-39 18 -88 18h-6q-95 0 -154 -68.5
t-59 -178.5v-8zM544 535l-244 -418q39 -18 87 -18h6q95 0 153.5 68.5t58.5 178.5v8q0 112 -61 181z" />
    <glyph glyph-name="Ugrave" unicode="&#xd9;" horiz-adv-x="719" 
d="M306 742l-73 147h121l56 -147h-104zM360 -12q-133 0 -209.5 73t-76.5 203v436h132v-428q0 -77 40.5 -120t113.5 -43t113 43t40 120v428h132v-436q0 -131 -77 -203.5t-208 -72.5z" />
    <glyph glyph-name="Uacute" unicode="&#xda;" horiz-adv-x="719" 
d="M475 889l-71 -147h-100l52 147h119zM360 -12q-133 0 -209.5 73t-76.5 203v436h132v-428q0 -77 40.5 -120t113.5 -43t113 43t40 120v428h132v-436q0 -131 -77 -203.5t-208 -72.5z" />
    <glyph glyph-name="Ucircumflex" unicode="&#xdb;" horiz-adv-x="719" 
d="M163 752l127 126h140l127 -126h-119l-69 57h-18l-69 -57h-119zM360 -12q-133 0 -209.5 73t-76.5 203v436h132v-428q0 -77 40.5 -120t113.5 -43t113 43t40 120v428h132v-436q0 -131 -77 -203.5t-208 -72.5z" />
    <glyph glyph-name="Udieresis" unicode="&#xdc;" horiz-adv-x="719" 
d="M244 755q-28 0 -46 16.5t-18 43.5t18 45t46 18q29 0 48 -18t19 -45t-19 -43.5t-48 -16.5zM473 755q-29 0 -46.5 16.5t-17.5 43.5t18 45t46 18q29 0 48 -18t19 -45t-19 -43.5t-48 -16.5zM360 -12q-133 0 -209.5 73t-76.5 203v436h132v-428q0 -77 40.5 -120t113.5 -43
t113 43t40 120v428h132v-436q0 -131 -77 -203.5t-208 -72.5z" />
    <glyph glyph-name="Yacute" unicode="&#xdd;" horiz-adv-x="624" 
d="M426 889l-71 -147h-100l52 147h119zM247 0v273l-248 427h152l158 -298h6l158 298h151l-246 -427v-273h-131z" />
    <glyph glyph-name="Thorn" unicode="&#xde;" horiz-adv-x="627" 
d="M84 0v700h131v-96h125q114 0 182.5 -62.5t68.5 -166.5v-6q0 -104 -68.5 -167.5t-181.5 -63.5h-126v-138h-131zM212 249h116q61 0 95.5 32.5t34.5 88.5v6q0 54 -34.5 85t-93.5 31h-118v-243z" />
    <glyph glyph-name="germandbls" unicode="&#xdf;" horiz-adv-x="604" 
d="M365 -10q-67 0 -111 21v97q28 -11 72 -11q55 0 88 33t33 86q0 52 -32 84t-85 32h-59v86h49q40 0 66 28.5t26 70.5q0 45 -29 72.5t-76 27.5q-51 0 -82 -31t-31 -83v-503h-124v508q0 95 65 152.5t173 57.5q102 0 164.5 -52t62.5 -135q0 -92 -71 -145q51 -26 79.5 -75
t28.5 -113q0 -93 -57 -150.5t-150 -57.5z" />
    <glyph glyph-name="agrave" unicode="&#xe0;" horiz-adv-x="586" 
d="M243 575l-75 155h114l56 -155h-95zM220 -10q-81 0 -131.5 43t-50.5 112v7q0 169 314 169h42v23q0 38 -28.5 61t-79.5 23h-3q-85 0 -169 -53l-51 90q106 66 227 66h6q99 0 157 -50.5t58 -138.5v-235q0 -46 18 -107h-118q-9 24 -14 62q-72 -72 -177 -72zM245 90
q90 0 149 64v87h-35q-201 0 -201 -83v-4q0 -28 24 -46t63 -18z" />
    <glyph glyph-name="aacute" unicode="&#xe1;" horiz-adv-x="586" 
d="M332 575h-95l57 155h113zM220 -10q-81 0 -131.5 43t-50.5 112v7q0 169 314 169h42v23q0 38 -28.5 61t-79.5 23h-3q-85 0 -169 -53l-51 90q106 66 227 66h6q99 0 157 -50.5t58 -138.5v-235q0 -46 18 -107h-118q-9 24 -14 62q-72 -72 -177 -72zM245 90q90 0 149 64v87h-35
q-201 0 -201 -83v-4q0 -28 24 -46t63 -18z" />
    <glyph glyph-name="acircumflex" unicode="&#xe2;" horiz-adv-x="586" 
d="M487 589h-117l-72 60h-18l-72 -60h-117l128 128h140zM220 -10q-81 0 -131.5 43t-50.5 112v7q0 169 314 169h42v23q0 38 -28.5 61t-79.5 23h-3q-85 0 -169 -53l-51 90q106 66 227 66h6q99 0 157 -50.5t58 -138.5v-235q0 -46 18 -107h-118q-9 24 -14 62q-72 -72 -177 -72z
M245 90q90 0 149 64v87h-35q-201 0 -201 -83v-4q0 -28 24 -46t63 -18z" />
    <glyph glyph-name="atilde" unicode="&#xe3;" horiz-adv-x="586" 
d="M295 706q45 -17 66 -17q30 0 32 35h103q-4 -60 -32.5 -95.5t-76.5 -35.5q-38 0 -87 20q-42 16 -66 16q-28 0 -32 -34h-103q4 60 32.5 95t76.5 35q38 0 87 -19zM220 -10q-81 0 -131.5 43t-50.5 112v7q0 169 314 169h42v23q0 38 -28.5 61t-79.5 23h-3q-85 0 -169 -53
l-51 90q106 66 227 66h6q99 0 157 -50.5t58 -138.5v-235q0 -46 18 -107h-118q-9 24 -14 62q-72 -72 -177 -72zM245 90q90 0 149 64v87h-35q-201 0 -201 -83v-4q0 -28 24 -46t63 -18z" />
    <glyph glyph-name="adieresis" unicode="&#xe4;" horiz-adv-x="586" 
d="M394 595q-28 0 -46 17.5t-18 44.5t18 44.5t46 17.5q29 0 48 -17.5t19 -44.5t-19 -44.5t-48 -17.5zM181 595q-28 0 -46.5 17.5t-18.5 44.5t18.5 44.5t46.5 17.5t47 -17.5t19 -44.5t-19 -44.5t-47 -17.5zM220 -10q-81 0 -131.5 43t-50.5 112v7q0 169 314 169h42v23
q0 38 -28.5 61t-79.5 23h-3q-85 0 -169 -53l-51 90q106 66 227 66h6q99 0 157 -50.5t58 -138.5v-235q0 -46 18 -107h-118q-9 24 -14 62q-72 -72 -177 -72zM245 90q90 0 149 64v87h-35q-201 0 -201 -83v-4q0 -28 24 -46t63 -18z" />
    <glyph glyph-name="aring" unicode="&#xe5;" horiz-adv-x="586" 
d="M290 570q-46 0 -75.5 26t-29.5 66q0 43 29.5 69.5t75.5 26.5q45 0 74.5 -27t29.5 -69q0 -40 -29 -66t-75 -26zM290 626q18 0 29 10.5t11 26.5q0 17 -11 28t-29 11t-29.5 -11t-11.5 -28q0 -16 11.5 -26.5t29.5 -10.5zM220 -10q-81 0 -131.5 43t-50.5 112v7q0 169 314 169
h42v23q0 38 -28.5 61t-79.5 23h-3q-85 0 -169 -53l-51 90q106 66 227 66h6q99 0 157 -50.5t58 -138.5v-235q0 -46 18 -107h-118q-9 24 -14 62q-72 -72 -177 -72zM245 90q90 0 149 64v87h-35q-201 0 -201 -83v-4q0 -28 24 -46t63 -18z" />
    <glyph glyph-name="ae" unicode="&#xe6;" horiz-adv-x="897" 
d="M217 -9q-79 0 -129 42.5t-50 111.5q0 164 293 164h41q0 26 -6 40q-8 77 -92 77q-78 0 -160 -52l-51 89q101 66 213 66t164 -71q68 71 172 71h5q102 0 168 -67.5t66 -171.5v-68h-367q7 -57 44.5 -92t93.5 -35h3q41 0 78.5 18.5t60.5 48.5l69 -75q-36 -43 -94 -69.5
t-119 -26.5h-8q-120 0 -193 87q-36 -39 -90.5 -63t-111.5 -24zM483 305h258q-5 56 -39 91.5t-87 35.5h-1q-50 0 -85.5 -34.5t-45.5 -92.5zM378 156q-7 18 -10 38q-1 3 -3 35h-24q-183 0 -183 -77q0 -27 23 -44t61 -17t75 17.5t61 47.5z" />
    <glyph glyph-name="ccedilla" unicode="&#xe7;" horiz-adv-x="565" 
d="M296 -204q-50 0 -90 24l22 66q19 -19 51 -19q19 0 30 9t11 24q0 39 -67 39l22 54q-104 11 -167.5 82.5t-63.5 177.5v16q0 113 74.5 186t188.5 73h6q149 0 224 -119l-92 -61q-43 81 -130 81h-3q-65 0 -102 -43.5t-37 -120.5v-10q0 -74 40 -118t104 -44h5q84 0 129 81
l90 -67q-70 -104 -196 -114l-11 -22q73 -15 73 -77q0 -45 -33.5 -71.5t-77.5 -26.5z" />
    <glyph glyph-name="egrave" unicode="&#xe8;" horiz-adv-x="610" 
d="M271 575l-75 155h114l56 -155h-95zM312 -9q-119 0 -193.5 72t-74.5 187v14q0 115 75.5 190t190.5 75h6q108 0 178 -67.5t70 -172.5v-67h-397v-1q7 -57 48.5 -91.5t104.5 -34.5h5q47 0 88 19t64 48l69 -75q-36 -44 -98 -70t-127 -26h-9zM170 305h276q-5 56 -42 91.5
t-93 35.5h-1q-54 0 -91.5 -34.5t-48.5 -92.5z" />
    <glyph glyph-name="eacute" unicode="&#xe9;" horiz-adv-x="610" 
d="M359 575h-95l57 155h113zM312 -9q-119 0 -193.5 72t-74.5 187v14q0 115 75.5 190t190.5 75h6q108 0 178 -67.5t70 -172.5v-67h-397v-1q7 -57 48.5 -91.5t104.5 -34.5h5q47 0 88 19t64 48l69 -75q-36 -44 -98 -70t-127 -26h-9zM170 305h276q-5 56 -42 91.5t-93 35.5h-1
q-54 0 -91.5 -34.5t-48.5 -92.5z" />
    <glyph glyph-name="ecircumflex" unicode="&#xea;" horiz-adv-x="610" 
d="M514 589h-117l-72 60h-18l-72 -60h-117l128 128h140zM312 -9q-119 0 -193.5 72t-74.5 187v14q0 115 75.5 190t190.5 75h6q108 0 178 -67.5t70 -172.5v-67h-397v-1q7 -57 48.5 -91.5t104.5 -34.5h5q47 0 88 19t64 48l69 -75q-36 -44 -98 -70t-127 -26h-9zM170 305h276
q-5 56 -42 91.5t-93 35.5h-1q-54 0 -91.5 -34.5t-48.5 -92.5z" />
    <glyph glyph-name="edieresis" unicode="&#xeb;" horiz-adv-x="610" 
d="M422 595q-28 0 -46 17.5t-18 44.5t18 44.5t46 17.5q29 0 48 -17.5t19 -44.5t-19 -44.5t-48 -17.5zM209 595q-28 0 -46.5 17.5t-18.5 44.5t18.5 44.5t46.5 17.5t47 -17.5t19 -44.5t-19 -44.5t-47 -17.5zM312 -9q-119 0 -193.5 72t-74.5 187v14q0 115 75.5 190t190.5 75h6
q108 0 178 -67.5t70 -172.5v-67h-397v-1q7 -57 48.5 -91.5t104.5 -34.5h5q47 0 88 19t64 48l69 -75q-36 -44 -98 -70t-127 -26h-9zM170 305h276q-5 56 -42 91.5t-93 35.5h-1q-54 0 -91.5 -34.5t-48.5 -92.5z" />
    <glyph glyph-name="igrave" unicode="&#xec;" horiz-adv-x="274" 
d="M91 575l-75 155h114l56 -155h-95zM75 0v520h124v-520h-124z" />
    <glyph glyph-name="iacute" unicode="&#xed;" horiz-adv-x="274" 
d="M180 575h-95l57 155h113zM75 0v520h124v-520h-124z" />
    <glyph glyph-name="icircumflex" unicode="&#xee;" horiz-adv-x="274" 
d="M321 589h-114l-62 60h-18l-62 -60h-114l118 128h134zM75 0v520h124v-520h-124z" />
    <glyph glyph-name="idieresis" unicode="&#xef;" horiz-adv-x="274" 
d="M221 595q-26 0 -42.5 17.5t-16.5 44.5t16.5 44.5t42.5 17.5t43 -17.5t17 -44.5t-17 -44.5t-43 -17.5zM52 595q-26 0 -43 17.5t-17 44.5t17 44.5t43 17.5q25 0 42 -17.5t17 -44.5t-17 -44.5t-42 -17.5zM75 0v520h124v-520h-124z" />
    <glyph glyph-name="eth" unicode="&#xf0;" horiz-adv-x="644" 
d="M192 521l-35 65l112 53q-40 26 -92 51l55 67q66 -29 132 -73l130 61l35 -66l-99 -47q169 -149 169 -357v-14q0 -121 -76.5 -195.5t-197.5 -74.5h-7q-119 0 -196.5 71.5t-77.5 183.5v13q0 110 74.5 183t179.5 73h8q64 0 118 -32q-36 58 -89 105zM320 89h6q65 0 106 44.5
t41 115.5v8q0 71 -41 116t-106 45h-6q-65 0 -105.5 -45t-40.5 -116v-8q0 -71 40.5 -115.5t105.5 -44.5z" />
    <glyph glyph-name="ntilde" unicode="&#xf1;" horiz-adv-x="636" 
d="M327 706q45 -17 66 -17q30 0 32 35h103q-4 -60 -32.5 -95.5t-76.5 -35.5q-38 0 -87 20q-42 16 -66 16q-28 0 -32 -34h-103q4 60 32.5 95t76.5 35q38 0 87 -19zM75 0v520h98q12 -37 16 -79q74 89 190 89h3q91 0 139.5 -51.5t48.5 -146.5v-332h-124v306q0 116 -105 116h-4
q-62 0 -100 -39t-38 -102v-281h-124z" />
    <glyph glyph-name="ograve" unicode="&#xf2;" horiz-adv-x="646" 
d="M278 575l-75 155h114l56 -155h-95zM319 -9q-120 0 -197.5 73.5t-77.5 188.5v14q0 115 77.5 188.5t197.5 73.5h8q120 0 197.5 -73.5t77.5 -188.5v-14q0 -115 -77.5 -188.5t-197.5 -73.5h-8zM320 89h6q64 0 105.5 46.5t41.5 119.5v10q0 73 -41.5 119.5t-105.5 46.5h-6
q-64 0 -105 -46.5t-41 -119.5v-10q0 -73 41 -119.5t105 -46.5z" />
    <glyph glyph-name="oacute" unicode="&#xf3;" horiz-adv-x="646" 
d="M366 575h-95l57 155h113zM319 -9q-120 0 -197.5 73.5t-77.5 188.5v14q0 115 77.5 188.5t197.5 73.5h8q120 0 197.5 -73.5t77.5 -188.5v-14q0 -115 -77.5 -188.5t-197.5 -73.5h-8zM320 89h6q64 0 105.5 46.5t41.5 119.5v10q0 73 -41.5 119.5t-105.5 46.5h-6
q-64 0 -105 -46.5t-41 -119.5v-10q0 -73 41 -119.5t105 -46.5z" />
    <glyph glyph-name="ocircumflex" unicode="&#xf4;" horiz-adv-x="646" 
d="M521 589h-117l-72 60h-18l-72 -60h-117l128 128h140zM319 -9q-120 0 -197.5 73.5t-77.5 188.5v14q0 115 77.5 188.5t197.5 73.5h8q120 0 197.5 -73.5t77.5 -188.5v-14q0 -115 -77.5 -188.5t-197.5 -73.5h-8zM320 89h6q64 0 105.5 46.5t41.5 119.5v10q0 73 -41.5 119.5
t-105.5 46.5h-6q-64 0 -105 -46.5t-41 -119.5v-10q0 -73 41 -119.5t105 -46.5z" />
    <glyph glyph-name="otilde" unicode="&#xf5;" horiz-adv-x="646" 
d="M329 706q45 -17 66 -17q30 0 32 35h103q-4 -60 -32.5 -95.5t-76.5 -35.5q-38 0 -87 20q-42 16 -66 16q-28 0 -32 -34h-103q4 60 32.5 95t76.5 35q38 0 87 -19zM319 -9q-120 0 -197.5 73.5t-77.5 188.5v14q0 115 77.5 188.5t197.5 73.5h8q120 0 197.5 -73.5t77.5 -188.5
v-14q0 -115 -77.5 -188.5t-197.5 -73.5h-8zM320 89h6q64 0 105.5 46.5t41.5 119.5v10q0 73 -41.5 119.5t-105.5 46.5h-6q-64 0 -105 -46.5t-41 -119.5v-10q0 -73 41 -119.5t105 -46.5z" />
    <glyph glyph-name="odieresis" unicode="&#xf6;" horiz-adv-x="646" 
d="M429 595q-28 0 -46 17.5t-18 44.5t18 44.5t46 17.5q29 0 48 -17.5t19 -44.5t-19 -44.5t-48 -17.5zM216 595q-28 0 -46.5 17.5t-18.5 44.5t18.5 44.5t46.5 17.5t47 -17.5t19 -44.5t-19 -44.5t-47 -17.5zM319 -9q-120 0 -197.5 73.5t-77.5 188.5v14q0 115 77.5 188.5
t197.5 73.5h8q120 0 197.5 -73.5t77.5 -188.5v-14q0 -115 -77.5 -188.5t-197.5 -73.5h-8zM320 89h6q64 0 105.5 46.5t41.5 119.5v10q0 73 -41.5 119.5t-105.5 46.5h-6q-64 0 -105 -46.5t-41 -119.5v-10q0 -73 41 -119.5t105 -46.5z" />
    <glyph glyph-name="divide" unicode="&#xf7;" horiz-adv-x="592" 
d="M295 440q-31 0 -52 20.5t-21 49.5v4q0 28 21 48t52 20q30 0 52 -20t22 -48v-4q0 -29 -22 -49.5t-52 -20.5zM46 273v104h500v-104h-500zM295 67q-31 0 -52 20.5t-21 49.5v4q0 29 21 49t52 20q30 0 52.5 -20.5t22.5 -48.5v-4q0 -29 -22.5 -49.5t-52.5 -20.5z" />
    <glyph glyph-name="oslash" unicode="&#xf8;" horiz-adv-x="646" 
d="M90 -42l52 89q-98 76 -98 206v14q0 115 77.5 188.5t197.5 73.5h8q54 0 99 -15l27 46h101l-51 -86q99 -76 99 -207v-14q0 -115 -77.5 -188.5t-197.5 -73.5h-8q-54 0 -99 15l-30 -48h-100zM205 136l177 289q-25 9 -56 9h-6q-69 0 -112 -46.5t-43 -122.5v-10q0 -73 40 -119z
M320 86h6q69 0 112 46.5t43 122.5v10q0 74 -42 121l-175 -291q26 -9 56 -9z" />
    <glyph glyph-name="ugrave" unicode="&#xf9;" horiz-adv-x="628" 
d="M261 575l-75 155h114l56 -155h-95zM250 -10q-89 0 -136.5 51t-47.5 146v333h124v-307q0 -115 101 -115h2q62 0 99 38.5t37 104.5v279h124v-520h-98q-13 38 -15 78q-73 -88 -188 -88h-2z" />
    <glyph glyph-name="uacute" unicode="&#xfa;" horiz-adv-x="628" 
d="M350 575h-95l57 155h113zM250 -10q-89 0 -136.5 51t-47.5 146v333h124v-307q0 -115 101 -115h2q62 0 99 38.5t37 104.5v279h124v-520h-98q-13 38 -15 78q-73 -88 -188 -88h-2z" />
    <glyph glyph-name="ucircumflex" unicode="&#xfb;" horiz-adv-x="628" 
d="M505 589h-117l-72 60h-18l-72 -60h-117l128 128h140zM250 -10q-89 0 -136.5 51t-47.5 146v333h124v-307q0 -115 101 -115h2q62 0 99 38.5t37 104.5v279h124v-520h-98q-13 38 -15 78q-73 -88 -188 -88h-2z" />
    <glyph glyph-name="udieresis" unicode="&#xfc;" horiz-adv-x="628" 
d="M412 595q-28 0 -46 17.5t-18 44.5t18 44.5t46 17.5q29 0 48 -17.5t19 -44.5t-19 -44.5t-48 -17.5zM199 595q-28 0 -46.5 17.5t-18.5 44.5t18.5 44.5t46.5 17.5t47 -17.5t19 -44.5t-19 -44.5t-47 -17.5zM250 -10q-89 0 -136.5 51t-47.5 146v333h124v-307q0 -115 101 -115
h2q62 0 99 38.5t37 104.5v279h124v-520h-98q-13 38 -15 78q-73 -88 -188 -88h-2z" />
    <glyph glyph-name="yacute" unicode="&#xfd;" horiz-adv-x="558" 
d="M328 575h-95l57 155h113zM156 -201q-59 0 -96 19v106q40 -20 72 -20q61 0 102 73l-225 543h132l153 -399h7l127 399h126l-191 -549q-59 -172 -207 -172z" />
    <glyph glyph-name="thorn" unicode="&#xfe;" horiz-adv-x="671" 
d="M75 -190v910h124v-259q70 68 173 68h5q108 0 178.5 -72.5t70.5 -183.5v-26q0 -111 -70.5 -183.5t-178.5 -72.5h-5q-103 0 -173 68v-249h-124zM344 90h8q64 0 104.5 44.5t40.5 114.5v22q0 70 -40.5 114.5t-104.5 44.5h-8q-64 0 -104.5 -44.5t-40.5 -114.5v-22
q0 -70 40.5 -114.5t104.5 -44.5z" />
    <glyph glyph-name="ydieresis" unicode="&#xff;" horiz-adv-x="558" 
d="M391 595q-28 0 -46 17.5t-18 44.5t18 44.5t46 17.5q29 0 48 -17.5t19 -44.5t-19 -44.5t-48 -17.5zM178 595q-28 0 -46.5 17.5t-18.5 44.5t18.5 44.5t46.5 17.5t47 -17.5t19 -44.5t-19 -44.5t-47 -17.5zM156 -201q-59 0 -96 19v106q40 -20 72 -20q61 0 102 73l-225 543
h132l153 -399h7l127 399h126l-191 -549q-59 -172 -207 -172z" />
    <glyph glyph-name="Amacron" unicode="&#x100;" horiz-adv-x="662" 
d="M184 771v88h293v-88h-293zM-2 0l247 700h172l246 -700h-140l-56 165h-273l-55 -165h-141zM226 273h209l-100 296h-8z" />
    <glyph glyph-name="amacron" unicode="&#x101;" horiz-adv-x="586" 
d="M142 607v92h293v-92h-293zM220 -10q-81 0 -131.5 43t-50.5 112v7q0 169 314 169h42v23q0 38 -28.5 61t-79.5 23h-3q-85 0 -169 -53l-51 90q106 66 227 66h6q99 0 157 -50.5t58 -138.5v-235q0 -46 18 -107h-118q-9 24 -14 62q-72 -72 -177 -72zM245 90q90 0 149 64v87h-35
q-201 0 -201 -83v-4q0 -28 24 -46t63 -18z" />
    <glyph glyph-name="Abreve" unicode="&#x102;" horiz-adv-x="662" 
d="M161 883h103q0 -28 19 -44.5t49 -16.5t48.5 17t18.5 44h103q0 -65 -47 -104.5t-124 -39.5t-123.5 39.5t-46.5 104.5zM-2 0l247 700h172l246 -700h-140l-56 165h-273l-55 -165h-141zM226 273h209l-100 296h-8z" />
    <glyph glyph-name="abreve" unicode="&#x103;" horiz-adv-x="586" 
d="M117 721h104q0 -28 19 -44.5t49 -16.5q29 0 47.5 16.5t18.5 44.5h104q0 -65 -47 -104.5t-125 -39.5q-77 0 -123.5 39.5t-46.5 104.5zM220 -10q-81 0 -131.5 43t-50.5 112v7q0 169 314 169h42v23q0 38 -28.5 61t-79.5 23h-3q-85 0 -169 -53l-51 90q106 66 227 66h6
q99 0 157 -50.5t58 -138.5v-235q0 -46 18 -107h-118q-9 24 -14 62q-72 -72 -177 -72zM245 90q90 0 149 64v87h-35q-201 0 -201 -83v-4q0 -28 24 -46t63 -18z" />
    <glyph glyph-name="Aogonek" unicode="&#x104;" horiz-adv-x="662" 
d="M-2 0l247 700h172l246 -700q-29 -15 -53 -43t-24 -51q0 -34 29 -34q27 0 47 15v-72q-32 -19 -72 -19q-47 0 -72.5 23t-25.5 63q0 68 71 118h-40l-56 165h-273l-55 -165h-141zM226 273h209l-100 296h-8z" />
    <glyph glyph-name="aogonek" unicode="&#x105;" horiz-adv-x="586" 
d="M220 -10q-81 0 -131.5 43t-50.5 112v7q0 169 314 169h42v23q0 38 -28.5 61t-79.5 23h-3q-85 0 -169 -53l-51 90q106 66 227 66h6q99 0 157 -50.5t58 -138.5v-235q0 -47 18 -106l1 -1q-29 -15 -53 -43t-24 -51q0 -34 29 -34q27 0 47 15v-72q-32 -19 -72 -19
q-47 0 -72.5 23t-25.5 63q0 68 71 118h-19q-9 24 -14 62q-72 -72 -177 -72zM245 90q90 0 149 64v87h-35q-201 0 -201 -83v-4q0 -28 24 -46t63 -18z" />
    <glyph glyph-name="Cacute" unicode="&#x106;" horiz-adv-x="687" 
d="M505 889l-71 -147h-100l52 147h119zM386 -11q-152 0 -248.5 101.5t-96.5 257.5v4q0 156 97 257.5t248 101.5q89 0 161 -40t118 -111l-100 -72q-61 103 -173 103h-1q-98 0 -156 -66t-58 -173v-5q0 -106 58.5 -172t154.5 -66h1q119 0 178 102l97 -71q-42 -70 -115.5 -110.5
t-163.5 -40.5h-1z" />
    <glyph glyph-name="cacute" unicode="&#x107;" horiz-adv-x="565" 
d="M356 575h-95l57 155h113zM309 -8q-117 0 -191 73t-74 188v16q0 113 74.5 186t188.5 73h6q149 0 224 -119l-92 -61q-43 81 -130 81h-3q-65 0 -102 -43.5t-37 -120.5v-10q0 -74 40 -118t104 -44h5q84 0 129 81l90 -67q-78 -115 -225 -115h-7z" />
    <glyph glyph-name="Ccircumflex" unicode="&#x108;" horiz-adv-x="687" 
d="M193 752l127 126h140l127 -126h-119l-69 57h-18l-69 -57h-119zM386 -11q-152 0 -248.5 101.5t-96.5 257.5v4q0 156 97 257.5t248 101.5q89 0 161 -40t118 -111l-100 -72q-61 103 -173 103h-1q-98 0 -156 -66t-58 -173v-5q0 -106 58.5 -172t154.5 -66h1q119 0 178 102
l97 -71q-42 -70 -115.5 -110.5t-163.5 -40.5h-1z" />
    <glyph glyph-name="ccircumflex" unicode="&#x109;" horiz-adv-x="565" 
d="M511 589h-117l-72 60h-18l-72 -60h-117l128 128h140zM309 -8q-117 0 -191 73t-74 188v16q0 113 74.5 186t188.5 73h6q149 0 224 -119l-92 -61q-43 81 -130 81h-3q-65 0 -102 -43.5t-37 -120.5v-10q0 -74 40 -118t104 -44h5q84 0 129 81l90 -67q-78 -115 -225 -115h-7z
" />
    <glyph glyph-name="Cdotaccent" unicode="&#x10a;" horiz-adv-x="687" 
d="M389 749q-32 0 -52 18.5t-20 47.5t20.5 48t51.5 19q33 0 54 -19t21 -48t-21 -47.5t-54 -18.5zM386 -11q-152 0 -248.5 101.5t-96.5 257.5v4q0 156 97 257.5t248 101.5q89 0 161 -40t118 -111l-100 -72q-61 103 -173 103h-1q-98 0 -156 -66t-58 -173v-5q0 -106 58.5 -172
t154.5 -66h1q119 0 178 102l97 -71q-42 -70 -115.5 -110.5t-163.5 -40.5h-1z" />
    <glyph glyph-name="cdotaccent" unicode="&#x10b;" horiz-adv-x="565" 
d="M313 590q-32 0 -52.5 19t-20.5 48q0 30 20.5 49t52.5 19q33 0 54.5 -19t21.5 -49q0 -29 -21.5 -48t-54.5 -19zM309 -8q-117 0 -191 73t-74 188v16q0 113 74.5 186t188.5 73h6q149 0 224 -119l-92 -61q-43 81 -130 81h-3q-65 0 -102 -43.5t-37 -120.5v-10q0 -74 40 -118
t104 -44h5q84 0 129 81l90 -67q-78 -115 -225 -115h-7z" />
    <glyph glyph-name="Ccaron" unicode="&#x10c;" horiz-adv-x="687" 
d="M320 752l-126 126h118l70 -57h18l69 57h119l-127 -126h-141zM386 -11q-152 0 -248.5 101.5t-96.5 257.5v4q0 156 97 257.5t248 101.5q89 0 161 -40t118 -111l-100 -72q-61 103 -173 103h-1q-98 0 -156 -66t-58 -173v-5q0 -106 58.5 -172t154.5 -66h1q119 0 178 102
l97 -71q-42 -70 -115.5 -110.5t-163.5 -40.5h-1z" />
    <glyph glyph-name="ccaron" unicode="&#x10d;" horiz-adv-x="565" 
d="M241 589l-128 128h117l72 -59h18l72 59h117l-128 -128h-140zM309 -8q-117 0 -191 73t-74 188v16q0 113 74.5 186t188.5 73h6q149 0 224 -119l-92 -61q-43 81 -130 81h-3q-65 0 -102 -43.5t-37 -120.5v-10q0 -74 40 -118t104 -44h5q84 0 129 81l90 -67q-78 -115 -225 -115
h-7z" />
    <glyph glyph-name="Dcaron" unicode="&#x10e;" horiz-adv-x="720" 
d="M283 752l-126 126h118l70 -57h18l69 57h119l-127 -126h-141zM84 0v700h233q161 0 261.5 -94t100.5 -242v-19q0 -151 -100.5 -248t-261.5 -97h-233zM215 116h103q103 0 163.5 64t60.5 167v17q0 99 -60.5 159.5t-163.5 60.5h-103v-468z" />
    <glyph glyph-name="dcaron" unicode="&#x10f;" horiz-adv-x="704" 
d="M294 -9q-109 0 -179 73.5t-70 188.5v14q0 115 70 188.5t179 73.5h5q106 0 173 -69v260h124v-720h-98q-12 33 -15 70q-71 -79 -184 -79h-5zM663 554l10 166h107l-37 -166h-80zM319 90h8q65 0 105 45.5t40 119.5v10q0 74 -40 119.5t-105 45.5h-8q-65 0 -105 -45.5
t-40 -119.5v-10q0 -74 40 -119.5t105 -45.5z" />
    <glyph glyph-name="Dcroat" unicode="&#x110;" horiz-adv-x="732" 
d="M97 0v299h-65v116h65v285h232q161 0 261.5 -94t100.5 -242v-19q0 -152 -100.5 -248.5t-261.5 -96.5h-232zM228 116h103q103 0 163 64t60 167v17q0 99 -60 159.5t-163 60.5h-103v-169h154v-116h-154v-183z" />
    <glyph glyph-name="dcroat" unicode="&#x111;" horiz-adv-x="676" 
d="M294 -9q-109 0 -179.5 73.5t-70.5 188.5v14q0 115 70.5 188.5t179.5 73.5h5q107 0 175 -71v127h-149v85h149v50h122v-50h64v-85h-64v-585h-98q-11 27 -15 70q-71 -79 -184 -79h-5zM319 96h7q65 0 105.5 44t40.5 116v8q0 72 -40.5 116t-105.5 44h-7q-65 0 -105 -44
t-40 -116v-8q0 -72 40 -116t105 -44z" />
    <glyph glyph-name="Emacron" unicode="&#x112;" horiz-adv-x="580" 
d="M158 771v88h293v-88h-293zM84 0v700h432v-116h-301v-175h281v-110h-281v-183h311v-116h-442z" />
    <glyph glyph-name="emacron" unicode="&#x113;" horiz-adv-x="610" 
d="M170 607v92h293v-92h-293zM312 -9q-119 0 -193.5 72t-74.5 187v14q0 115 75.5 190t190.5 75h6q108 0 178 -67.5t70 -172.5v-67h-397v-1q7 -57 48.5 -91.5t104.5 -34.5h5q47 0 88 19t64 48l69 -75q-36 -44 -98 -70t-127 -26h-9zM170 305h276q-5 56 -42 91.5t-93 35.5h-1
q-54 0 -91.5 -34.5t-48.5 -92.5z" />
    <glyph glyph-name="Ebreve" unicode="&#x114;" horiz-adv-x="580" 
d="M135 883h103q0 -28 19 -44.5t49 -16.5t48.5 17t18.5 44h103q0 -65 -47 -104.5t-124 -39.5t-123.5 39.5t-46.5 104.5zM84 0v700h432v-116h-301v-175h281v-110h-281v-183h311v-116h-442z" />
    <glyph glyph-name="ebreve" unicode="&#x115;" horiz-adv-x="610" 
d="M145 721h104q0 -28 19 -44.5t49 -16.5q29 0 47.5 16.5t18.5 44.5h104q0 -65 -47 -104.5t-125 -39.5q-77 0 -123.5 39.5t-46.5 104.5zM312 -9q-119 0 -193.5 72t-74.5 187v14q0 115 75.5 190t190.5 75h6q108 0 178 -67.5t70 -172.5v-67h-397v-1q7 -57 48.5 -91.5
t104.5 -34.5h5q47 0 88 19t64 48l69 -75q-36 -44 -98 -70t-127 -26h-9zM170 305h276q-5 56 -42 91.5t-93 35.5h-1q-54 0 -91.5 -34.5t-48.5 -92.5z" />
    <glyph glyph-name="Edotaccent" unicode="&#x116;" horiz-adv-x="580" 
d="M303 749q-32 0 -52 18.5t-20 47.5t20.5 48t51.5 19q33 0 54 -19t21 -48t-21 -47.5t-54 -18.5zM84 0v700h432v-116h-301v-175h281v-110h-281v-183h311v-116h-442z" />
    <glyph glyph-name="edotaccent" unicode="&#x117;" horiz-adv-x="610" 
d="M316 590q-32 0 -52.5 19t-20.5 48q0 30 20.5 49t52.5 19q33 0 54.5 -19t21.5 -49q0 -29 -21.5 -48t-54.5 -19zM312 -9q-119 0 -193.5 72t-74.5 187v14q0 115 75.5 190t190.5 75h6q108 0 178 -67.5t70 -172.5v-67h-397v-1q7 -57 48.5 -91.5t104.5 -34.5h5q47 0 88 19
t64 48l69 -75q-36 -44 -98 -70t-127 -26h-9zM170 305h276q-5 56 -42 91.5t-93 35.5h-1q-54 0 -91.5 -34.5t-48.5 -92.5z" />
    <glyph glyph-name="Eogonek" unicode="&#x118;" horiz-adv-x="580" 
d="M84 0v700h432v-116h-301v-175h281v-110h-281v-183h311v-116q-29 -15 -53 -43t-24 -51q0 -34 29 -34q27 0 47 15v-72q-32 -19 -72 -19q-47 0 -72.5 23t-25.5 63q0 68 71 118h-342z" />
    <glyph glyph-name="eogonek" unicode="&#x119;" horiz-adv-x="610" 
d="M478 160l68 -75q-90 -111 -90 -173q0 -40 32 -40q26 0 48 15v-72q-32 -19 -74 -19q-47 0 -73.5 24t-26.5 65q0 58 57 122q-50 -16 -98 -16h-8q-119 0 -194 72t-75 187v14q0 114 76 189.5t190 75.5h6q109 0 178.5 -67.5t69.5 -172.5v-67h-397q8 -57 49.5 -92t104.5 -35h4
q47 0 88 18t65 47zM171 305h275q-4 56 -41 91.5t-93 35.5h-2q-54 0 -91.5 -34.5t-47.5 -92.5z" />
    <glyph glyph-name="Ecaron" unicode="&#x11a;" horiz-adv-x="580" 
d="M235 752l-126 126h118l70 -57h18l69 57h119l-127 -126h-141zM84 0v700h432v-116h-301v-175h281v-110h-281v-183h311v-116h-442z" />
    <glyph glyph-name="ecaron" unicode="&#x11b;" horiz-adv-x="610" 
d="M244 589l-128 128h117l72 -59h18l72 59h117l-128 -128h-140zM312 -9q-119 0 -193.5 72t-74.5 187v14q0 115 75.5 190t190.5 75h6q108 0 178 -67.5t70 -172.5v-67h-397v-1q7 -57 48.5 -91.5t104.5 -34.5h5q47 0 88 19t64 48l69 -75q-36 -44 -98 -70t-127 -26h-9zM170 305
h276q-5 56 -42 91.5t-93 35.5h-1q-54 0 -91.5 -34.5t-48.5 -92.5z" />
    <glyph glyph-name="Gcircumflex" unicode="&#x11c;" horiz-adv-x="752" 
d="M201 752l127 126h140l127 -126h-119l-69 57h-18l-69 -57h-119zM370 -10q-145 0 -237 100.5t-92 256.5v5q0 155 98 257t247 102h2q187 0 288 -156l-106 -67q-59 107 -174 107h-2q-97 0 -157 -67.5t-60 -175.5v-6q0 -108 59.5 -174t157.5 -66h2q80 0 129 41t49 101v14h-156
v110h278v-372h-95q-13 25 -17 77q-33 -39 -89.5 -63t-117.5 -24h-7z" />
    <glyph glyph-name="gcircumflex" unicode="&#x11d;" horiz-adv-x="570" 
d="M475 596h-118l-68 55h-18l-68 -55h-118l125 124h140zM41 335v8q0 83 65.5 134.5t167.5 51.5h15q65 0 114 -21q12 37 30 62h114l-63 -120q37 -45 37 -107v-8q0 -80 -66 -132.5t-166 -52.5h-15q-17 0 -25 1v-52h26h32q104 0 171.5 -41t67.5 -108v-10q0 -67 -68 -108
t-174 -41h-25q-107 0 -175 41t-68 108v12q0 43 30 77.5t81 53.5v94q-50 24 -78 65.5t-28 92.5zM164 342v-11q0 -41 33.5 -67t81.5 -26h9q48 0 81 27t33 66v11q0 40 -33 66t-81 26h-9q-48 0 -81.5 -26t-33.5 -66zM160 -46v-8q0 -28 33.5 -45.5t86.5 -17.5h23q53 0 87 18
t34 45v8q0 27 -34 45t-87 18h-23q-53 0 -86.5 -18t-33.5 -45z" />
    <glyph glyph-name="Gbreve" unicode="&#x11e;" horiz-adv-x="752" 
d="M228 883h103q0 -28 19 -44.5t49 -16.5t48.5 17t18.5 44h103q0 -65 -47 -104.5t-124 -39.5t-123.5 39.5t-46.5 104.5zM370 -10q-145 0 -237 100.5t-92 256.5v5q0 155 98 257t247 102h2q187 0 288 -156l-106 -67q-59 107 -174 107h-2q-97 0 -157 -67.5t-60 -175.5v-6
q0 -108 59.5 -174t157.5 -66h2q80 0 129 41t49 101v14h-156v110h278v-372h-95q-13 25 -17 77q-33 -39 -89.5 -63t-117.5 -24h-7z" />
    <glyph glyph-name="gbreve" unicode="&#x11f;" horiz-adv-x="570" 
d="M113 720h104q0 -26 18 -42t47 -16q28 0 46 16t18 42h103q0 -63 -46 -102t-122 -39t-122 39t-46 102zM41 335v8q0 83 65.5 134.5t167.5 51.5h15q65 0 114 -21q14 39 32 64h113l-64 -122q37 -45 37 -107v-8q0 -80 -66 -132.5t-166 -52.5h-15q-17 0 -25 1v-52h26h32
q104 0 171.5 -41t67.5 -108v-10q0 -67 -68 -108t-174 -41h-25q-107 0 -175 41t-68 108v12q0 43 30 77.5t81 53.5v94q-50 24 -78 65.5t-28 92.5zM164 342v-11q0 -41 33.5 -67t81.5 -26h9q48 0 81 27t33 66v11q0 40 -33 66t-81 26h-9q-48 0 -81.5 -26t-33.5 -66zM160 -46v-8
q0 -28 33.5 -45.5t86.5 -17.5h23q53 0 87 18t34 45v8q0 27 -34 45t-87 18h-23q-53 0 -86.5 -18t-33.5 -45z" />
    <glyph glyph-name="Gdotaccent" unicode="&#x120;" horiz-adv-x="752" 
d="M397 749q-32 0 -52 18.5t-20 47.5t20.5 48t51.5 19q33 0 54 -19t21 -48t-21 -47.5t-54 -18.5zM370 -10q-145 0 -237 100.5t-92 256.5v5q0 155 98 257t247 102h2q187 0 288 -156l-106 -67q-59 107 -174 107h-2q-97 0 -157 -67.5t-60 -175.5v-6q0 -108 59.5 -174t157.5 -66
h2q80 0 129 41t49 101v14h-156v110h278v-372h-95q-13 25 -17 77q-33 -39 -89.5 -63t-117.5 -24h-7z" />
    <glyph glyph-name="gdotaccent" unicode="&#x121;" horiz-adv-x="570" 
d="M281 603q-32 0 -52.5 18.5t-20.5 48.5q0 29 20.5 48.5t52.5 19.5q33 0 54 -19.5t21 -48.5q0 -30 -21 -48.5t-54 -18.5zM41 335v8q0 83 65.5 134.5t167.5 51.5h15q65 0 114 -21q14 39 32 64h113l-64 -122q37 -45 37 -107v-8q0 -80 -66 -132.5t-166 -52.5h-15q-17 0 -25 1
v-52h26h32q104 0 171.5 -41t67.5 -108v-10q0 -67 -68 -108t-174 -41h-25q-107 0 -175 41t-68 108v12q0 43 30 77.5t81 53.5v94q-50 24 -78 65.5t-28 92.5zM164 342v-11q0 -41 33.5 -67t81.5 -26h9q48 0 81 27t33 66v11q0 40 -33 66t-81 26h-9q-48 0 -81.5 -26t-33.5 -66z
M160 -46v-8q0 -28 33.5 -45.5t86.5 -17.5h23q53 0 87 18t34 45v8q0 27 -34 45t-87 18h-23q-53 0 -86.5 -18t-33.5 -45z" />
    <glyph glyph-name="uni0122" unicode="&#x122;" horiz-adv-x="752" 
d="M370 -10q-145 0 -237 100.5t-92 256.5v5q0 155 98 257t247 102h2q187 0 288 -156l-106 -67q-59 107 -174 107h-2q-97 0 -157 -67.5t-60 -175.5v-6q0 -108 59.5 -174t157.5 -66h2q80 0 129 41t49 101v14h-156v110h278v-372h-95q-13 25 -17 77q-33 -39 -89.5 -63
t-117.5 -24h-7zM291 -195l37 151h108l-64 -151h-81z" />
    <glyph glyph-name="uni0123" unicode="&#x123;" horiz-adv-x="572" 
d="M353 737l-23 -159h-109l53 159h79zM41 335v8q0 83 65.5 134.5t167.5 51.5h15q65 0 114 -21q14 39 32 64h113l-64 -122q37 -45 37 -107v-8q0 -80 -66 -132.5t-166 -52.5h-15q-17 0 -25 1v-52h26h32q104 0 171.5 -41t67.5 -108v-10q0 -67 -68 -108t-174 -41h-25
q-107 0 -175 41t-68 108v12q0 43 30 77.5t81 53.5v94q-50 24 -78 65.5t-28 92.5zM164 342v-11q0 -41 33.5 -67t81.5 -26h9q48 0 81 27t33 66v11q0 40 -33 66t-81 26h-9q-48 0 -81.5 -26t-33.5 -66zM160 -46v-8q0 -28 33.5 -45.5t86.5 -17.5h23q53 0 87 18t34 45v8
q0 27 -34 45t-87 18h-23q-53 0 -86.5 -18t-33.5 -45z" />
    <glyph glyph-name="Hcircumflex" unicode="&#x124;" horiz-adv-x="724" 
d="M165 752l127 126h140l127 -126h-119l-69 57h-18l-69 -57h-119zM84 0v700h131v-285h294v285h131v-700h-131v299h-294v-299h-131z" />
    <glyph glyph-name="hcircumflex" unicode="&#x125;" horiz-adv-x="635" 
d="M322 772h-114l-62 59h-18l-62 -59h-114l118 128h134zM75 0v720h124v-267q74 77 187 77q88 0 136 -52t48 -146v-332h-124v306q0 116 -107 116q-64 0 -102 -36t-38 -98v-288h-124z" />
    <glyph glyph-name="Hbar" unicode="&#x126;" horiz-adv-x="714" 
d="M16 531v92h63v77h131v-82h294v82h131v-77h63v-92h-63v-531h-131v299h-294v-299h-131v531h-63zM210 415h294v122h-294v-122z" />
    <glyph glyph-name="hbar" unicode="&#x127;" horiz-adv-x="634" 
d="M85 0v550h-69v85q38 11 69 14v71h124v-70h165v-100h-165v-156q71 71 176 71h2q91 0 139 -51.5t48 -146.5v-267h-124v241q0 116 -102 116h-3q-64 0 -100 -34t-36 -97v-226h-124z" />
    <glyph glyph-name="Itilde" unicode="&#x128;" horiz-adv-x="300" 
d="M152 866q40 -17 64 -17q29 0 31 35h104q-5 -60 -32.5 -95t-73.5 -35q-36 0 -83 19q-40 17 -64 17q-29 0 -31 -35h-104q5 60 32.5 95t73.5 35q35 0 83 -19zM84 0v700h131v-700h-131z" />
    <glyph glyph-name="itilde" unicode="&#x129;" horiz-adv-x="274" 
d="M138 704q36 -15 61 -15q27 0 29 33h104q-5 -56 -31 -90.5t-70 -34.5q-35 0 -80 17q-38 16 -61 16q-28 0 -30 -33h-103q4 56 30 90.5t70 34.5q31 0 81 -18zM75 0v520h124v-520h-124z" />
    <glyph glyph-name="Imacron" unicode="&#x12a;" horiz-adv-x="300" 
d="M3 771v88h293v-88h-293zM84 0v700h131v-700h-131z" />
    <glyph glyph-name="imacron" unicode="&#x12b;" horiz-adv-x="274" 
d="M7 607v92h259v-92h-259zM75 0v520h124v-520h-124z" />
    <glyph glyph-name="Ibreve" unicode="&#x12c;" horiz-adv-x="300" 
d="M-20 883h103q0 -28 19 -44.5t49 -16.5t48.5 17t18.5 44h103q0 -65 -47 -104.5t-124 -39.5t-123.5 39.5t-46.5 104.5zM84 0v700h131v-700h-131z" />
    <glyph glyph-name="ibreve" unicode="&#x12d;" horiz-adv-x="274" 
d="M135 663q23 0 36.5 16t13.5 42h103q0 -64 -42 -102.5t-111 -38.5t-110.5 38.5t-41.5 102.5h103q0 -26 13.5 -42t35.5 -16zM75 0v520h124v-520h-124z" />
    <glyph glyph-name="Iogonek" unicode="&#x12e;" horiz-adv-x="300" 
d="M84 0v700h131v-700q-29 -15 -53 -43t-24 -51q0 -34 29 -34q27 0 47 15v-72q-32 -19 -72 -19q-47 0 -72.5 23t-25.5 63q0 68 71 118h-31z" />
    <glyph glyph-name="iogonek" unicode="&#x12f;" horiz-adv-x="274" 
d="M137 590q-32 0 -52.5 19t-20.5 48q0 30 20.5 49t52.5 19q33 0 54.5 -19t21.5 -49q0 -29 -21.5 -48t-54.5 -19zM75 0v520h124v-520q-29 -15 -53 -43t-24 -51q0 -34 29 -34q27 0 47 15v-72q-32 -19 -72 -19q-47 0 -72.5 23t-25.5 63q0 68 71 118h-24z" />
    <glyph glyph-name="Idotaccent" unicode="&#x130;" horiz-adv-x="300" 
d="M148 749q-32 0 -52 18.5t-20 47.5t20.5 48t51.5 19q33 0 54 -19t21 -48t-21 -47.5t-54 -18.5zM84 0v700h131v-700h-131z" />
    <glyph glyph-name="dotlessi" unicode="&#x131;" horiz-adv-x="274" 
d="M75 0v520h124v-520h-124z" />
    <glyph glyph-name="IJ" unicode="&#x132;" horiz-adv-x="691" 
d="M84 0v700h131v-700h-131zM415 -10q-59 0 -107 18v123q38 -22 79 -22q99 0 99 98v493h131v-506q0 -98 -52.5 -151t-149.5 -53z" />
    <glyph glyph-name="ij" unicode="&#x133;" horiz-adv-x="524" 
d="M137 590q-32 0 -52.5 19t-20.5 48q0 30 20.5 49t52.5 19q33 0 54.5 -19t21.5 -49q0 -29 -21.5 -48t-54.5 -19zM401 590q-32 0 -52.5 19t-20.5 48q0 30 20.5 49t52.5 19q33 0 54.5 -19t21.5 -49q0 -29 -21.5 -48t-54.5 -19zM75 0v520h124v-520h-124zM316 -197
q-56 0 -99 18v104q25 -12 55 -12q35 0 51 17.5t16 61.5v528h124v-548q0 -81 -38.5 -125t-108.5 -44z" />
    <glyph glyph-name="Jcircumflex" unicode="&#x134;" horiz-adv-x="418" 
d="M80 752l127 126h140l127 -126h-119l-69 57h-18l-69 -57h-119zM141 -10q-59 0 -107 18v123q38 -22 79 -22q99 0 99 98v493h131v-506q0 -98 -52.5 -151t-149.5 -53z" />
    <glyph glyph-name="jcircumflex" unicode="&#x135;" horiz-adv-x="284" 
d="M332 589h-114l-62 60h-18l-62 -60h-114l118 128h134zM62 -197q-56 0 -99 18v104q26 -12 55 -12q35 0 51 17.5t16 61.5v528h124v-548q0 -81 -38.5 -125t-108.5 -44z" />
    <glyph glyph-name="uni0136" unicode="&#x136;" horiz-adv-x="661" 
d="M84 0v700h132v-298h6l260 298h152l-292 -322l316 -378h-161l-275 337h-6v-337h-132zM260 -189l37 151h108l-64 -151h-81z" />
    <glyph glyph-name="uni0137" unicode="&#x137;" horiz-adv-x="569" 
d="M75 0v720h124v-419h8l210 219h140l-240 -241l246 -279h-149l-207 246h-8v-246h-124zM219 -189l37 151h108l-64 -151h-81z" />
    <glyph glyph-name="kgreenlandic" unicode="&#x138;" horiz-adv-x="569" 
d="M75 0v520h124v-219h8l210 219h140l-240 -241l246 -279h-149l-207 246h-8v-246h-124z" />
    <glyph glyph-name="Lacute" unicode="&#x139;" horiz-adv-x="539" 
d="M264 889l-71 -147h-100l52 147h119zM84 0v700h131v-584h289v-116h-420z" />
    <glyph glyph-name="lacute" unicode="&#x13a;" horiz-adv-x="274" 
d="M251 906l-71 -147h-100l52 147h119zM74 0v720h124v-720h-124z" />
    <glyph glyph-name="uni013B" unicode="&#x13b;" horiz-adv-x="539" 
d="M84 0v700h131v-584h289v-116h-420zM211 -189l37 151h108l-64 -151h-81z" />
    <glyph glyph-name="uni013C" unicode="&#x13c;" horiz-adv-x="274" 
d="M74 0v720h124v-720h-124zM53 -189l37 151h108l-64 -151h-81z" />
    <glyph glyph-name="Lcaron" unicode="&#x13d;" horiz-adv-x="539" 
d="M84 0v700h131v-584h289v-116h-420zM316 534l10 166h107l-37 -166h-80z" />
    <glyph glyph-name="lcaron" unicode="&#x13e;" horiz-adv-x="307" 
d="M74 0v720h124v-720h-124zM266 554l10 166h107l-37 -166h-80z" />
    <glyph glyph-name="Ldot" unicode="&#x13f;" horiz-adv-x="548" 
d="M84 0v700h131v-584h289v-116h-420zM405 301q-32 0 -52.5 18.5t-20.5 48.5t20.5 49t52.5 19q33 0 54.5 -19t21.5 -49t-21.5 -48.5t-54.5 -18.5z" />
    <glyph glyph-name="ldot" unicode="&#x140;" horiz-adv-x="412" 
d="M72 0v720h124v-720h-124zM337 301q-32 0 -52.5 18.5t-20.5 48.5t20.5 49t52.5 19q33 0 54 -19t21 -49t-21 -48.5t-54 -18.5z" />
    <glyph glyph-name="Lslash" unicode="&#x141;" horiz-adv-x="549" 
d="M20 269v103l75 27v301h131v-254l156 57v-103l-156 -56v-228h289v-116h-420v297z" />
    <glyph glyph-name="lslash" unicode="&#x142;" horiz-adv-x="361" 
d="M32 253v97l86 44v326h124v-262l87 44v-97l-87 -44v-361h-124v297z" />
    <glyph glyph-name="Nacute" unicode="&#x143;" horiz-adv-x="741" 
d="M485 889l-71 -147h-100l52 147h119zM84 0v700h147l290 -497h8v497h127v-700h-134l-302 521h-8v-521h-128z" />
    <glyph glyph-name="nacute" unicode="&#x144;" horiz-adv-x="636" 
d="M364 575h-95l57 155h113zM75 0v520h98q12 -37 16 -79q74 89 190 89h3q91 0 139.5 -51.5t48.5 -146.5v-332h-124v306q0 116 -105 116h-4q-62 0 -100 -39t-38 -102v-281h-124z" />
    <glyph glyph-name="uni0145" unicode="&#x145;" horiz-adv-x="741" 
d="M84 0v700h147l290 -497h8v497h127v-700h-134l-302 521h-8v-521h-128zM287 -189l37 151h108l-64 -151h-81z" />
    <glyph glyph-name="uni0146" unicode="&#x146;" horiz-adv-x="636" 
d="M75 0v520h98q12 -37 16 -79q74 89 190 89h3q91 0 139.5 -51.5t48.5 -146.5v-332h-124v306q0 116 -105 116h-4q-62 0 -100 -39t-38 -102v-281h-124zM236 -189l37 151h108l-64 -151h-81z" />
    <glyph glyph-name="Ncaron" unicode="&#x147;" horiz-adv-x="741" 
d="M300 752l-126 126h118l70 -57h18l69 57h119l-127 -126h-141zM84 0v700h147l290 -497h8v497h127v-700h-134l-302 521h-8v-521h-128z" />
    <glyph glyph-name="ncaron" unicode="&#x148;" horiz-adv-x="636" 
d="M248 589l-128 128h117l72 -59h18l72 59h117l-128 -128h-140zM75 0v520h98q12 -37 16 -79q74 89 190 89h3q91 0 139.5 -51.5t48.5 -146.5v-332h-124v306q0 116 -105 116h-4q-62 0 -100 -39t-38 -102v-281h-124z" />
    <glyph glyph-name="napostrophe" unicode="&#x149;" horiz-adv-x="793" 
d="M29 419l86 281h121l-110 -281h-97zM232 0v520h98q12 -37 16 -79q74 89 190 89h3q91 0 139.5 -51.5t48.5 -146.5v-332h-124v306q0 116 -105 116h-4q-62 0 -100 -39t-38 -102v-281h-124z" />
    <glyph glyph-name="Eng" unicode="&#x14a;" horiz-adv-x="741" 
d="M505 -197q-54 0 -94 17v111q24 -12 52 -12q35 0 49 20.5t13 66.5l-305 519h-8v-525h-128v700h150l288 -493h7v493h127v-729q0 -80 -38.5 -124t-112.5 -44z" />
    <glyph glyph-name="eng" unicode="&#x14b;" horiz-adv-x="645" 
d="M420 -204q-54 0 -96 18v103q27 -11 54 -11q36 0 52 17.5t16 61.5v321q0 116 -105 116h-4q-62 0 -100 -38.5t-38 -102.5v-281h-124v520h98q11 -32 16 -79q73 89 190 89h3q91 0 139.5 -51.5t48.5 -146.5v-368q0 -78 -39.5 -123t-110.5 -45z" />
    <glyph glyph-name="Omacron" unicode="&#x14c;" horiz-adv-x="779" 
d="M243 771v88h293v-88h-293zM41 347v6q0 155 97.5 257t247.5 102h7q150 0 247.5 -101.5t97.5 -256.5v-8q0 -154 -97.5 -256t-247.5 -102h-7q-149 0 -247 102.5t-98 256.5zM177 347q0 -107 59 -174t151 -67h7q91 0 149.5 67t58.5 174v6q0 108 -58.5 175t-150.5 67h-7
q-91 0 -150 -67.5t-59 -174.5v-6z" />
    <glyph glyph-name="omacron" unicode="&#x14d;" horiz-adv-x="646" 
d="M177 607v92h293v-92h-293zM319 -9q-120 0 -197.5 73.5t-77.5 188.5v14q0 115 77.5 188.5t197.5 73.5h8q120 0 197.5 -73.5t77.5 -188.5v-14q0 -115 -77.5 -188.5t-197.5 -73.5h-8zM320 89h6q64 0 105.5 46.5t41.5 119.5v10q0 73 -41.5 119.5t-105.5 46.5h-6
q-64 0 -105 -46.5t-41 -119.5v-10q0 -73 41 -119.5t105 -46.5z" />
    <glyph glyph-name="Obreve" unicode="&#x14e;" horiz-adv-x="779" 
d="M220 883h103q0 -28 19 -44.5t49 -16.5t48.5 17t18.5 44h103q0 -65 -47 -104.5t-124 -39.5t-123.5 39.5t-46.5 104.5zM41 347v6q0 155 97.5 257t247.5 102h7q150 0 247.5 -101.5t97.5 -256.5v-8q0 -154 -97.5 -256t-247.5 -102h-7q-149 0 -247 102.5t-98 256.5zM177 347
q0 -107 59 -174t151 -67h7q91 0 149.5 67t58.5 174v6q0 108 -58.5 175t-150.5 67h-7q-91 0 -150 -67.5t-59 -174.5v-6z" />
    <glyph glyph-name="obreve" unicode="&#x14f;" horiz-adv-x="646" 
d="M152 721h104q0 -28 19 -44.5t49 -16.5q29 0 47.5 16.5t18.5 44.5h104q0 -65 -47 -104.5t-125 -39.5q-77 0 -123.5 39.5t-46.5 104.5zM319 -9q-120 0 -197.5 73.5t-77.5 188.5v14q0 115 77.5 188.5t197.5 73.5h8q120 0 197.5 -73.5t77.5 -188.5v-14q0 -115 -77.5 -188.5
t-197.5 -73.5h-8zM320 89h6q64 0 105.5 46.5t41.5 119.5v10q0 73 -41.5 119.5t-105.5 46.5h-6q-64 0 -105 -46.5t-41 -119.5v-10q0 -73 41 -119.5t105 -46.5z" />
    <glyph glyph-name="Ohungarumlaut" unicode="&#x150;" horiz-adv-x="779" 
d="M353 742h-100l52 147h119zM524 742h-100l52 147h119zM41 347v6q0 155 97.5 257t247.5 102h7q150 0 247.5 -101.5t97.5 -256.5v-8q0 -154 -97.5 -256t-247.5 -102h-7q-149 0 -247 102.5t-98 256.5zM177 347q0 -107 59 -174t151 -67h7q91 0 149.5 67t58.5 174v6
q0 108 -58.5 175t-150.5 67h-7q-91 0 -150 -67.5t-59 -174.5v-6z" />
    <glyph glyph-name="ohungarumlaut" unicode="&#x151;" horiz-adv-x="646" 
d="M190 575l46 155h114l-66 -155h-94zM359 575l46 155h114l-65 -155h-95zM319 -9q-120 0 -197.5 73.5t-77.5 188.5v14q0 115 77.5 188.5t197.5 73.5h8q120 0 197.5 -73.5t77.5 -188.5v-14q0 -115 -77.5 -188.5t-197.5 -73.5h-8zM320 89h6q64 0 105.5 46.5t41.5 119.5v10
q0 73 -41.5 119.5t-105.5 46.5h-6q-64 0 -105 -46.5t-41 -119.5v-10q0 -73 41 -119.5t105 -46.5z" />
    <glyph glyph-name="OE" unicode="&#x152;" horiz-adv-x="963" 
d="M619 112h291v-112h-418q-44 -12 -94 -12h-6q-152 0 -251.5 102.5t-99.5 256.5v6q0 155 99 257t252 102h6q51 0 96 -12h406v-112h-281v-179h261v-110h-261v-187zM492 126v447q-41 22 -94 22h-6q-96 0 -155.5 -67.5t-59.5 -174.5v-6q0 -107 59.5 -174t156.5 -67h7
q52 0 92 20z" />
    <glyph glyph-name="oe" unicode="&#x153;" horiz-adv-x="996" 
d="M710 -9q-130 0 -200 91q-72 -91 -199 -91h-6q-113 0 -187 73.5t-74 188.5v14q0 115 74 188.5t187 73.5h6q130 0 200 -94q70 94 195 94h7q104 0 170.5 -67.5t66.5 -172.5v-67h-377q8 -57 49 -92t102 -35h4q41 0 77 18.5t59 48.5l68 -75q-35 -44 -94 -70t-121 -26h-7z
M575 305h262q-4 58 -39 92.5t-89 34.5h-2q-51 0 -86.5 -33.5t-45.5 -93.5zM307 89h4q61 0 99.5 46.5t38.5 119.5v10q0 73 -38.5 119.5t-99.5 46.5h-4q-61 0 -100 -46.5t-39 -119.5v-10q0 -73 39 -119.5t100 -46.5z" />
    <glyph glyph-name="Racute" unicode="&#x154;" horiz-adv-x="664" 
d="M438 889l-71 -147h-100l52 147h119zM84 0v700h268q116 0 182 -57.5t66 -157.5v-10q0 -67 -33 -117t-91 -74l172 -284h-155l-144 255h-134v-255h-131zM212 358h124q65 0 99 29.5t34 82.5v10q0 52 -33.5 80t-98.5 28h-125v-230z" />
    <glyph glyph-name="racute" unicode="&#x155;" horiz-adv-x="392" 
d="M268 575h-95l57 155h113zM75 0v520h98q13 -38 15 -74q64 74 171 74h12v-120q-15 6 -33 6q-67 0 -103 -34.5t-36 -95.5v-276h-124z" />
    <glyph glyph-name="uni0156" unicode="&#x156;" horiz-adv-x="664" 
d="M84 0v700h268q116 0 182 -57.5t66 -157.5v-10q0 -67 -33 -117t-91 -74l172 -284h-155l-144 255h-134v-255h-131zM212 358h124q65 0 99 29.5t34 82.5v10q0 52 -33.5 80t-98.5 28h-125v-230zM266 -189l37 151h108l-64 -151h-81z" />
    <glyph glyph-name="uni0157" unicode="&#x157;" horiz-adv-x="392" 
d="M75 0v520h98q13 -38 15 -74q64 74 171 74h12v-120q-15 6 -33 6q-67 0 -103 -34.5t-36 -95.5v-276h-124zM53 -189l37 151h108l-64 -151h-81z" />
    <glyph glyph-name="Rcaron" unicode="&#x158;" horiz-adv-x="664" 
d="M253 752l-126 126h118l70 -57h18l69 57h119l-127 -126h-141zM84 0v700h268q116 0 182 -57.5t66 -157.5v-10q0 -67 -33 -117t-91 -74l172 -284h-155l-144 255h-134v-255h-131zM212 358h124q65 0 99 29.5t34 82.5v10q0 52 -33.5 80t-98.5 28h-125v-230z" />
    <glyph glyph-name="rcaron" unicode="&#x159;" horiz-adv-x="392" 
d="M40 718h114l62 -60h18l62 60h114l-118 -128h-134zM75 0v520h98q13 -38 15 -74q64 74 171 74h12v-120q-15 6 -33 6q-67 0 -103 -34.5t-36 -95.5v-276h-124z" />
    <glyph glyph-name="Sacute" unicode="&#x15a;" horiz-adv-x="601" 
d="M409 889l-71 -147h-100l52 147h119zM308 -11q-169 0 -277 99l67 104q42 -40 100 -61.5t116 -21.5q57 0 89.5 22t32.5 60q0 18 -9 33t-20 24.5t-35.5 20t-39.5 15t-48 14.5q-42 12 -69 21.5t-62 27.5t-55.5 38.5t-35.5 53t-15 72.5q0 95 69 148t168 53q152 0 255 -87
l-69 -103q-35 33 -86 51t-99 18q-51 0 -80.5 -21t-29.5 -57q0 -17 9 -30.5t19.5 -22t35 -18.5t39 -14.5t48.5 -14.5q53 -14 89 -28.5t75 -38.5t59 -61.5t20 -86.5q0 -98 -74 -153.5t-187 -55.5z" />
    <glyph glyph-name="sacute" unicode="&#x15b;" horiz-adv-x="509" 
d="M292 575h-95l57 155h113zM269 -10q-145 0 -244 75l62 89q78 -63 182 -63q90 0 90 57q0 14 -6 24t-23 18t-31 12.5t-47 14t-54 15.5q-70 19 -110.5 49.5t-40.5 91.5q0 72 54 114.5t145 42.5q122 0 210 -66l-59 -87q-69 52 -158 52q-78 0 -78 -50q0 -25 28 -39t99 -31
q33 -8 54 -14t50 -19t45.5 -28.5t28.5 -40.5t12 -56q0 -74 -57.5 -117.5t-151.5 -43.5z" />
    <glyph glyph-name="Scircumflex" unicode="&#x15c;" horiz-adv-x="601" 
d="M97 752l127 126h140l127 -126h-119l-69 57h-18l-69 -57h-119zM308 -11q-169 0 -277 99l67 104q42 -40 100 -61.5t116 -21.5q57 0 89.5 22t32.5 60q0 18 -9 33t-20 24.5t-35.5 20t-39.5 15t-48 14.5q-42 12 -69 21.5t-62 27.5t-55.5 38.5t-35.5 53t-15 72.5q0 95 69 148
t168 53q152 0 255 -87l-69 -103q-35 33 -86 51t-99 18q-51 0 -80.5 -21t-29.5 -57q0 -17 9 -30.5t19.5 -22t35 -18.5t39 -14.5t48.5 -14.5q53 -14 89 -28.5t75 -38.5t59 -61.5t20 -86.5q0 -98 -74 -153.5t-187 -55.5z" />
    <glyph glyph-name="scircumflex" unicode="&#x15d;" horiz-adv-x="509" 
d="M447 589h-117l-72 60h-18l-72 -60h-117l128 128h140zM269 -10q-145 0 -244 75l62 89q78 -63 182 -63q90 0 90 57q0 14 -6 24t-23 18t-31 12.5t-47 14t-54 15.5q-70 19 -110.5 49.5t-40.5 91.5q0 72 54 114.5t145 42.5q122 0 210 -66l-59 -87q-69 52 -158 52
q-78 0 -78 -50q0 -25 28 -39t99 -31q33 -8 54 -14t50 -19t45.5 -28.5t28.5 -40.5t12 -56q0 -74 -57.5 -117.5t-151.5 -43.5z" />
    <glyph glyph-name="Scedilla" unicode="&#x15e;" horiz-adv-x="601" 
d="M280 -204q-50 0 -90 24l22 66q19 -19 51 -19q19 0 30 9t11 24q0 39 -67 39l21 52q-137 15 -227 97l67 104q42 -40 100 -61.5t116 -21.5q57 0 89.5 22t32.5 60q0 18 -9 33t-20 24.5t-35.5 20t-39.5 15t-48 14.5q-42 12 -69 21.5t-62 27.5t-55.5 38.5t-35.5 53t-15 72.5
q0 95 69 148t168 53q152 0 255 -87l-69 -103q-35 33 -86 51t-99 18q-51 0 -80.5 -21t-29.5 -57q0 -17 9 -30.5t19.5 -22t35 -18.5t39 -14.5t48.5 -14.5q53 -14 89 -28.5t75 -38.5t59 -61.5t20 -86.5q0 -93 -68 -148.5t-174 -60.5l-9 -18q73 -15 73 -77q0 -45 -33.5 -71.5
t-77.5 -26.5z" />
    <glyph glyph-name="scedilla" unicode="&#x15f;" horiz-adv-x="509" 
d="M245 -204q-50 0 -90 24l22 66q19 -19 51 -19q19 0 30 9t11 24q0 39 -67 39l21 53q-115 11 -198 73l62 89q78 -63 182 -63q90 0 90 57q0 14 -6 24t-23 18t-31 12.5t-47 14t-54 15.5q-70 19 -110.5 49.5t-40.5 91.5q0 72 54 114.5t145 42.5q122 0 210 -66l-59 -87
q-69 52 -158 52q-78 0 -78 -50q0 -25 28 -39t99 -31q33 -8 54 -14t50 -19t45.5 -28.5t28.5 -40.5t12 -56q0 -68 -50.5 -111.5t-134.5 -49.5l-10 -19q73 -15 73 -77q0 -45 -33.5 -71.5t-77.5 -26.5z" />
    <glyph glyph-name="Scaron" unicode="&#x160;" horiz-adv-x="601" 
d="M224 752l-126 126h118l70 -57h18l69 57h119l-127 -126h-141zM308 -11q-169 0 -277 99l67 104q42 -40 100 -61.5t116 -21.5q57 0 89.5 22t32.5 60q0 18 -9 33t-20 24.5t-35.5 20t-39.5 15t-48 14.5q-42 12 -69 21.5t-62 27.5t-55.5 38.5t-35.5 53t-15 72.5q0 95 69 148
t168 53q152 0 255 -87l-69 -103q-35 33 -86 51t-99 18q-51 0 -80.5 -21t-29.5 -57q0 -17 9 -30.5t19.5 -22t35 -18.5t39 -14.5t48.5 -14.5q53 -14 89 -28.5t75 -38.5t59 -61.5t20 -86.5q0 -98 -74 -153.5t-187 -55.5z" />
    <glyph glyph-name="scaron" unicode="&#x161;" horiz-adv-x="509" 
d="M177 589l-128 128h117l72 -59h18l72 59h117l-128 -128h-140zM269 -10q-145 0 -244 75l62 89q78 -63 182 -63q90 0 90 57q0 14 -6 24t-23 18t-31 12.5t-47 14t-54 15.5q-70 19 -110.5 49.5t-40.5 91.5q0 72 54 114.5t145 42.5q122 0 210 -66l-59 -87q-69 52 -158 52
q-78 0 -78 -50q0 -25 28 -39t99 -31q33 -8 54 -14t50 -19t45.5 -28.5t28.5 -40.5t12 -56q0 -74 -57.5 -117.5t-151.5 -43.5z" />
    <glyph glyph-name="uni0162" unicode="&#x162;" horiz-adv-x="555" 
d="M212 0v584h-196v116h524v-116h-197v-584h-33l-15 -29q73 -15 73 -77q0 -45 -33.5 -71.5t-77.5 -26.5q-50 0 -90 24l22 66q19 -19 51 -19q19 0 30 9t11 24q0 39 -67 39l24 61h-26z" />
    <glyph glyph-name="uni0163" unicode="&#x163;" horiz-adv-x="405" 
d="M228 -204q-50 0 -90 24l22 66q19 -19 51 -19q19 0 30 9t11 24q0 39 -67 39l24 59q-120 22 -120 157v265h-69v84q33 11 69 15v121l123 15v-135h163v-100h-164v-242q0 -41 18.5 -58.5t56.5 -17.5q56 0 94 11v-98q-32 -14 -102 -20l-12 -24q73 -15 73 -77q0 -45 -33.5 -71.5
t-77.5 -26.5z" />
    <glyph glyph-name="Tcaron" unicode="&#x164;" horiz-adv-x="555" 
d="M208 752l-126 126h118l70 -57h18l69 57h119l-127 -126h-141zM212 0v584h-196v116h524v-116h-197v-584h-131z" />
    <glyph glyph-name="tcaron" unicode="&#x165;" horiz-adv-x="413" 
d="M301 556l10 166h107l-37 -166h-80zM252 -5q-77 0 -120 40t-43 120v265h-69v84q33 11 69 15v121l123 15v-135h163v-100h-164v-242q0 -41 18.5 -58.5t56.5 -17.5q56 0 94 11v-98q-46 -20 -128 -20z" />
    <glyph glyph-name="Tbar" unicode="&#x166;" horiz-adv-x="547" 
d="M97 306v92h111v186h-196v116h524v-116h-197v-186h112v-92h-112v-306h-131v306h-111z" />
    <glyph glyph-name="tbar" unicode="&#x167;" horiz-adv-x="398" 
d="M28 242v87h59v91h-69v84q33 11 69 15v121l123 15v-135h163v-100h-164v-91h140v-87h-140v-64q0 -41 18.5 -58.5t56.5 -17.5q56 0 94 11v-98q-46 -20 -128 -20q-77 0 -120 40t-43 120v87h-59z" />
    <glyph glyph-name="Utilde" unicode="&#x168;" horiz-adv-x="719" 
d="M362 866q40 -17 64 -17q29 0 31 35h104q-5 -60 -32.5 -95t-73.5 -35q-35 0 -83 19q-40 17 -64 17q-29 0 -31 -35h-104q5 60 32.5 95t73.5 35q35 0 83 -19zM360 -12q-133 0 -209.5 73t-76.5 203v436h132v-428q0 -77 40.5 -120t113.5 -43t113 43t40 120v428h132v-436
q0 -131 -77 -203.5t-208 -72.5z" />
    <glyph glyph-name="utilde" unicode="&#x169;" horiz-adv-x="628" 
d="M313 706q45 -17 66 -17q30 0 32 35h103q-4 -60 -32.5 -95.5t-76.5 -35.5q-38 0 -87 20q-42 16 -66 16q-28 0 -32 -34h-103q4 60 32.5 95t76.5 35q38 0 87 -19zM250 -10q-89 0 -136.5 51t-47.5 146v333h124v-307q0 -115 101 -115h2q62 0 99 38.5t37 104.5v279h124v-520
h-98q-13 38 -15 78q-73 -88 -188 -88h-2z" />
    <glyph glyph-name="Umacron" unicode="&#x16a;" horiz-adv-x="719" 
d="M213 771v88h293v-88h-293zM360 -12q-133 0 -209.5 73t-76.5 203v436h132v-428q0 -77 40.5 -120t113.5 -43t113 43t40 120v428h132v-436q0 -131 -77 -203.5t-208 -72.5z" />
    <glyph glyph-name="umacron" unicode="&#x16b;" horiz-adv-x="628" 
d="M160 607v92h293v-92h-293zM250 -10q-89 0 -136.5 51t-47.5 146v333h124v-307q0 -115 101 -115h2q62 0 99 38.5t37 104.5v279h124v-520h-98q-13 38 -15 78q-73 -88 -188 -88h-2z" />
    <glyph glyph-name="Ubreve" unicode="&#x16c;" horiz-adv-x="719" 
d="M191 883h103q0 -28 19 -44.5t49 -16.5t48.5 17t18.5 44h103q0 -65 -47 -104.5t-124 -39.5t-123.5 39.5t-46.5 104.5zM360 -12q-133 0 -209.5 73t-76.5 203v436h132v-428q0 -77 40.5 -120t113.5 -43t113 43t40 120v428h132v-436q0 -131 -77 -203.5t-208 -72.5z" />
    <glyph glyph-name="ubreve" unicode="&#x16d;" horiz-adv-x="628" 
d="M135 721h104q0 -28 19 -44.5t49 -16.5q29 0 47.5 16.5t18.5 44.5h104q0 -65 -47 -104.5t-125 -39.5q-77 0 -123.5 39.5t-46.5 104.5zM250 -10q-89 0 -136.5 51t-47.5 146v333h124v-307q0 -115 101 -115h2q62 0 99 38.5t37 104.5v279h124v-520h-98q-13 38 -15 78
q-73 -88 -188 -88h-2z" />
    <glyph glyph-name="Uring" unicode="&#x16e;" horiz-adv-x="719" 
d="M359 721q-46 0 -76.5 26.5t-30.5 67.5q0 44 30 71t77 27t77.5 -27.5t30.5 -70.5q0 -41 -30.5 -67.5t-77.5 -26.5zM359 778q19 0 31 10.5t12 27.5q0 18 -12 29.5t-31 11.5t-30.5 -11.5t-11.5 -29.5q0 -17 11.5 -27.5t30.5 -10.5zM360 -12q-133 0 -209.5 73t-76.5 203v436
h132v-428q0 -77 40.5 -120t113.5 -43t113 43t40 120v428h132v-436q0 -131 -77 -203.5t-208 -72.5z" />
    <glyph glyph-name="uring" unicode="&#x16f;" horiz-adv-x="628" 
d="M308 570q-46 0 -75.5 26t-29.5 66q0 43 29.5 69.5t75.5 26.5q45 0 74.5 -27t29.5 -69q0 -40 -29 -66t-75 -26zM308 626q18 0 29 10.5t11 26.5q0 17 -11 28t-29 11t-29.5 -11t-11.5 -28q0 -16 11.5 -26.5t29.5 -10.5zM250 -10q-89 0 -136.5 51t-47.5 146v333h124v-307
q0 -115 101 -115h2q62 0 99 38.5t37 104.5v279h124v-520h-98q-13 38 -15 78q-73 -88 -188 -88h-2z" />
    <glyph glyph-name="Uhungarumlaut" unicode="&#x170;" horiz-adv-x="719" 
d="M324 742h-100l52 147h119zM495 742h-100l52 147h119zM360 -12q-133 0 -209.5 73t-76.5 203v436h132v-428q0 -77 40.5 -120t113.5 -43t113 43t40 120v428h132v-436q0 -131 -77 -203.5t-208 -72.5z" />
    <glyph glyph-name="uhungarumlaut" unicode="&#x171;" horiz-adv-x="628" 
d="M174 575l46 155h114l-66 -155h-94zM343 575l46 155h114l-65 -155h-95zM250 -10q-89 0 -136.5 51t-47.5 146v333h124v-307q0 -115 101 -115h2q62 0 99 38.5t37 104.5v279h124v-520h-98q-13 38 -15 78q-73 -88 -188 -88h-2z" />
    <glyph glyph-name="Uogonek" unicode="&#x172;" horiz-adv-x="719" 
d="M395 -204q-47 0 -72.5 23.5t-25.5 64.5q0 58 50 105q-127 3 -200 75.5t-73 199.5v436h132v-428q0 -78 41.5 -120.5t112.5 -42.5t112 42.5t41 120.5v428h132v-436q0 -104 -49.5 -171.5t-137.5 -91.5q-29 -17 -48 -44t-19 -51q0 -34 29 -34q27 0 47 15v-72q-32 -19 -72 -19
z" />
    <glyph glyph-name="uogonek" unicode="&#x173;" horiz-adv-x="628" 
d="M250 -10q-89 0 -136.5 51t-47.5 146v333h124v-307q0 -115 101 -115h2q62 0 99 38.5t37 104.5v279h124v-520q-29 -15 -53 -43t-24 -51q0 -34 29 -34q27 0 47 15v-72q-32 -19 -72 -19q-47 0 -72.5 23t-25.5 63q0 70 73 119q-13 32 -15 77q-73 -88 -188 -88h-2z" />
    <glyph glyph-name="Wcircumflex" unicode="&#x174;" horiz-adv-x="935" 
d="M268 752l127 126h140l127 -126h-119l-69 57h-18l-69 -57h-119zM171 0l-155 700h134l109 -550h6l144 550h111l146 -550h5l114 550h134l-160 -700h-168l-122 476h-7l-123 -476h-168z" />
    <glyph glyph-name="wcircumflex" unicode="&#x175;" horiz-adv-x="825" 
d="M610 589h-117l-72 60h-18l-72 -60h-117l128 128h140zM152 0l-124 520h125l80 -386h10l110 386h119l110 -387h10l81 387h124l-124 -520h-148l-110 362h-4l-111 -362h-148z" />
    <glyph glyph-name="Ycircumflex" unicode="&#x176;" horiz-adv-x="624" 
d="M115 752l127 126h140l127 -126h-119l-69 57h-18l-69 -57h-119zM247 0v273l-248 427h152l158 -298h6l158 298h151l-246 -427v-273h-131z" />
    <glyph glyph-name="ycircumflex" unicode="&#x177;" horiz-adv-x="558" 
d="M483 589h-117l-72 60h-18l-72 -60h-117l128 128h140zM156 -201q-59 0 -96 19v106q40 -20 72 -20q61 0 102 73l-225 543h132l153 -399h7l127 399h126l-191 -549q-59 -172 -207 -172z" />
    <glyph glyph-name="Ydieresis" unicode="&#x178;" horiz-adv-x="624" 
d="M196 755q-28 0 -46 16.5t-18 43.5t18 45t46 18q29 0 48 -18t19 -45t-19 -43.5t-48 -16.5zM425 755q-29 0 -46.5 16.5t-17.5 43.5t18 45t46 18q29 0 48 -18t19 -45t-19 -43.5t-48 -16.5zM247 0v273l-248 427h152l158 -298h6l158 298h151l-246 -427v-273h-131z" />
    <glyph glyph-name="Zacute" unicode="&#x179;" horiz-adv-x="593" 
d="M417 889l-71 -147h-100l52 147h119zM36 0v100l349 479v5h-327v116h491v-100l-346 -476v-8h355v-116h-522z" />
    <glyph glyph-name="zacute" unicode="&#x17a;" horiz-adv-x="506" 
d="M297 575h-95l57 155h113zM28 0v100l287 314v6h-269v100h420v-98l-286 -317v-5h298v-100h-450z" />
    <glyph glyph-name="Zdotaccent" unicode="&#x17b;" horiz-adv-x="593" 
d="M301 749q-32 0 -52 18.5t-20 47.5t20.5 48t51.5 19q33 0 54 -19t21 -48t-21 -47.5t-54 -18.5zM36 0v100l349 479v5h-327v116h491v-100l-346 -476v-8h355v-116h-522z" />
    <glyph glyph-name="zdotaccent" unicode="&#x17c;" horiz-adv-x="506" 
d="M254 590q-32 0 -52.5 19t-20.5 48q0 30 20.5 49t52.5 19q33 0 54.5 -19t21.5 -49q0 -29 -21.5 -48t-54.5 -19zM28 0v100l287 314v6h-269v100h420v-98l-286 -317v-5h298v-100h-450z" />
    <glyph glyph-name="Zcaron" unicode="&#x17d;" horiz-adv-x="593" 
d="M232 752l-126 126h118l70 -57h18l69 57h119l-127 -126h-141zM36 0v100l349 479v5h-327v116h491v-100l-346 -476v-8h355v-116h-522z" />
    <glyph glyph-name="zcaron" unicode="&#x17e;" horiz-adv-x="506" 
d="M182 589l-128 128h117l72 -59h18l72 59h117l-128 -128h-140zM28 0v100l287 314v6h-269v100h420v-98l-286 -317v-5h298v-100h-450z" />
    <glyph glyph-name="longs" unicode="&#x17f;" horiz-adv-x="308" 
d="M75 0v547q0 80 42 125.5t117 45.5q66 0 113 -19v-99q-39 17 -76 17q-38 0 -55 -18t-17 -61v-538h-124z" />
    <glyph glyph-name="uni018F" unicode="&#x18f;" horiz-adv-x="749" 
d="M31 403h542q-11 88 -63.5 140t-135.5 52h-2q-135 0 -202 -107l-100 72q48 71 127 111t182 40q140 0 234.5 -101.5t94.5 -257.5v-4q0 -156 -94.5 -257.5t-243.5 -101.5h-1q-148 0 -242.5 101t-95.5 256v57zM574 301h-408q11 -89 66 -143t137 -54h2q85 0 138.5 53.5
t64.5 143.5z" />
    <glyph glyph-name="florin" unicode="&#x192;" horiz-adv-x="407" 
d="M89 -11q-55 0 -97 18v103q27 -11 54 -11q36 0 51.5 17t15.5 61v217h-63v79q23 9 63 15v52q0 80 42.5 125.5t117.5 45.5q66 0 112 -19v-99q-35 17 -80 17q-38 0 -55.5 -18t-17.5 -61v-41h151v-96h-146v-232q0 -80 -39.5 -126.5t-108.5 -46.5z" />
    <glyph glyph-name="uni01CD" unicode="&#x1cd;" horiz-adv-x="662" 
d="M261 752l-126 126h118l70 -57h18l69 57h119l-127 -126h-141zM-2 0l247 700h172l246 -700h-140l-56 165h-273l-55 -165h-141zM226 273h209l-100 296h-8z" />
    <glyph glyph-name="uni01CE" unicode="&#x1ce;" horiz-adv-x="586" 
d="M217 589l-128 128h117l72 -59h18l72 59h117l-128 -128h-140zM220 -10q-81 0 -131.5 43t-50.5 112v7q0 169 314 169h42v23q0 38 -28.5 61t-79.5 23h-3q-85 0 -169 -53l-51 90q106 66 227 66h6q99 0 157 -50.5t58 -138.5v-235q0 -46 18 -107h-118q-9 24 -14 62
q-72 -72 -177 -72zM245 90q90 0 149 64v87h-35q-201 0 -201 -83v-4q0 -28 24 -46t63 -18z" />
    <glyph glyph-name="uni01DD" unicode="&#x1dd;" horiz-adv-x="610" 
d="M297 529q119 0 194 -72t75 -187v-14q0 -114 -76 -189.5t-190 -75.5h-6q-109 0 -178.5 67.5t-69.5 172.5v67h397v1q-8 57 -49.5 91.5t-104.5 34.5h-4q-47 0 -88 -18.5t-65 -48.5l-68 75q36 44 98 70t127 26h8zM439 215h-275q4 -56 41 -91.5t93 -35.5h2q54 0 91.5 34.5
t47.5 92.5z" />
    <glyph glyph-name="uni01F4" unicode="&#x1f4;" horiz-adv-x="752" 
d="M512 889l-71 -147h-100l52 147h119zM370 -10q-145 0 -237 100.5t-92 256.5v5q0 155 98 257t247 102h2q187 0 288 -156l-106 -67q-59 107 -174 107h-2q-97 0 -157 -67.5t-60 -175.5v-6q0 -108 59.5 -174t157.5 -66h2q80 0 129 41t49 101v14h-156v110h278v-372h-95
q-13 25 -17 77q-33 -39 -89.5 -63t-117.5 -24h-7z" />
    <glyph glyph-name="uni01F5" unicode="&#x1f5;" horiz-adv-x="570" 
d="M329 580h-94l56 155h114zM41 335v8q0 83 65.5 134.5t167.5 51.5h15q65 0 114 -21q14 39 32 64h113l-64 -122q37 -45 37 -107v-8q0 -80 -66 -132.5t-166 -52.5h-15q-17 0 -25 1v-52h26h32q104 0 171.5 -41t67.5 -108v-10q0 -67 -68 -108t-174 -41h-25q-107 0 -175 41
t-68 108v12q0 43 30 77.5t81 53.5v94q-50 24 -78 65.5t-28 92.5zM164 342v-11q0 -41 33.5 -67t81.5 -26h9q48 0 81 27t33 66v11q0 40 -33 66t-81 26h-9q-48 0 -81.5 -26t-33.5 -66zM160 -46v-8q0 -28 33.5 -45.5t86.5 -17.5h23q53 0 87 18t34 45v8q0 27 -34 45t-87 18h-23
q-53 0 -86.5 -18t-33.5 -45z" />
    <glyph glyph-name="AEacute" unicode="&#x1fc;" horiz-adv-x="853" 
d="M563 889l-71 -147h-100l52 147h119zM-2 0l247 700h545v-116h-279v-175h259v-110h-259v-183h289v-116h-415v165h-190l-56 -165h-141zM228 273h157v311h-53z" />
    <glyph glyph-name="aeacute" unicode="&#x1fd;" horiz-adv-x="897" 
d="M491 555h-95l57 155h113zM217 -9q-79 0 -129 42.5t-50 111.5q0 164 293 164h41q0 26 -6 40q-8 77 -92 77q-78 0 -160 -52l-51 89q101 66 213 66t164 -71q68 71 172 71h5q102 0 168 -67.5t66 -171.5v-68h-367q7 -57 44.5 -92t93.5 -35h3q41 0 78.5 18.5t60.5 48.5l69 -75
q-36 -43 -94 -69.5t-119 -26.5h-8q-120 0 -193 87q-36 -39 -90.5 -63t-111.5 -24zM483 305h258q-5 56 -39 91.5t-87 35.5h-1q-50 0 -85.5 -34.5t-45.5 -92.5zM378 156q-7 18 -10 38q-1 3 -3 35h-24q-183 0 -183 -77q0 -27 23 -44t61 -17t75 17.5t61 47.5z" />
    <glyph glyph-name="Oslashacute" unicode="&#x1fe;" horiz-adv-x="779" 
d="M506 886l-71 -147h-100l52 147h119zM116 -36l56 97q-62 49 -96.5 123t-34.5 163v6q0 155 97 257t247 102h8q76 0 139 -27l29 50h103l-56 -95q62 -49 96 -123t34 -163v-8q0 -154 -97.5 -256t-247.5 -102h-8q-73 0 -138 28l-29 -52h-102zM173 346q0 -113 63 -182l244 419
q-39 18 -88 18h-6q-95 0 -154 -68.5t-59 -178.5v-8zM544 535l-244 -418q39 -18 87 -18h6q95 0 153.5 68.5t58.5 178.5v8q0 112 -61 181z" />
    <glyph glyph-name="oslashacute" unicode="&#x1ff;" horiz-adv-x="646" 
d="M366 573h-95l57 155h113zM90 -42l52 89q-98 76 -98 206v14q0 115 77.5 188.5t197.5 73.5h8q54 0 99 -15l27 46h101l-51 -86q99 -76 99 -207v-14q0 -115 -77.5 -188.5t-197.5 -73.5h-8q-54 0 -99 15l-30 -48h-100zM205 136l177 289q-25 9 -56 9h-6q-69 0 -112 -46.5
t-43 -122.5v-10q0 -73 40 -119zM320 86h6q69 0 112 46.5t43 122.5v10q0 74 -42 121l-175 -291q26 -9 56 -9z" />
    <glyph glyph-name="uni0218" unicode="&#x218;" horiz-adv-x="601" 
d="M308 -11q-169 0 -277 99l67 104q42 -40 100 -61.5t116 -21.5q57 0 89.5 22t32.5 60q0 18 -9 33t-20 24.5t-35.5 20t-39.5 15t-48 14.5q-42 12 -69 21.5t-62 27.5t-55.5 38.5t-35.5 53t-15 72.5q0 95 69 148t168 53q152 0 255 -87l-69 -103q-35 33 -86 51t-99 18
q-51 0 -80.5 -21t-29.5 -57q0 -17 9 -30.5t19.5 -22t35 -18.5t39 -14.5t48.5 -14.5q53 -14 89 -28.5t75 -38.5t59 -61.5t20 -86.5q0 -98 -74 -153.5t-187 -55.5zM217 -189l37 151h108l-64 -151h-81z" />
    <glyph glyph-name="uni0219" unicode="&#x219;" horiz-adv-x="509" 
d="M269 -10q-145 0 -244 75l62 89q78 -63 182 -63q90 0 90 57q0 14 -6 24t-23 18t-31 12.5t-47 14t-54 15.5q-70 19 -110.5 49.5t-40.5 91.5q0 72 54 114.5t145 42.5q122 0 210 -66l-59 -87q-69 52 -158 52q-78 0 -78 -50q0 -25 28 -39t99 -31q33 -8 54 -14t50 -19
t45.5 -28.5t28.5 -40.5t12 -56q0 -74 -57.5 -117.5t-151.5 -43.5zM182 -189l37 151h108l-64 -151h-81z" />
    <glyph glyph-name="uni021A" unicode="&#x21a;" horiz-adv-x="555" 
d="M212 0v584h-196v116h524v-116h-197v-584h-131zM195 -189l37 151h108l-64 -151h-81z" />
    <glyph glyph-name="uni021B" unicode="&#x21b;" horiz-adv-x="405" 
d="M252 -5q-77 0 -120 40t-43 120v265h-69v84q33 11 69 15v121l123 15v-135h163v-100h-164v-242q0 -41 18.5 -58.5t56.5 -17.5q56 0 94 11v-98q-46 -20 -128 -20zM165 -189l37 151h108l-64 -151h-81z" />
    <glyph glyph-name="uni0237" unicode="&#x237;" horiz-adv-x="284" 
d="M62 -197q-56 0 -99 18v104q26 -12 55 -12q35 0 51 17.5t16 61.5v528h124v-548q0 -81 -38.5 -125t-108.5 -44z" />
    <glyph glyph-name="uni02BC" unicode="&#x2bc;" horiz-adv-x="252" 
d="M29 419l86 281h121l-110 -281h-97z" />
    <glyph glyph-name="circumflex" unicode="&#x2c6;" 
d="M-22 589h-117l-72 60h-18l-72 -60h-117l128 128h140z" />
    <glyph glyph-name="caron" unicode="&#x2c7;" 
d="M-290 589l-128 128h117l72 -59h18l72 59h117l-128 -128h-140z" />
    <glyph glyph-name="uni02D0" unicode="&#x2d0;" horiz-adv-x="243" 
d="M121 309l-79 138h159zM121 138l80 -138h-159z" />
    <glyph glyph-name="breve" unicode="&#x2d8;" 
d="M-350 721h104q0 -28 19 -44.5t49 -16.5q29 0 47.5 16.5t18.5 44.5h104q0 -65 -47 -104.5t-125 -39.5q-77 0 -123.5 39.5t-46.5 104.5z" />
    <glyph glyph-name="dotaccent" unicode="&#x2d9;" 
d="M-140 590q-32 0 -52.5 19t-20.5 48q0 30 20.5 49t52.5 19q33 0 54.5 -19t21.5 -49q0 -29 -21.5 -48t-54.5 -19z" />
    <glyph glyph-name="ring" unicode="&#x2da;" 
d="M-121 570q-46 0 -75.5 26t-29.5 66q0 43 29.5 69.5t75.5 26.5q45 0 74.5 -27t29.5 -69q0 -40 -29 -66t-75 -26zM-121 626q18 0 29 10.5t11 26.5q0 17 -11 28t-29 11t-29.5 -11t-11.5 -28q0 -16 11.5 -26.5t29.5 -10.5z" />
    <glyph glyph-name="ogonek" unicode="&#x2db;" 
d="M-108 -204q-47 0 -72.5 23t-25.5 63q0 44 33.5 84.5t90.5 62.5l47 -29q-29 -15 -53 -43t-24 -51q0 -34 29 -34q27 0 47 15v-72q-32 -19 -72 -19z" />
    <glyph glyph-name="tilde" unicode="&#x2dc;" 
d="M-211 706q45 -17 66 -17q30 0 32 35h103q-4 -60 -32.5 -95.5t-76.5 -35.5q-38 0 -87 20q-42 16 -66 16q-28 0 -32 -34h-103q4 60 32.5 95t76.5 35q38 0 87 -19z" />
    <glyph glyph-name="hungarumlaut" unicode="&#x2dd;" 
d="M-356 575l46 155h114l-66 -155h-94zM-187 575l46 155h114l-65 -155h-95z" />
    <glyph glyph-name="uni0326" unicode="&#x326;" 
d="M-181 -189l37 151h108l-64 -151h-81z" />
    <glyph glyph-name="uni0394" unicode="&#x394;" horiz-adv-x="662" 
d="M-2 0l247 700h172l246 -700h-665zM174 108h313l-152 461h-8z" />
    <glyph glyph-name="uni03A9" unicode="&#x3a9;" horiz-adv-x="788" 
d="M187 363v-20q0 -86 44.5 -147t112.5 -80v-116h-264v112h73q-102 96 -102 241v20q0 153 93.5 246t243.5 93h12q149 0 243 -94t94 -248v-20q0 -141 -102 -238h72v-112h-264v112h1l-1 4q69 20 113.5 80.5t44.5 147.5v20q0 104 -57 167.5t-145 63.5h-10q-89 0 -145.5 -63.5
t-56.5 -168.5z" />
    <glyph glyph-name="uni03BC" unicode="&#x3bc;" horiz-adv-x="636" 
d="M277 -10q-47 0 -85 19l9 -209h-126v720h124v-307q0 -115 100 -115h3q61 0 98.5 39t37.5 104v279h124v-520h-98q-14 35 -16 78q-65 -88 -169 -88h-2z" />
    <glyph glyph-name="pi" unicode="&#x3c0;" horiz-adv-x="610" 
d="M523 -7q-63 0 -99.5 37.5t-36.5 116.5v271h-174v-418h-124v418h-65v102h553v-102h-66v-249q0 -43 10.5 -58.5t34.5 -15.5q12 0 29 6v-100q-28 -8 -62 -8z" />
    <glyph glyph-name="uni0400" unicode="&#x400;" horiz-adv-x="580" 
d="M250 742l-73 147h121l56 -147h-104zM84 0v700h432v-116h-301v-175h281v-110h-281v-183h311v-116h-442z" />
    <glyph glyph-name="uni0401" unicode="&#x401;" horiz-adv-x="580" 
d="M189 755q-28 0 -46 16.5t-18 43.5t18 45t46 18q29 0 48 -18t19 -45t-19 -43.5t-48 -16.5zM418 755q-29 0 -46.5 16.5t-17.5 43.5t18 45t46 18q29 0 48 -18t19 -45t-19 -43.5t-48 -16.5zM84 0v700h432v-116h-301v-175h281v-110h-281v-183h311v-116h-442z" />
    <glyph glyph-name="uni0402" unicode="&#x402;" horiz-adv-x="754" 
d="M184 0v584h-168v116h524v-116h-225v-172q77 26 145 26q106 0 166.5 -60t60.5 -167v-199q0 -99 -53.5 -157.5t-139.5 -58.5q-46 0 -84 15v101q27 -8 50 -8q46 0 73 31t27 88v187q0 117 -120 117q-56 0 -125 -26v-301h-131z" />
    <glyph glyph-name="uni0403" unicode="&#x403;" horiz-adv-x="504" 
d="M401 889l-71 -147h-100l52 147h119zM84 0v700h404v-116h-273v-584h-131z" />
    <glyph glyph-name="uni0404" unicode="&#x404;" horiz-adv-x="692" 
d="M387 -11q-152 0 -249 101.5t-97 257.5v4q0 156 96.5 257.5t247.5 101.5q90 0 164 -40t120 -111l-100 -72q-62 107 -181 107h-2q-84 0 -139 -51t-69 -137h300v-106h-301q12 -89 68.5 -142t142.5 -53h1q60 0 108 27.5t77 77.5l97 -71q-42 -69 -117.5 -110t-165.5 -41h-1z
" />
    <glyph glyph-name="uni0405" unicode="&#x405;" horiz-adv-x="601" 
d="M308 -11q-169 0 -277 99l67 104q42 -40 100 -61.5t116 -21.5q57 0 89.5 22t32.5 60q0 18 -9 33t-20 24.5t-35.5 20t-39.5 15t-48 14.5q-42 12 -69 21.5t-62 27.5t-55.5 38.5t-35.5 53t-15 72.5q0 95 69 148t168 53q152 0 255 -87l-69 -103q-35 33 -86 51t-99 18
q-51 0 -80.5 -21t-29.5 -57q0 -17 9 -30.5t19.5 -22t35 -18.5t39 -14.5t48.5 -14.5q53 -14 89 -28.5t75 -38.5t59 -61.5t20 -86.5q0 -98 -74 -153.5t-187 -55.5z" />
    <glyph glyph-name="uni0406" unicode="&#x406;" horiz-adv-x="300" 
d="M84 0v700h131v-700h-131z" />
    <glyph glyph-name="uni0407" unicode="&#x407;" horiz-adv-x="300" 
d="M58 754q-26 0 -43 17t-17 44q0 28 17 46t43 18t44.5 -18.5t18.5 -45.5t-18 -44t-45 -17zM240 754q-27 0 -44 17t-17 44q0 28 17 46t44 18q26 0 44 -18t18 -46q0 -27 -17.5 -44t-44.5 -17zM84 0v700h131v-700h-131z" />
    <glyph glyph-name="uni0408" unicode="&#x408;" horiz-adv-x="418" 
d="M141 -10q-59 0 -107 18v123q38 -22 79 -22q99 0 99 98v493h131v-506q0 -98 -52.5 -151t-149.5 -53z" />
    <glyph glyph-name="uni0409" unicode="&#x409;" horiz-adv-x="1022" 
d="M80 -11q-38 0 -68 12v112q24 -9 49 -9q20 0 33.5 6t23.5 25t15.5 43.5t10 71.5t6 98t3.5 135l5 217h455v-261h131q109 0 176 -58.5t67 -156.5v-5q0 -98 -66.5 -158.5t-174.5 -60.5h-264v584h-200l-3 -132q-1 -73 -3.5 -120t-7.5 -101.5t-13.5 -87t-23 -65.5t-35 -50
t-49.5 -28t-67 -11zM613 112h115q60 0 93.5 28t33.5 80v4q0 50 -33 77.5t-94 27.5h-115v-217z" />
    <glyph glyph-name="uni040A" unicode="&#x40a;" horiz-adv-x="1030" 
d="M84 0v700h131v-261h274v261h131v-261h131q109 0 176 -58.5t67 -156.5v-5q0 -98 -66.5 -158.5t-174.5 -60.5h-264v323h-274v-323h-131zM620 111h116q59 0 93 28.5t34 78.5v4q0 50 -33.5 77.5t-94.5 27.5h-115v-216z" />
    <glyph glyph-name="uni040B" unicode="&#x40b;" horiz-adv-x="745" 
d="M184 0v584h-168v116h524v-116h-225v-172q81 26 148 26q215 0 215 -219v-219h-131v194q0 71 -26 99.5t-90 28.5q-53 0 -116 -23v-299h-131z" />
    <glyph glyph-name="uni040C" unicode="&#x40c;" horiz-adv-x="661" 
d="M467 889l-71 -147h-100l52 147h119zM84 0v700h132v-298h6l260 298h152l-292 -322l316 -378h-161l-275 337h-6v-337h-132z" />
    <glyph glyph-name="uni040D" unicode="&#x40d;" horiz-adv-x="741" 
d="M316 742l-73 147h121l56 -147h-104zM84 0v700h129v-497h8l289 497h146v-700h-130v521h-8l-300 -521h-134z" />
    <glyph glyph-name="uni040E" unicode="&#x40e;" horiz-adv-x="614" 
d="M151 883h103q0 -28 19 -44.5t49 -16.5t48.5 17t18.5 44h103q0 -65 -47 -104.5t-124 -39.5t-123.5 39.5t-46.5 104.5zM215 -12q-54 0 -102 21v111q38 -21 80 -21q53 0 74 38l-258 563h142l178 -424h10l138 424h132l-209 -569q-26 -74 -70 -108.5t-115 -34.5z" />
    <glyph glyph-name="uni040F" unicode="&#x40f;" horiz-adv-x="708" 
d="M623 700v-700h-207v-135h-124v135h-208v700h131v-584h277v584h131z" />
    <glyph glyph-name="uni0410" unicode="&#x410;" horiz-adv-x="662" 
d="M-2 0l247 700h172l246 -700h-140l-56 165h-273l-55 -165h-141zM226 273h209l-100 296h-8z" />
    <glyph glyph-name="uni0411" unicode="&#x411;" horiz-adv-x="658" 
d="M84 0v700h484v-116h-353v-152h160q108 0 174 -57.5t66 -153.5v-7q0 -97 -67 -155.5t-177 -58.5h-287zM213 113h152q54 0 86 28t32 76v6q0 48 -32 75.5t-86 27.5h-152v-213z" />
    <glyph glyph-name="uni0412" unicode="&#x412;" horiz-adv-x="664" 
d="M84 0v700h267q104 0 168.5 -48.5t64.5 -126.5v-7q0 -91 -84 -145q57 -24 88 -69t31 -103v-6q0 -89 -65 -142t-174 -53h-296zM210 406h138q50 0 78.5 24.5t28.5 65.5v6q0 39 -27.5 62t-77.5 23h-140v-181zM210 113h163q53 0 84 25t31 68v5q0 44 -31.5 70t-85.5 26h-161
v-194z" />
    <glyph glyph-name="uni0413" unicode="&#x413;" horiz-adv-x="504" 
d="M84 0v700h404v-116h-273v-584h-131z" />
    <glyph glyph-name="uni0414" unicode="&#x414;" horiz-adv-x="714" 
d="M17 -135v247h55q62 78 62 515v73h476v-588h82v-247h-125v135h-425v-135h-125zM481 112v477h-221v-11q-3 -340 -63 -466h284z" />
    <glyph glyph-name="uni0415" unicode="&#x415;" horiz-adv-x="580" 
d="M84 0v700h432v-116h-301v-175h281v-110h-281v-183h311v-116h-442z" />
    <glyph glyph-name="uni0416" unicode="&#x416;" horiz-adv-x="892" 
d="M382 0v337h-9l-214 -337h-154l255 378l-224 322h142l195 -298h9v298h128v-298h9l195 298h142l-224 -322l255 -378h-154l-214 337h-9v-337h-128z" />
    <glyph glyph-name="uni0417" unicode="&#x417;" horiz-adv-x="622" 
d="M318 -11q-190 0 -296 156l108 66q74 -106 183 -106q59 0 94.5 27.5t35.5 73.5v3q0 45 -34 71.5t-94 26.5h-90v101h68q55 0 87 25.5t32 69.5v2q0 40 -31.5 65t-80.5 25q-99 0 -150 -95l-110 65q99 147 269 147q99 0 166 -51t67 -129v-8q0 -97 -93 -152q61 -23 94.5 -70
t33.5 -107v-7q0 -85 -74.5 -142t-184.5 -57z" />
    <glyph glyph-name="uni0418" unicode="&#x418;" horiz-adv-x="741" 
d="M84 0v700h129v-497h8l289 497h146v-700h-130v521h-8l-300 -521h-134z" />
    <glyph glyph-name="uni0419" unicode="&#x419;" horiz-adv-x="741" 
d="M201 883h103q0 -28 19 -44.5t49 -16.5t48.5 17t18.5 44h103q0 -65 -47 -104.5t-124 -39.5t-123.5 39.5t-46.5 104.5zM84 0v700h129v-497h8l289 497h146v-700h-130v521h-8l-300 -521h-134z" />
    <glyph glyph-name="uni041A" unicode="&#x41a;" horiz-adv-x="661" 
d="M84 0v700h132v-298h6l260 298h152l-292 -322l316 -378h-161l-275 337h-6v-337h-132z" />
    <glyph glyph-name="uni041B" unicode="&#x41b;" horiz-adv-x="706" 
d="M79 -11q-37 0 -67 12v112q22 -9 45 -9q56 0 72.5 68.5t20.5 269.5l7 258h465v-700h-131v584h-210l-3 -144q-2 -87 -5.5 -145t-11.5 -113.5t-21.5 -88t-35 -58t-52.5 -36t-73 -10.5z" />
    <glyph glyph-name="uni041C" unicode="&#x41c;" horiz-adv-x="890" 
d="M85 0v700h187l169 -435h9l169 435h187v-700h-128v540h-7l-175 -445h-101l-175 445h-7v-540h-128z" />
    <glyph glyph-name="uni041D" unicode="&#x41d;" horiz-adv-x="724" 
d="M84 0v700h131v-285h294v285h131v-700h-131v299h-294v-299h-131z" />
    <glyph glyph-name="uni041E" unicode="&#x41e;" horiz-adv-x="779" 
d="M41 347v6q0 155 97.5 257t247.5 102h7q150 0 247.5 -101.5t97.5 -256.5v-8q0 -154 -97.5 -256t-247.5 -102h-7q-149 0 -247 102.5t-98 256.5zM177 347q0 -107 59 -174t151 -67h7q91 0 149.5 67t58.5 174v6q0 108 -58.5 175t-150.5 67h-7q-91 0 -150 -67.5t-59 -174.5v-6z
" />
    <glyph glyph-name="uni041F" unicode="&#x41f;" horiz-adv-x="721" 
d="M84 0v700h552v-700h-131v584h-290v-584h-131z" />
    <glyph glyph-name="uni0420" unicode="&#x420;" horiz-adv-x="627" 
d="M84 0v700h252q114 0 184.5 -63t70.5 -167v-6q0 -105 -70 -169t-184 -64h-122v-231h-131zM212 339h115q62 0 96.5 33.5t34.5 89.5v6q0 55 -33.5 86t-94.5 31h-118v-246z" />
    <glyph glyph-name="uni0421" unicode="&#x421;" horiz-adv-x="687" 
d="M386 -11q-152 0 -248.5 101.5t-96.5 257.5v4q0 156 97 257.5t248 101.5q89 0 161 -40t118 -111l-100 -72q-61 103 -173 103h-1q-98 0 -156 -66t-58 -173v-5q0 -106 58.5 -172t154.5 -66h1q119 0 178 102l97 -71q-42 -70 -115.5 -110.5t-163.5 -40.5h-1z" />
    <glyph glyph-name="uni0422" unicode="&#x422;" horiz-adv-x="555" 
d="M212 0v584h-196v116h524v-116h-197v-584h-131z" />
    <glyph glyph-name="uni0423" unicode="&#x423;" horiz-adv-x="614" 
d="M215 -12q-54 0 -102 21v111q38 -21 80 -21q53 0 74 38l-258 563h142l178 -424h10l138 424h132l-209 -569q-26 -74 -70 -108.5t-115 -34.5z" />
    <glyph glyph-name="uni0424" unicode="&#x424;" horiz-adv-x="798" 
d="M477 70h-15v-70h-126v70h-15q-122 0 -203.5 81t-81.5 206v8q0 124 81.5 205t203.5 81h15v54h126v-54h15q122 0 203.5 -81t81.5 -205v-8q0 -125 -81.5 -206t-203.5 -81zM323 177h17v367h-17q-68 0 -112.5 -50t-44.5 -129v-8q0 -79 44 -129.5t113 -50.5zM458 177h17
q69 0 113 50t44 130v8q0 79 -44 129t-113 50h-17v-367z" />
    <glyph glyph-name="uni0425" unicode="&#x425;" horiz-adv-x="642" 
d="M11 0l220 360v5l-207 335h151l142 -244h8l143 244h150l-207 -334v-5l221 -361h-151l-156 273h-8l-155 -273h-151z" />
    <glyph glyph-name="uni0426" unicode="&#x426;" horiz-adv-x="726" 
d="M579 -135v135h-495v700h131v-584h277v584h131v-584h81v-251h-125z" />
    <glyph glyph-name="uni0427" unicode="&#x427;" horiz-adv-x="671" 
d="M456 0v276q-90 -27 -163 -27q-229 0 -229 220v231h132v-208q0 -70 29 -99.5t98 -29.5q59 0 133 25v312h130v-700h-130z" />
    <glyph glyph-name="uni0428" unicode="&#x428;" horiz-adv-x="1018" 
d="M84 0v700h131v-584h229v584h130v-584h229v584h131v-700h-850z" />
    <glyph glyph-name="uni0429" unicode="&#x429;" horiz-adv-x="1033" 
d="M892 -135v135h-808v700h131v-584h230v584h131v-584h229v584h131v-584h81v-251h-125z" />
    <glyph glyph-name="uni042A" unicode="&#x42a;" horiz-adv-x="679" 
d="M140 0v584h-139v116h270v-243h127q111 0 178 -61t67 -163v-6q0 -103 -66.5 -165t-177.5 -62h-259zM267 113h113q63 0 97.5 30.5t34.5 86.5v5q0 55 -34.5 84.5t-97.5 29.5h-113v-236z" />
    <glyph glyph-name="uni042B" unicode="&#x42b;" horiz-adv-x="878" 
d="M84 0v700h131v-243h123q112 0 180 -60.5t68 -163.5v-6q0 -103 -68 -165t-180 -62h-254zM663 0v700h131v-700h-131zM212 113h107q66 0 101 30.5t35 86.5v5q0 55 -35 84.5t-101 29.5h-107v-236z" />
    <glyph glyph-name="uni042C" unicode="&#x42c;" horiz-adv-x="630" 
d="M84 0v700h131v-243h133q111 0 178.5 -61t67.5 -163v-6q0 -102 -67 -164.5t-178 -62.5h-265zM212 113h119q63 0 97.5 30.5t34.5 86.5v5q0 55 -34.5 84.5t-98.5 29.5h-118v-236z" />
    <glyph glyph-name="uni042D" unicode="&#x42d;" horiz-adv-x="693" 
d="M306 -11h-1q-91 0 -166.5 41t-116.5 110l97 71q29 -50 77.5 -77.5t108.5 -27.5h1q86 0 142.5 53t68.5 142h-302v106h301q-14 86 -69.5 137t-138.5 51h-2q-118 0 -183 -107l-100 72q46 70 120 110.5t164 40.5q151 0 248 -101.5t97 -257.5v-4q0 -156 -97 -257.5
t-249 -101.5z" />
    <glyph glyph-name="uni042E" unicode="&#x42e;" horiz-adv-x="1029" 
d="M645 -12q-135 0 -227.5 88t-106.5 225h-96v-301h-131v700h131v-287h97q18 131 110 215t223 84h6q146 0 241.5 -101t95.5 -252v-17q0 -151 -96 -252.5t-240 -101.5h-7zM444 358v-16q0 -104 56.5 -170.5t144.5 -66.5h6q88 0 144.5 66.5t56.5 170.5v16q0 104 -56.5 170.5
t-144.5 66.5h-5q-89 0 -145.5 -66.5t-56.5 -170.5z" />
    <glyph glyph-name="uni042F" unicode="&#x42f;" horiz-adv-x="657" 
d="M16 0l162 275q-65 28 -102.5 79.5t-37.5 117.5v15q0 99 73.5 156t198.5 57h262v-700h-131v246h-140l-137 -246h-148zM445 349v239h-123q-70 0 -109.5 -28.5t-39.5 -79.5v-12q0 -54 39.5 -86.5t110.5 -32.5h122z" />
    <glyph glyph-name="uni0430" unicode="&#x430;" horiz-adv-x="586" 
d="M220 -10q-81 0 -131.5 43t-50.5 112v7q0 169 314 169h42v23q0 38 -28.5 61t-79.5 23h-3q-85 0 -169 -53l-51 90q106 66 227 66h6q99 0 157 -50.5t58 -138.5v-235q0 -46 18 -107h-118q-9 24 -14 62q-72 -72 -177 -72zM245 90q90 0 149 64v87h-35q-201 0 -201 -83v-4
q0 -28 24 -46t63 -18z" />
    <glyph glyph-name="uni0431" unicode="&#x431;" horiz-adv-x="628" 
d="M318 -9q-132 0 -203 90t-71 258q0 165 67 264.5t198 119.5q32 5 74 8t88 5.5t66 4.5v-116q-19 -2 -100.5 -7t-115.5 -10q-155 -24 -170 -205q31 51 80.5 81t109.5 30h8q102 0 168 -71.5t66 -180.5v-17q0 -108 -74 -181t-182 -73h-9zM315 90h7q59 0 98 43.5t39 109.5v20
q0 66 -38.5 109.5t-98.5 43.5h-4q-60 0 -100.5 -45t-40.5 -111v-18q0 -66 39.5 -109t98.5 -43z" />
    <glyph glyph-name="uni0432" unicode="&#x432;" horiz-adv-x="565" 
d="M75 0v520h267q73 0 119.5 -37t46.5 -95v-17q0 -61 -62 -100q41 -16 64 -46t23 -68v-17q0 -61 -50 -100.5t-128 -39.5h-280zM194 305h114q37 0 58.5 16t21.5 42v9q0 26 -21.5 42t-57.5 16h-115v-125zM194 90h132q38 0 62 17t24 44v11q0 28 -23.5 45.5t-61.5 17.5h-133
v-135z" />
    <glyph glyph-name="uni0433" unicode="&#x433;" horiz-adv-x="434" 
d="M75 0v520h341v-102h-217v-418h-124z" />
    <glyph glyph-name="uni0434" unicode="&#x434;" horiz-adv-x="615" 
d="M13 -128v226h48q51 57 51 422h410v-422h73v-226h-118v128h-346v-128h-118zM182 98h217v325h-171q-4 -274 -46 -325z" />
    <glyph glyph-name="uni0435" unicode="&#x435;" horiz-adv-x="610" 
d="M312 -9q-119 0 -193.5 72t-74.5 187v14q0 115 75.5 190t190.5 75h6q108 0 178 -67.5t70 -172.5v-67h-397v-1q7 -57 48.5 -91.5t104.5 -34.5h5q47 0 88 19t64 48l69 -75q-36 -44 -98 -70t-127 -26h-9zM170 305h276q-5 56 -42 91.5t-93 35.5h-1q-54 0 -91.5 -34.5
t-48.5 -92.5z" />
    <glyph glyph-name="uni0436" unicode="&#x436;" horiz-adv-x="747" 
d="M314 0v246h-11l-158 -246h-139l196 279l-183 241h131l155 -219h9v219h119v-219h9l155 219h131l-183 -241l196 -279h-139l-158 246h-11v-246h-119z" />
    <glyph glyph-name="uni0437" unicode="&#x437;" horiz-adv-x="513" 
d="M271 -9q-170 0 -247 124l93 57q45 -82 141 -82h6q40 0 66 18.5t26 45.5v5q0 31 -23.5 47.5t-67.5 16.5h-75v84h71q35 0 55.5 17t20.5 44v4q0 25 -22.5 42t-59.5 17h-4q-87 0 -127 -76l-86 69q78 105 226 105h8q77 0 132.5 -39.5t55.5 -97.5v-11q0 -63 -74 -106
q43 -15 69 -50t26 -75v-8q0 -63 -58 -107t-143 -44h-9z" />
    <glyph glyph-name="uni0438" unicode="&#x438;" horiz-adv-x="641" 
d="M75 0v520h121v-331h6l235 331h129v-520h-122v359h-5l-251 -359h-113z" />
    <glyph glyph-name="uni0439" unicode="&#x439;" horiz-adv-x="641" 
d="M149 721h104q0 -28 19 -44.5t49 -16.5q29 0 47.5 16.5t18.5 44.5h104q0 -65 -47 -104.5t-125 -39.5q-77 0 -123.5 39.5t-46.5 104.5zM75 0v520h121v-331h6l235 331h129v-520h-122v359h-5l-251 -359h-113z" />
    <glyph glyph-name="uni043A" unicode="&#x43a;" horiz-adv-x="569" 
d="M75 0v520h124v-219h8l210 219h140l-240 -241l246 -279h-149l-207 246h-8v-246h-124z" />
    <glyph glyph-name="uni043B" unicode="&#x43b;" horiz-adv-x="588" 
d="M73 -9q-33 0 -59 10v100q16 -8 37 -8q39 0 50.5 37.5t13.5 154.5l2 235h397v-520h-124v420h-158l-2 -132q-1 -117 -18.5 -182t-50 -90t-88.5 -25z" />
    <glyph glyph-name="uni043C" unicode="&#x43c;" horiz-adv-x="724" 
d="M75 0v520h131l152 -305h9l152 305h131v-520h-119v327h-9l-127 -242h-66l-127 245h-8v-330h-119z" />
    <glyph glyph-name="uni043D" unicode="&#x43d;" horiz-adv-x="634" 
d="M75 0v520h124v-198h236v198h124v-520h-124v222h-236v-222h-124z" />
    <glyph glyph-name="uni043E" unicode="&#x43e;" horiz-adv-x="646" 
d="M319 -9q-120 0 -197.5 73.5t-77.5 188.5v14q0 115 77.5 188.5t197.5 73.5h8q120 0 197.5 -73.5t77.5 -188.5v-14q0 -115 -77.5 -188.5t-197.5 -73.5h-8zM320 89h6q64 0 105.5 46.5t41.5 119.5v10q0 73 -41.5 119.5t-105.5 46.5h-6q-64 0 -105 -46.5t-41 -119.5v-10
q0 -73 41 -119.5t105 -46.5z" />
    <glyph glyph-name="uni043F" unicode="&#x43f;" horiz-adv-x="633" 
d="M75 0v520h483v-520h-124v420h-235v-420h-124z" />
    <glyph glyph-name="uni0440" unicode="&#x440;" horiz-adv-x="671" 
d="M74 -200v720h98q10 -24 16 -70q70 79 183 79h5q109 0 179.5 -73.5t70.5 -188.5v-14q0 -115 -70.5 -188.5t-179.5 -73.5h-5q-106 0 -173 69v-260h-124zM344 90h7q65 0 105.5 45.5t40.5 119.5v10q0 74 -40.5 119.5t-105.5 45.5h-7q-65 0 -105.5 -45.5t-40.5 -119.5v-10
q0 -74 40.5 -119.5t105.5 -45.5z" />
    <glyph glyph-name="uni0441" unicode="&#x441;" horiz-adv-x="565" 
d="M309 -8q-117 0 -191 73t-74 188v16q0 113 74.5 186t188.5 73h6q149 0 224 -119l-92 -61q-43 81 -130 81h-3q-65 0 -102 -43.5t-37 -120.5v-10q0 -74 40 -118t104 -44h5q84 0 129 81l90 -67q-78 -115 -225 -115h-7z" />
    <glyph glyph-name="uni0442" unicode="&#x442;" horiz-adv-x="473" 
d="M175 0v418h-157v102h438v-102h-157v-418h-124z" />
    <glyph glyph-name="uni0443" unicode="&#x443;" horiz-adv-x="558" 
d="M156 -201q-59 0 -96 19v106q40 -20 72 -20q61 0 102 73l-225 543h132l153 -399h7l127 399h126l-191 -549q-59 -172 -207 -172z" />
    <glyph glyph-name="uni0444" unicode="&#x444;" horiz-adv-x="767" 
d="M322 720h123v-192q5 1 15 1q115 0 188.5 -74t73.5 -188v-14q0 -114 -73.5 -188t-188.5 -74q-11 0 -15 1v-192h-123v192q-5 -1 -15 -1q-115 0 -189 74.5t-74 187.5v14q0 114 74 188t189 74q10 0 15 -1v192zM170 266v-11q0 -77 40 -123.5t105 -46.5q5 0 8 1v348q-3 1 -8 1
q-65 0 -105 -46.5t-40 -122.5zM597 266q0 76 -39.5 122.5t-113.5 46.5v-349q2 -1 8 -1q65 0 105 46.5t40 123.5v11z" />
    <glyph glyph-name="uni0445" unicode="&#x445;" horiz-adv-x="550" 
d="M12 0l185 266v4l-178 250h142l113 -177h5l113 177h138l-176 -250v-4l183 -266h-141l-122 191h-4l-119 -191h-139z" />
    <glyph glyph-name="uni0446" unicode="&#x446;" horiz-adv-x="648" 
d="M508 -128v128h-433v520h124v-422h230v422h124v-422h73v-226h-118z" />
    <glyph glyph-name="uni0447" unicode="&#x447;" horiz-adv-x="579" 
d="M380 0v194q-72 -24 -137 -24q-92 0 -139.5 43.5t-47.5 124.5v182h122v-167q0 -82 87 -82q66 0 115 20v229h124v-520h-124z" />
    <glyph glyph-name="uni0448" unicode="&#x448;" horiz-adv-x="852" 
d="M75 0v520h122v-422h168v422h122v-422h168v422h123v-520h-703z" />
    <glyph glyph-name="uni0449" unicode="&#x449;" horiz-adv-x="864" 
d="M726 -128v128h-651v520h122v-422h165v422h122v-422h164v422h123v-422h73v-226h-118z" />
    <glyph glyph-name="uni044A" unicode="&#x44a;" horiz-adv-x="574" 
d="M116 0v418h-102v102h226v-167h128q78 0 127.5 -47.5t49.5 -120.5v-17q0 -72 -51 -120t-130 -48h-248zM236 94h110q32 0 53.5 22t21.5 55v14q0 32 -21.5 54t-53.5 22h-110v-167z" />
    <glyph glyph-name="uni044B" unicode="&#x44b;" horiz-adv-x="773" 
d="M75 0v520h124v-167h112q78 0 128.5 -47.5t50.5 -120.5v-17q0 -72 -51.5 -120t-130.5 -48h-233zM574 0v520h124v-520h-124zM195 95h96q32 0 54 22t22 55v10q0 34 -21.5 55.5t-54.5 21.5h-96v-164z" />
    <glyph glyph-name="uni044C" unicode="&#x44c;" horiz-adv-x="541" 
d="M75 0v520h124v-167h129q80 0 132 -47.5t52 -120.5v-17q0 -72 -53 -120t-134 -48h-250zM196 96h113q33 0 56 22t23 54v11q0 32 -23 54t-56 22h-113v-163z" />
    <glyph glyph-name="uni044D" unicode="&#x44d;" horiz-adv-x="571" 
d="M262 -8h-8q-151 0 -230 115l90 67q47 -82 136 -82h5q58 0 97 34t49 92h-218v84h218q-9 61 -46.5 94.5t-95.5 33.5h-3q-91 0 -136 -82l-92 61q75 119 226 119h7q115 0 190.5 -73t75.5 -186v-16q0 -115 -73.5 -188t-191.5 -73z" />
    <glyph glyph-name="uni044E" unicode="&#x44e;" horiz-adv-x="835" 
d="M528 -9q-103 0 -173.5 64t-79.5 165h-78v-220h-122v520h122v-200h82q15 94 83 151.5t166 57.5h7q111 0 183 -72.5t72 -183.5v-26q0 -111 -72 -183.5t-183 -72.5h-7zM530 90h4q56 0 91.5 44t35.5 116v24q0 70 -35 113t-92 43h-4q-57 0 -92 -43t-35 -113v-24
q0 -72 35.5 -116t91.5 -44z" />
    <glyph glyph-name="uni044F" unicode="&#x44f;" horiz-adv-x="567" 
d="M29 0l118 201q-99 46 -99 138v18q0 71 53 117t135 46h256v-520h-117v177h-116l-99 -177h-131zM256 268h120v157h-120q-38 0 -63 -20t-25 -51v-11q0 -32 25 -53.5t63 -21.5z" />
    <glyph glyph-name="uni0450" unicode="&#x450;" horiz-adv-x="610" 
d="M271 575l-75 155h114l56 -155h-95zM312 -9q-119 0 -193.5 72t-74.5 187v14q0 115 75.5 190t190.5 75h6q108 0 178 -67.5t70 -172.5v-67h-397v-1q7 -57 48.5 -91.5t104.5 -34.5h5q47 0 88 19t64 48l69 -75q-36 -44 -98 -70t-127 -26h-9zM170 305h276q-5 56 -42 91.5
t-93 35.5h-1q-54 0 -91.5 -34.5t-48.5 -92.5z" />
    <glyph glyph-name="uni0451" unicode="&#x451;" horiz-adv-x="610" 
d="M422 595q-28 0 -46 17.5t-18 44.5t18 44.5t46 17.5q29 0 48 -17.5t19 -44.5t-19 -44.5t-48 -17.5zM209 595q-28 0 -46.5 17.5t-18.5 44.5t18.5 44.5t46.5 17.5t47 -17.5t19 -44.5t-19 -44.5t-47 -17.5zM312 -9q-119 0 -193.5 72t-74.5 187v14q0 115 75.5 190t190.5 75h6
q108 0 178 -67.5t70 -172.5v-67h-397v-1q7 -57 48.5 -91.5t104.5 -34.5h5q47 0 88 19t64 48l69 -75q-36 -44 -98 -70t-127 -26h-9zM170 305h276q-5 56 -42 91.5t-93 35.5h-1q-54 0 -91.5 -34.5t-48.5 -92.5z" />
    <glyph glyph-name="uni0452" unicode="&#x452;" horiz-adv-x="641" 
d="M85 0v550h-69v85q32 12 69 15v70h124v-70h164v-100h-164v-156q71 71 176 71h2q91 0 139 -51.5t48 -146.5v-303q0 -81 -39 -124.5t-110 -43.5q-54 0 -96 18v103q25 -11 53 -11q36 0 52 17.5t16 61.5v256q0 59 -25.5 87.5t-79.5 28.5h-4q-61 0 -96.5 -34t-35.5 -97v-226
h-124z" />
    <glyph glyph-name="uni0453" unicode="&#x453;" horiz-adv-x="434" 
d="M289 575h-95l57 155h113zM75 0v520h341v-102h-217v-418h-124z" />
    <glyph glyph-name="uni0454" unicode="&#x454;" horiz-adv-x="573" 
d="M314 -8q-119 0 -194.5 73t-75.5 188v16q0 113 76 186t192 73h7q74 0 132.5 -31.5t93.5 -87.5l-92 -61q-44 81 -135 81h-3q-58 0 -95.5 -33.5t-45.5 -93.5h216v-84h-216q10 -58 49.5 -91.5t97.5 -33.5h4q89 0 134 81l90 -67q-76 -115 -227 -115h-8z" />
    <glyph glyph-name="uni0455" unicode="&#x455;" horiz-adv-x="509" 
d="M269 -10q-145 0 -244 75l62 89q78 -63 182 -63q90 0 90 57q0 14 -6 24t-23 18t-31 12.5t-47 14t-54 15.5q-70 19 -110.5 49.5t-40.5 91.5q0 72 54 114.5t145 42.5q122 0 210 -66l-59 -87q-69 52 -158 52q-78 0 -78 -50q0 -25 28 -39t99 -31q33 -8 54 -14t50 -19
t45.5 -28.5t28.5 -40.5t12 -56q0 -74 -57.5 -117.5t-151.5 -43.5z" />
    <glyph glyph-name="uni0456" unicode="&#x456;" horiz-adv-x="274" 
d="M137 590q-32 0 -52.5 19t-20.5 48q0 30 20.5 49t52.5 19q33 0 54.5 -19t21.5 -49q0 -29 -21.5 -48t-54.5 -19zM75 0v520h124v-520h-124z" />
    <glyph glyph-name="uni0457" unicode="&#x457;" horiz-adv-x="274" 
d="M221 595q-26 0 -42.5 17.5t-16.5 44.5t16.5 44.5t42.5 17.5t43 -17.5t17 -44.5t-17 -44.5t-43 -17.5zM52 595q-26 0 -43 17.5t-17 44.5t17 44.5t43 17.5q25 0 42 -17.5t17 -44.5t-17 -44.5t-42 -17.5zM75 0v520h124v-520h-124z" />
    <glyph glyph-name="uni0458" unicode="&#x458;" horiz-adv-x="271" 
d="M148 590q-32 0 -52.5 19t-20.5 48q0 30 20.5 49t52.5 19q33 0 54.5 -19t21.5 -49q0 -29 -21.5 -48t-54.5 -19zM62 -197q-56 0 -99 18v104q26 -12 55 -12q35 0 51 17.5t16 61.5v528h124v-548q0 -81 -38.5 -125t-108.5 -44z" />
    <glyph glyph-name="uni0459" unicode="&#x459;" horiz-adv-x="836" 
d="M73 -9q-33 0 -59 10v100q16 -8 37 -8q39 0 50.5 45t13.5 189l1 193h385v-181h124q79 0 130.5 -46t51.5 -116v-15q0 -70 -52.5 -116t-132.5 -46h-243v420h-147l-2 -119q-2 -177 -38 -243.5t-119 -66.5zM501 93h106q33 0 54.5 20.5t21.5 50.5v10q0 31 -21.5 51t-54.5 20
h-106v-152z" />
    <glyph glyph-name="uni045A" unicode="&#x45a;" horiz-adv-x="872" 
d="M75 0v520h121v-181h219v181h124v-181h122q79 0 130.5 -46t51.5 -116v-15q0 -70 -52 -116t-133 -46h-243v239h-219v-239h-121zM539 93h104q33 0 54.5 20.5t21.5 50.5v10q0 31 -21 51t-55 20h-104v-152z" />
    <glyph glyph-name="uni045B" unicode="&#x45b;" horiz-adv-x="634" 
d="M85 0v550h-69v85q38 11 69 14v71h124v-70h165v-100h-165v-156q71 71 176 71h2q91 0 139 -51.5t48 -146.5v-267h-124v241q0 116 -102 116h-3q-64 0 -100 -34t-36 -97v-226h-124z" />
    <glyph glyph-name="uni045C" unicode="&#x45c;" horiz-adv-x="569" 
d="M347 575h-95l57 155h113zM75 0v520h124v-219h8l210 219h140l-240 -241l246 -279h-149l-207 246h-8v-246h-124z" />
    <glyph glyph-name="uni045D" unicode="&#x45d;" horiz-adv-x="641" 
d="M275 575l-75 155h114l56 -155h-95zM75 0v520h121v-331h6l235 331h129v-520h-122v359h-5l-251 -359h-113z" />
    <glyph glyph-name="uni045E" unicode="&#x45e;" horiz-adv-x="558" 
d="M114 721h104q0 -28 19 -44.5t49 -16.5q29 0 47.5 16.5t18.5 44.5h104q0 -65 -47 -104.5t-125 -39.5q-77 0 -123.5 39.5t-46.5 104.5zM156 -201q-59 0 -96 19v106q40 -20 72 -20q61 0 102 73l-225 543h132l153 -399h7l127 399h126l-191 -549q-59 -172 -207 -172z" />
    <glyph glyph-name="uni045F" unicode="&#x45f;" horiz-adv-x="628" 
d="M75 520h124v-422h230v422h124v-520h-180v-128h-118v128h-180v520z" />
    <glyph glyph-name="uni0460" unicode="&#x460;" horiz-adv-x="1111" 
d="M324 -12q-129 0 -201 80.5t-72 233.5v94q0 315 220 315q39 0 71 -12v-112q-26 8 -48 8q-59 0 -85.5 -48t-26.5 -156v-81q0 -100 41.5 -150.5t113.5 -50.5q71 0 112 50.5t41 150.5v210h131v-210q0 -100 41 -150.5t112 -50.5q72 0 113.5 51.5t41.5 149.5v81
q0 109 -26 156.5t-85 47.5q-24 0 -48 -8v112q32 12 70 12q220 0 220 -315v-94q0 -153 -71.5 -233.5t-200.5 -80.5q-164 0 -232 130q-70 -130 -232 -130z" />
    <glyph glyph-name="uni0461" unicode="&#x461;" horiz-adv-x="853" 
d="M825 520q-51 -287 -167 -520h-139q-58 114 -97 234q-41 -124 -97 -234h-130q-116 233 -167 520h129q28 -244 109 -406h8q61 129 92 299q-9 38 -22 107h129q27 -243 108 -406h8q80 164 107 406h129z" />
    <glyph glyph-name="uni0462" unicode="&#x462;" horiz-adv-x="704" 
d="M135 705h130v-78h145v-106h-145v-89h163q108 0 174.5 -57.5t66.5 -153.5v-7q0 -97 -67.5 -155.5t-177.5 -58.5h-289v521h-119v106h119v78zM263 113h156q54 0 85.5 28t31.5 76v6q0 48 -32 75.5t-85 27.5h-156v-213z" />
    <glyph glyph-name="uni0463" unicode="&#x463;" horiz-adv-x="564" 
d="M98 640l124 15v-135h165v-96h-165v-84h136q78 0 127.5 -46t49.5 -116v-17q0 -69 -51 -115t-130 -46h-256v420h-84v84q45 11 84 14v122zM218 94h118q32 0 53.5 20t21.5 51v12q0 30 -21.5 50.5t-53.5 20.5h-118v-154z" />
    <glyph glyph-name="uni0464" unicode="&#x464;" horiz-adv-x="957" 
d="M651 -16q-140 0 -234.5 87t-108.5 226h-93v-297h-131v700h131v-287h95q20 130 113 211.5t226 81.5h1q90 0 163.5 -40t120.5 -111l-100 -72q-64 107 -181 107h-2q-82 0 -138 -49.5t-71 -132.5h300v-106h-303q11 -91 68 -146t145 -55h1q60 0 108 27.5t77 77.5l97 -71
q-42 -69 -117.5 -110t-165.5 -41h-1z" />
    <glyph glyph-name="uni0465" unicode="&#x465;" horiz-adv-x="809" 
d="M550 -8q-111 0 -184 63.5t-84 166.5h-86v-222h-121v520h121v-198h90q17 93 89 149.5t173 56.5h7q151 0 226 -119l-92 -61q-43 81 -135 81h-3q-55 0 -91 -29.5t-48 -83.5h215v-92h-217q8 -61 48 -96t99 -35h4q89 0 135 81l89 -67q-76 -115 -227 -115h-8z" />
    <glyph glyph-name="uni0466" unicode="&#x466;" horiz-adv-x="716" 
d="M-7 0l279 700h172l278 -700h-138l-93 237h-71v-237h-124v237h-71l-93 -237h-139zM264 345h187l-89 226h-9z" />
    <glyph glyph-name="uni0467" unicode="&#x467;" horiz-adv-x="606" 
d="M380 520l219 -520h-126l-74 188h-47v-188h-97v188h-48l-75 -188h-125l220 520h153zM244 281h118l-54 134h-10z" />
    <glyph glyph-name="uni0468" unicode="&#x468;" horiz-adv-x="970" 
d="M247 0l161 404h-193v-404h-131v700h131v-180h239l72 180h172l278 -700h-138l-93 237h-71v-237h-124v237h-71l-93 -237h-139zM518 345h187l-89 226h-9z" />
    <glyph glyph-name="uni0469" unicode="&#x469;" horiz-adv-x="821" 
d="M75 0v520h121v-232h151l98 232h153l219 -520h-126l-74 188h-47v-188h-97v188h-48l-75 -188h-125l80 188h-109v-188h-121zM462 281h118l-54 134h-10z" />
    <glyph glyph-name="uni046A" unicode="&#x46a;" horiz-adv-x="891" 
d="M5 0l98 228q71 164 199 184l-214 288h714l-214 -288q129 -20 200 -184l98 -228h-140l-79 202q-25 62 -55 88.5t-76 26.5h-27v-317h-127v317h-27q-46 0 -76 -26.5t-55 -88.5l-79 -202h-140zM438 415h14l123 173h-260z" />
    <glyph glyph-name="uni046B" unicode="&#x46b;" horiz-adv-x="714" 
d="M91 180q50 108 142 123l-160 217h567l-159 -217q92 -15 142 -123l85 -180h-134l-61 157q-26 62 -79 62h-18v-219h-119v219h-18q-52 0 -78 -62l-62 -157h-133zM354 306h5l83 116h-170z" />
    <glyph glyph-name="uni046C" unicode="&#x46c;" horiz-adv-x="1159" 
d="M84 0v700h131v-277h347l-206 277h714l-214 -288q129 -20 200 -184l98 -228h-140l-79 202q-25 62 -55 88.5t-76 26.5h-27v-317h-127v317h-27q-46 0 -76 -26.5t-55 -88.5l-79 -202h-140l98 228q19 45 42 79h-198v-307h-131zM706 415h14l123 173h-260z" />
    <glyph glyph-name="uni046D" unicode="&#x46d;" horiz-adv-x="934" 
d="M75 0v520h121v-201h245l-148 201h567l-159 -217q92 -15 142 -123l85 -180h-134l-61 157q-26 62 -79 62h-18v-219h-119v219h-18q-52 0 -78 -62l-62 -157h-133l85 180q11 25 21 39h-136v-219h-121zM574 306h5l83 116h-170z" />
    <glyph glyph-name="uni046E" unicode="&#x46e;" horiz-adv-x="588" 
d="M211 728l-120 152h118l65 -83h18l52 66q20 27 57 27q25 0 47 -10v-60q-5 1 -13 1q-12 0 -21 -10l-64 -83h-139zM475 -30v-120q-87 -57 -244 -57q-94 0 -156.5 44t-62.5 125q0 152 222 163q90 4 132.5 23.5t42.5 71.5v3q0 40 -33.5 62t-94.5 22h-84v101h62q55 0 87 25.5
t32 69.5v2q0 40 -30.5 65t-76.5 25q-98 0 -149 -93l-110 65q98 145 271 145q96 0 160.5 -50.5t64.5 -129.5v-8q0 -97 -93 -152q128 -41 128 -164v-6q0 -178 -250 -185q-39 -1 -61.5 -3t-45 -8t-32 -17t-9.5 -29q0 -26 29.5 -40t79.5 -14q132 0 221 64z" />
    <glyph glyph-name="uni046F" unicode="&#x46f;" horiz-adv-x="496" 
d="M177 551l-118 149h115l64 -82h18l51 66q20 26 56 26q25 0 45 -10v-59q-10 2 -12 2q-12 0 -21 -10l-63 -82h-135zM426 -51v-106q-80 -49 -218 -49q-85 0 -139.5 36.5t-54.5 108.5q0 33 12 58t28.5 39.5t45.5 25t52.5 15t59.5 8.5q43 6 66 11.5t42.5 20t19.5 37.5v6
q0 30 -23.5 46.5t-67.5 16.5h-77v82h71q35 0 56 17.5t21 44.5v4q0 25 -22.5 42t-59.5 17h-4q-86 0 -127 -76l-86 69q36 49 94 77.5t132 28.5h8q78 0 132.5 -39t54.5 -98v-11q0 -63 -73 -106q43 -19 68.5 -52.5t25.5 -72.5v-8q0 -35 -14 -61t-33.5 -41t-51 -25t-56 -14
t-59.5 -7q-63 -5 -92 -15.5t-29 -38.5q0 -45 91 -45q118 0 207 54z" />
    <glyph glyph-name="uni0470" unicode="&#x470;" horiz-adv-x="807" 
d="M470 0h-131v136h-6q-130 2 -204.5 75t-74.5 201v288h132v-284q0 -75 38.5 -115.5t108.5 -42.5h6v442h131v-443h6q69 2 107.5 42.5t38.5 116.5v284h131v-288q0 -129 -74.5 -201.5t-202.5 -74.5h-6v-136z" />
    <glyph glyph-name="uni0471" unicode="&#x471;" horiz-adv-x="747" 
d="M288 -10q-222 0 -222 213v317h124v-307q0 -115 102 -115h20v622h123v-622h20q102 0 102 115v307h124v-317q0 -213 -222 -213h-24v-180h-123v180h-24z" />
    <glyph glyph-name="uni0472" unicode="&#x472;" horiz-adv-x="779" 
d="M41 347v6q0 155 97.5 257t247.5 102h7q150 0 247.5 -101.5t97.5 -256.5v-8q0 -154 -97.5 -256t-247.5 -102h-7q-149 0 -247 102.5t-98 256.5zM289 428q55 0 122.5 -26.5t105.5 -26.5q47 0 82 21q-11 90 -67.5 144.5t-138.5 54.5h-7q-79 0 -135 -52t-70 -139q47 24 108 24
zM181 296q14 -86 70 -138t136 -52h7q78 0 133.5 50.5t69.5 134.5q-32 -16 -78 -16t-112.5 26.5t-110.5 26.5q-64 0 -115 -32z" />
    <glyph glyph-name="uni0473" unicode="&#x473;" horiz-adv-x="646" 
d="M319 -9q-120 0 -197.5 73.5t-77.5 188.5v14q0 115 77.5 188.5t197.5 73.5h8q120 0 197.5 -73.5t77.5 -188.5v-14q0 -115 -77.5 -188.5t-197.5 -73.5h-8zM178 319q24 10 54 10q42 0 97 -24t80 -24q34 0 62 23q-10 60 -49 95.5t-96 35.5h-6q-53 0 -90.5 -31.5t-51.5 -84.5z
M320 85h6q55 0 94 34t50 91q-28 -15 -62 -15q-40 0 -96 24t-84 24q-32 0 -54 -18q8 -63 47.5 -101.5t98.5 -38.5z" />
    <glyph glyph-name="uni0474" unicode="&#x474;" horiz-adv-x="652" 
d="M327 137l133 464q15 59 43 83.5t74 24.5q29 0 64 -9v-106q-19 7 -30 7q-33 0 -42 -36l-163 -565h-172l-226 700h138l173 -563h8z" />
    <glyph glyph-name="uni0475" unicode="&#x475;" horiz-adv-x="579" 
d="M494 391l-138 -391h-152l-190 520h131l132 -406h10l108 314q17 55 42.5 78t68.5 23q21 0 59 -9v-101q-14 7 -29 7q-29 0 -42 -35z" />
    <glyph glyph-name="uni0476" unicode="&#x476;" horiz-adv-x="652" 
d="M477 742h-100l-71 147h119zM306 742h-100l-71 147h119zM327 137l133 464q15 59 43 83.5t74 24.5q29 0 64 -9v-106q-19 7 -30 7q-33 0 -42 -36l-163 -565h-172l-226 700h138l173 -563h8z" />
    <glyph glyph-name="uni0477" unicode="&#x477;" horiz-adv-x="579" 
d="M383 730l46 -155h-94l-66 155h114zM214 730l46 -155h-95l-65 155h114zM494 391l-138 -391h-152l-190 520h131l132 -406h10l108 314q17 55 42.5 78t68.5 23q21 0 59 -9v-101q-14 7 -29 7q-29 0 -42 -35z" />
    <glyph glyph-name="uni0478" unicode="&#x478;" horiz-adv-x="1296" 
d="M41 347v6q0 155 97.5 257t247.5 102h7q150 0 247.5 -101.5t97.5 -256.5v-8q0 -154 -97.5 -256t-247.5 -102h-7q-149 0 -247 102.5t-98 256.5zM177 347q0 -107 59 -174t151 -67h7q91 0 149.5 67t58.5 174v6q0 108 -58.5 175t-150.5 67h-7q-91 0 -150 -67.5t-59 -174.5v-6z
M894 -201q-59 0 -96 19v106q40 -20 72 -20q61 0 102 73l-225 543h132l153 -399h7l127 399h126l-191 -549q-59 -172 -207 -172z" />
    <glyph glyph-name="uni0479" unicode="&#x479;" horiz-adv-x="1058" 
d="M279 -9q-102 0 -168 73.5t-66 188.5v14q0 115 66 188.5t168 73.5h4q103 0 168.5 -73.5t65.5 -188.5v-14q0 -115 -65.5 -188.5t-168.5 -73.5h-4zM655 -201q-59 0 -96 19v106q40 -20 72 -20q61 0 102 73l-225 543h132l153 -399h7l127 399h126l-191 -549q-59 -172 -207 -172
zM278 106h6q54 0 87.5 41.5t33.5 108.5v8q0 67 -33.5 108.5t-87.5 41.5h-6q-53 0 -86.5 -41.5t-33.5 -108.5v-8q0 -67 33.5 -108.5t86.5 -41.5z" />
    <glyph glyph-name="uni047A" unicode="&#x47a;" horiz-adv-x="849" 
d="M341 2q-132 15 -216 111.5t-84 233.5v6q0 138 83.5 234t216.5 112q24 44 85 44q32 0 45 -11.5t-8 -30.5q151 0 248 -99.5t97 -255.5q0 -137 -83 -232.5t-216 -111.5q-24 -44 -83 -44q-61 0 -85 44zM345 105q25 38 81 38q54 0 79 -38q75 15 121 80.5t46 161.5v6
q0 96 -45.5 161.5t-121.5 81.5q-25 -38 -79 -38q-56 0 -81 38q-75 -15 -121.5 -81t-46.5 -162v-6q0 -96 46.5 -161.5t121.5 -80.5z" />
    <glyph glyph-name="uni047B" unicode="&#x47b;" horiz-adv-x="683" 
d="M261 2q-97 17 -157 85.5t-60 165.5v14q0 97 60 165.5t157 85.5q22 42 80 42q55 0 79 -41q98 -17 158.5 -86t60.5 -166v-14q0 -97 -60.5 -166t-158.5 -86q-24 -41 -79 -41q-58 0 -80 42zM266 100q23 34 75 34q50 0 75 -35q43 17 68 58.5t25 97.5v10q0 56 -25.5 97.5
t-68.5 58.5q-24 -35 -74 -35q-52 0 -75 34q-42 -17 -67 -58.5t-25 -96.5v-10q0 -55 25 -96.5t67 -58.5z" />
    <glyph glyph-name="uni047C" unicode="&#x47c;" horiz-adv-x="1151" 
d="M490 785h-100q0 133 120 133q54 0 134 -23.5t121 -23.5v-89q-47 0 -125.5 23t-105.5 23q-44 0 -44 -43zM560 605l-37 34q32 17 34 47q-20 2 -31.5 16t-11.5 33q0 23 15 38.5t41 15.5q29 0 46 -19t17 -49q0 -32 -19.5 -64.5t-53.5 -51.5zM334 -12q-134 0 -208.5 80.5
t-74.5 233.5v94q0 315 235 315q42 0 76 -12v-112q-29 8 -55 8q-66 0 -95.5 -48t-29.5 -156v-81q0 -100 44.5 -150.5t120.5 -50.5t119.5 50.5t43.5 150.5v20h131v-20q0 -100 43.5 -150.5t119.5 -50.5t120.5 51.5t44.5 149.5v81q0 109 -29 156.5t-96 47.5q-27 0 -54 -8v112
q35 12 75 12q235 0 235 -315v-94q0 -152 -74.5 -233t-207.5 -81q-172 0 -242 133q-71 -133 -242 -133z" />
    <glyph glyph-name="uni047D" unicode="&#x47d;" horiz-adv-x="946" 
d="M393 624h-101q0 133 119 133q52 0 131 -23.5t120 -23.5v-89q-47 0 -124 23t-102 23q-43 0 -43 -43zM463 444l-37 34q32 18 34 47q-20 2 -31.5 16t-11.5 33q0 23 15 38.5t41 15.5q29 0 46 -19t17 -49q0 -31 -19.5 -63.5t-53.5 -52.5zM262 -9q-96 0 -154 64.5t-58 180.5v48
q0 245 213 245q37 0 68 -11v-97q-21 7 -47 7q-55 0 -81.5 -35.5t-26.5 -112.5v-32q0 -147 100 -147q34 0 95.5 34.5t102.5 34.5q40 0 101.5 -34.5t94.5 -34.5q101 0 101 147v32q0 77 -26.5 112.5t-82.5 35.5q-25 0 -47 -7v97q33 11 68 11q214 0 214 -245v-48
q0 -116 -58.5 -180.5t-153.5 -64.5q-49 0 -90.5 18.5t-71.5 36.5t-50 18t-49.5 -18t-71 -36.5t-90.5 -18.5z" />
    <glyph glyph-name="uni047E" unicode="&#x47e;" horiz-adv-x="1111" 
d="M504 690v98h-152v93h407v-93h-153v-98h-102zM324 -12q-129 0 -201 80.5t-72 233.5v94q0 315 220 315q39 0 71 -12v-112q-26 8 -48 8q-59 0 -85.5 -48t-26.5 -156v-81q0 -100 41.5 -150.5t113.5 -50.5q71 0 112 50.5t41 150.5v210h131v-210q0 -100 41 -150.5t112 -50.5
q72 0 113.5 51.5t41.5 149.5v81q0 109 -26 156.5t-85 47.5q-24 0 -48 -8v112q32 12 70 12q220 0 220 -315v-94q0 -153 -71.5 -233.5t-200.5 -80.5q-164 0 -232 130q-70 -130 -232 -130z" />
    <glyph glyph-name="uni047F" unicode="&#x47f;" horiz-adv-x="853" 
d="M377 562v77h-135v82h370v-82h-136v-77h-99zM825 520q-51 -287 -167 -520h-139q-58 114 -97 234q-41 -124 -97 -234h-130q-116 233 -167 520h129q28 -244 109 -406h8q61 129 92 299q-9 38 -22 107h129q27 -243 108 -406h8q80 164 107 406h129z" />
    <glyph glyph-name="uni0480" unicode="&#x480;" horiz-adv-x="676" 
d="M389 -144l4 138q-161 0 -256.5 100.5t-95.5 259.5q0 155 97 256t248 101q89 0 161 -40t118 -111l-100 -72q-61 103 -173 103h-1q-98 0 -156 -65.5t-58 -171.5v-4q0 -107 58 -171.5t162 -64.5h115v-258h-123z" />
    <glyph glyph-name="uni0481" unicode="&#x481;" horiz-adv-x="539" 
d="M294 -141v136q-112 4 -181 74.5t-69 181.5v15q0 115 73 188.5t184 73.5h7q145 0 220 -119l-92 -61q-44 77 -127 77h-2q-61 0 -97.5 -43t-36.5 -116v-9q0 -72 44 -116.5t116 -44.5h77v-237h-116z" />
    <glyph glyph-name="uni0482" unicode="&#x482;" horiz-adv-x="564" 
d="M114 18l52 111l-114 53l35 74l113 -53l73 156l-114 53l35 74l114 -52l51 110l90 -42l-51 -111l114 -53l-35 -74l-114 53l-72 -156l113 -53l-35 -74l-113 52l-52 -110z" />
    <glyph glyph-name="uni0483" unicode="&#x483;" 
d="M-418 586v135h268v54h100v-136h-268v-53h-100z" />
    <glyph glyph-name="uni0484" unicode="&#x484;" 
d="M-179 634q0 43 -44 43q-27 0 -105.5 -23t-125.5 -23v89q41 0 121 23.5t134 23.5q120 0 120 -133h-100z" />
    <glyph glyph-name="uni0487" unicode="&#x487;" 
d="M-319 634h-100q0 133 120 133q54 0 134 -23.5t121 -23.5v-89q-47 0 -125.5 23t-105.5 23q-44 0 -44 -43z" />
    <glyph glyph-name="uni0488" unicode="&#x488;" 
d="M-204 788h-78q0 14 -11 22.5t-28 8.5q-18 0 -29 -8.5t-11 -22.5h-77q-1 42 31.5 68t85.5 26q52 0 84.5 -26t32.5 -68zM-609 621h-77q0 31 -39 31q-18 0 -29 -8.5t-11 -22.5h-77q-1 42 31.5 68t85.5 26t84.5 -26t31.5 -68zM199 622h-78q1 14 -10 22t-29 8t-29 -8t-11 -22
h-77q-1 42 31.5 67.5t85.5 25.5t85 -25.5t32 -67.5zM-776 218h-77q0 14 -11 22.5t-28 8.5q-18 0 -29 -8.5t-11 -22.5h-78q-1 42 31.5 68t85.5 26t85 -26t32 -68zM367 218h-78q0 14 -11 22.5t-28 8.5q-18 0 -29 -8.5t-11 -22.5h-77q-1 42 31.5 68t85.5 26q52 0 84.5 -26
t32.5 -68zM-609 -186h-77q0 30 -39 30q-17 0 -28.5 -8.5t-11.5 -21.5h-77q-1 42 31 68t85 26t85 -26t32 -68zM199 -186h-77q0 30 -39 30q-18 0 -29.5 -8.5t-11.5 -21.5h-76q-1 42 31 68t85 26t85 -26t32 -68zM-204 -353h-78q0 30 -39 30q-18 0 -29 -8.5t-11 -21.5h-77
q-1 42 31.5 68t85.5 26q52 0 84.5 -26t32.5 -68z" />
    <glyph glyph-name="uni0489" unicode="&#x489;" 
d="M-768 753v186h86v-186h-86zM-1101 580l-131 132l60 60l132 -132zM-219 712l-131 -132l-61 60l132 132zM-1214 222h-186v86h186v-86zM-51 222h-186v86h186v-86zM-278 -242l-132 131l60 61l132 -132zM-1041 -111l-132 -131l-60 60l132 132zM-768 -410v186h86v-186h-86z" />
    <glyph glyph-name="uni048A" unicode="&#x48a;" horiz-adv-x="761" 
d="M201 895h103q0 -27 19 -43.5t49 -16.5t48.5 16.5t18.5 43.5h103q0 -64 -47 -103.5t-124 -39.5t-123.5 39.5t-46.5 103.5zM84 0v700h129v-497h8l289 497h146v-584h83l-58 -251h-121l28 135h-62v521h-8l-300 -521h-134z" />
    <glyph glyph-name="uni048B" unicode="&#x48b;" horiz-adv-x="649" 
d="M144 720h104q0 -27 18.5 -44t48.5 -17t48.5 17t18.5 44h103q1 -65 -46 -104.5t-125 -39.5q-77 0 -123.5 39.5t-46.5 104.5zM75 0v520h121v-331h6l225 331h129v-422h73l-50 -226h-116l26 128h-55v359h-5l-241 -359h-113z" />
    <glyph glyph-name="uni048C" unicode="&#x48c;" horiz-adv-x="704" 
d="M135 705h130v-78h145v-106h-145v-89h163q108 0 174.5 -57.5t66.5 -153.5v-7q0 -97 -67.5 -155.5t-177.5 -58.5h-289v521h-119v106h119v78zM263 113h156q54 0 85.5 28t31.5 76v6q0 48 -32 75.5t-85 27.5h-156v-213z" />
    <glyph glyph-name="uni048D" unicode="&#x48d;" horiz-adv-x="549" 
d="M209 502v-134h127q80 0 132 -50t52 -126v-17q0 -76 -52.5 -125.5t-134.5 -49.5h-248v503h-69v84q32 10 69 15v118h124v-118h130v-100h-130zM206 96h111q33 0 56 23.5t23 58.5v13q0 35 -23 58.5t-56 23.5h-111v-177z" />
    <glyph glyph-name="uni048E" unicode="&#x48e;" horiz-adv-x="631" 
d="M84 0v700h256q114 0 184.5 -63t70.5 -167v-6q0 -91 -53 -152l47 -46l-57 -56l-54 52q-59 -31 -137 -31h-126v-231h-131zM212 339h119q34 0 62 11l-71 69l53 52l73 -72q14 28 14 63v6q0 55 -33.5 86t-94.5 31h-122v-246z" />
    <glyph glyph-name="uni048F" unicode="&#x48f;" horiz-adv-x="678" 
d="M75 -200v720h98q12 -34 15 -70q70 79 186 79h5q111 0 182.5 -73.5t71.5 -188.5v-14q0 -103 -57 -172l50 -44l-56 -58l-55 49q-59 -37 -136 -37h-5q-108 0 -175 69v-260h-124zM348 90h7q44 0 75 19l-78 71l51 53l78 -71q23 38 23 93v10q0 74 -41 119.5t-108 45.5h-7
q-66 0 -107.5 -45.5t-41.5 -119.5v-10q0 -74 41.5 -119.5t107.5 -45.5z" />
    <glyph glyph-name="uni0490" unicode="&#x490;" horiz-adv-x="490" 
d="M84 0v700h267v125h123v-241h-259v-584h-131z" />
    <glyph glyph-name="uni0491" unicode="&#x491;" horiz-adv-x="426" 
d="M75 0v520h217v109h117v-211h-210v-418h-124z" />
    <glyph glyph-name="uni0492" unicode="&#x492;" horiz-adv-x="519" 
d="M99 0v285h-69v103h69v312h404v-116h-273v-196h143v-103h-143v-285h-131z" />
    <glyph glyph-name="uni0493" unicode="&#x493;" horiz-adv-x="444" 
d="M85 0v197h-65v81q29 9 65 14v228h341v-102h-217v-125h127v-96h-127v-197h-124z" />
    <glyph glyph-name="uni0494" unicode="&#x494;" horiz-adv-x="654" 
d="M310 -81q27 -8 51 -8q46 0 72.5 33t26.5 95v153q0 123 -120 123q-58 0 -125 -26v-289h-131v700h404v-116h-273v-179q81 26 146 26q105 0 165.5 -61t60.5 -172v-166q0 -106 -53.5 -167.5t-139.5 -61.5q-46 0 -84 15v101z" />
    <glyph glyph-name="uni0495" unicode="&#x495;" horiz-adv-x="550" 
d="M75 0v520h345v-102h-221v-131q49 19 103 19q102 0 160.5 -60t58.5 -173v-33q0 -111 -54.5 -177.5t-145.5 -66.5q-44 0 -86 15v103q27 -9 55 -9q50 0 79.5 37t29.5 100v26q0 68 -31.5 103t-85.5 35q-49 0 -83 -20v-186h-124z" />
    <glyph glyph-name="uni0496" unicode="&#x496;" horiz-adv-x="895" 
d="M382 0v337h-9l-214 -337h-154l255 378l-224 322h142l195 -298h9v298h128v-298h9l195 298h142l-224 -322l177 -262h83v-251h-125v135h-34l-214 337h-9v-337h-128z" />
    <glyph glyph-name="uni0497" unicode="&#x497;" horiz-adv-x="751" 
d="M314 0v246h-11l-158 -246h-139l196 279l-183 241h131l155 -219h9v219h119v-219h9l155 219h131l-183 -241l128 -181h75v-226h-118v128h-28l-158 246h-11v-246h-119z" />
    <glyph glyph-name="uni0498" unicode="&#x498;" horiz-adv-x="622" 
d="M255 -135v129q-146 23 -233 151l108 66q74 -106 183 -106q59 0 94.5 27.5t35.5 73.5v3q0 45 -34 71.5t-94 26.5h-90v101h68q55 0 87 25.5t32 69.5v2q0 40 -31.5 65t-80.5 25q-99 0 -150 -95l-110 65q99 147 269 147q99 0 166 -51t67 -129v-8q0 -97 -93 -152
q61 -23 94.5 -70t33.5 -107v-7q0 -72 -55 -125t-142 -69v-129h-125z" />
    <glyph glyph-name="uni0499" unicode="&#x499;" horiz-adv-x="513" 
d="M201 -128v125q-118 22 -177 118l93 57q45 -82 141 -82h6q40 0 66 18.5t26 45.5v5q0 31 -23.5 47.5t-67.5 16.5h-75v84h71q35 0 55.5 17t20.5 44v4q0 25 -22.5 42t-59.5 17h-4q-87 0 -127 -76l-86 69q78 105 226 105h8q77 0 132.5 -39.5t55.5 -97.5v-11q0 -63 -74 -106
q43 -15 69 -50t26 -75v-8q0 -56 -46 -97.5t-118 -51.5v-121h-116z" />
    <glyph glyph-name="uni049A" unicode="&#x49a;" horiz-adv-x="661" 
d="M84 0v700h132v-298h6l260 298h152l-292 -322l219 -262h97v-251h-125v135h-36l-275 337h-6v-337h-132z" />
    <glyph glyph-name="uni049B" unicode="&#x49b;" horiz-adv-x="561" 
d="M75 0v520h124v-219h8l210 219h140l-240 -241l160 -181h87v-226h-118v128h-32l-207 246h-8v-246h-124z" />
    <glyph glyph-name="uni049C" unicode="&#x49c;" horiz-adv-x="685" 
d="M322 187h-77v142h-29v-329h-132v700h132v-290h29v142h77v-142h18l172 290h137l-207 -323l238 -377h-150l-193 329h-15v-142z" />
    <glyph glyph-name="uni049D" unicode="&#x49d;" horiz-adv-x="592" 
d="M302 117h-74v112h-29v-229h-124v520h124v-201h29v107h74v-107h17l130 201h127l-166 -239l178 -281h-134l-136 229h-16v-112z" />
    <glyph glyph-name="uni049E" unicode="&#x49e;" horiz-adv-x="673" 
d="M16 544v106h92v50h131v-50h93v-106h-93v-142h14l244 298h149l-275 -322l298 -378h-158l-259 337h-13v-337h-131v544h-92z" />
    <glyph glyph-name="uni049F" unicode="&#x49f;" horiz-adv-x="564" 
d="M85 0v550h-69v85q32 12 69 15v70h124v-70h146v-100h-146v-249h12l195 219h136l-225 -241l231 -279h-144l-195 246h-10v-246h-124z" />
    <glyph glyph-name="uni04A0" unicode="&#x4a0;" horiz-adv-x="705" 
d="M140 0v584h-139v116h270v-298h7l251 298h149l-281 -322l304 -378h-159l-265 337h-6v-337h-131z" />
    <glyph glyph-name="uni04A1" unicode="&#x4a1;" horiz-adv-x="602" 
d="M119 0v418h-105v102h229v-219h9l201 219h136l-227 -241l234 -279h-146l-198 246h-9v-246h-124z" />
    <glyph glyph-name="uni04A2" unicode="&#x4a2;" horiz-adv-x="733" 
d="M586 -135v135h-87v299h-284v-299h-131v700h131v-285h284v285h131v-584h81v-251h-125z" />
    <glyph glyph-name="uni04A3" unicode="&#x4a3;" horiz-adv-x="643" 
d="M503 -128v128h-79v222h-228v-222h-121v520h121v-198h228v198h124v-422h73v-226h-118z" />
    <glyph glyph-name="uni04A4" unicode="&#x4a4;" horiz-adv-x="903" 
d="M85 0v700h131v-285h282v285h390v-116h-259v-584h-131v299h-282v-299h-131z" />
    <glyph glyph-name="uni04A5" unicode="&#x4a5;" horiz-adv-x="776" 
d="M75 0v520h121v-198h229v198h334v-102h-210v-418h-124v222h-229v-222h-121z" />
    <glyph glyph-name="uni04A6" unicode="&#x4a6;" horiz-adv-x="1056" 
d="M713 -81q26 -8 50 -8q46 0 72.5 32.5t26.5 96.5v163q0 127 -120 127q-57 0 -124 -26v-304h-131v584h-272v-584h-131v700h534v-280q81 26 145 26q106 0 166.5 -62t60.5 -175v-179q0 -105 -54 -166t-140 -61q-45 0 -83 15v101z" />
    <glyph glyph-name="uni04A7" unicode="&#x4a7;" horiz-adv-x="890" 
d="M75 0v520h463v-225q49 19 104 19q102 0 160.5 -61t58.5 -175v-36q0 -112 -55 -179t-145 -67q-45 0 -86 15v103q25 -9 55 -9q50 0 79.5 37.5t29.5 100.5v31q0 69 -31.5 104t-86.5 35q-49 0 -83 -20v-193h-124v420h-215v-420h-124z" />
    <glyph glyph-name="uni04A8" unicode="&#x4a8;" horiz-adv-x="793" 
d="M430 706v-113q-27 5 -45 5q-95 0 -153.5 -68.5t-58.5 -177.5v-8q0 -109 60.5 -177.5t155.5 -68.5h11q-98 98 -98 232q0 110 63.5 182.5t161.5 72.5q100 0 162.5 -72.5t62.5 -184.5v-8q0 -128 -86 -222q41 2 70 9v-110q-34 -9 -74 -9q-67 0 -128 23q-61 -23 -131 -23h-14
q-151 0 -249.5 102.5t-98.5 256.5v6q0 154 97 256.5t242 102.5q23 0 50 -6zM531 129q93 66 93 197q0 66 -25 105t-71 39q-45 0 -70 -41t-25 -101q0 -64 26.5 -116.5t71.5 -82.5z" />
    <glyph glyph-name="uni04A9" unicode="&#x4a9;" horiz-adv-x="641" 
d="M585 94v-95q-24 -6 -63 -6q-48 0 -93 15q-46 -17 -96 -17h-19q-117 0 -193.5 72.5t-76.5 183.5v26q0 111 76 183.5t193 72.5q25 0 35 -2v-95q-10 2 -35 2q-63 0 -104 -46t-41 -119v-22q0 -70 39.5 -116.5t105.5 -50.5q-73 71 -73 164q0 81 50.5 131.5t128.5 50.5
q77 0 127.5 -50.5t50.5 -132.5q0 -89 -59 -158q25 2 47 9zM426 102q64 44 64 139q0 41 -20 65.5t-50 24.5q-32 0 -52 -24.5t-20 -65.5q0 -42 21 -79.5t57 -59.5z" />
    <glyph glyph-name="uni04AA" unicode="&#x4aa;" horiz-adv-x="687" 
d="M323 -135v129q-127 21 -204.5 118t-77.5 236v4q0 156 97 257.5t248 101.5q89 0 161 -40t118 -111l-100 -72q-61 103 -173 103h-1q-98 0 -156 -66t-58 -173v-5q0 -106 58.5 -172t154.5 -66h1q119 0 178 102l97 -71q-34 -57 -90.5 -95t-127.5 -51v-129h-125z" />
    <glyph glyph-name="uni04AB" unicode="&#x4ab;" horiz-adv-x="565" 
d="M251 -128v125q-94 17 -150.5 86.5t-56.5 169.5v16q0 113 74.5 186t188.5 73h6q149 0 224 -119l-92 -61q-43 81 -130 81h-3q-65 0 -102 -43.5t-37 -120.5v-10q0 -74 40 -118t104 -44h5q84 0 129 81l90 -67q-63 -94 -174 -111v-124h-116z" />
    <glyph glyph-name="uni04AC" unicode="&#x4ac;" horiz-adv-x="555" 
d="M299 -135v135h-87v584h-196v116h524v-116h-197v-468h81v-251h-125z" />
    <glyph glyph-name="uni04AD" unicode="&#x4ad;" horiz-adv-x="473" 
d="M251 -128v128h-76v418h-157v102h438v-102h-157v-320h70v-226h-118z" />
    <glyph glyph-name="uni04AE" unicode="&#x4ae;" horiz-adv-x="624" 
d="M247 0v273l-248 427h152l158 -298h6l158 298h151l-246 -427v-273h-131z" />
    <glyph glyph-name="uni04AF" unicode="&#x4af;" horiz-adv-x="562" 
d="M208 0l-194 520h131l132 -406h10l131 406h131l-195 -520h-11v-200h-124v200h-11z" />
    <glyph glyph-name="uni04B0" unicode="&#x4b0;" horiz-adv-x="624" 
d="M134 221v103h88l-223 376h152l158 -298h6l158 298h151l-222 -376h88v-103h-112v-221h-131v221h-113z" />
    <glyph glyph-name="uni04B1" unicode="&#x4b1;" horiz-adv-x="562" 
d="M118 -99v99h90l-194 520h131l132 -406h10l131 406h131l-195 -520h88v-99h-99v-101h-124v101h-101z" />
    <glyph glyph-name="uni04B2" unicode="&#x4b2;" horiz-adv-x="646" 
d="M517 -135v135h-36l-156 273h-8l-155 -273h-151l220 360v5l-207 335h151l142 -244h8l143 244h150l-207 -334v-5l150 -245h81v-251h-125z" />
    <glyph glyph-name="uni04B3" unicode="&#x4b3;" horiz-adv-x="545" 
d="M12 0l185 266v4l-178 250h142l113 -177h5l113 177h138l-176 -250v-4l116 -168h72v-226h-118v128h-28l-122 191h-4l-119 -191h-139z" />
    <glyph glyph-name="uni04B4" unicode="&#x4b4;" horiz-adv-x="810" 
d="M180 0v584h-164v116h451v-116h-157v-468h267v584h130v-584h81v-251h-125v135h-483z" />
    <glyph glyph-name="uni04B5" unicode="&#x4b5;" horiz-adv-x="711" 
d="M571 -128v128h-422v418h-131v102h382v-102h-127v-318h219v420h124v-422h73v-226h-118z" />
    <glyph glyph-name="uni04B6" unicode="&#x4b6;" horiz-adv-x="690" 
d="M543 -135v135h-87v276q-90 -27 -163 -27q-229 0 -229 220v231h132v-208q0 -70 29 -99.5t98 -29.5q59 0 133 25v312h130v-584h81v-251h-124z" />
    <glyph glyph-name="uni04B7" unicode="&#x4b7;" horiz-adv-x="599" 
d="M459 -128v128h-79v194q-72 -24 -137 -24q-92 0 -139.5 43.5t-47.5 124.5v182h122v-167q0 -82 87 -82q66 0 115 20v229h124v-422h73v-226h-118z" />
    <glyph glyph-name="uni04B8" unicode="&#x4b8;" horiz-adv-x="683" 
d="M468 0v276q-50 -15 -94 -21v-128h-78v122q-232 3 -232 220v231h132v-208q0 -62 23 -91.5t77 -35.5v127h78v-126q40 4 94 22v312h131v-700h-131z" />
    <glyph glyph-name="uni04B9" unicode="&#x4b9;" horiz-adv-x="598" 
d="M399 0v196q-42 -12 -71 -17v-106h-74v99q-97 1 -147.5 44t-50.5 124v180h122v-169q0 -74 76 -81v104h74v-102q36 4 71 17v231h124v-520h-124z" />
    <glyph glyph-name="uni04BA" unicode="&#x4ba;" horiz-adv-x="673" 
d="M215 700v-276q90 27 163 27q229 0 229 -220v-231h-132v208q0 70 -29 99.5t-98 29.5q-59 0 -133 -25v-312h-130v700h130z" />
    <glyph glyph-name="uni04BB" unicode="&#x4bb;" horiz-adv-x="636" 
d="M75 0v720h124v-267q74 77 187 77q88 0 136 -52t48 -146v-332h-124v306q0 116 -107 116q-64 0 -102 -36t-38 -98v-288h-124z" />
    <glyph glyph-name="uni04BC" unicode="&#x4bc;" horiz-adv-x="886" 
d="M855 297h-539q13 -88 71 -140t146 -52q125 0 187 102l99 -72q-47 -70 -124.5 -108t-171.5 -38q-141 0 -233.5 84t-106.5 225h-17q-74 0 -117 37t-43 101q0 56 19 97h103q-14 -31 -14 -66q0 -36 15.5 -51t52.5 -15h1q15 138 106.5 224t228.5 86q148 0 242.5 -101.5
t94.5 -257.5v-55zM314 399h406q-12 89 -67.5 142.5t-136.5 53.5q-85 0 -138 -53t-64 -143z" />
    <glyph glyph-name="uni04BD" unicode="&#x4bd;" horiz-adv-x="720" 
d="M27 436h98q-13 -27 -13 -65q0 -31 12.5 -45t42.5 -17q14 98 85 159t172 61h6q107 0 176 -67.5t69 -172.5v-69h-390q8 -57 48 -91.5t101 -34.5h5q45 0 85 19t64 48l69 -74q-37 -44 -97.5 -70t-124.5 -26h-9q-109 0 -179.5 63t-81.5 165q-72 2 -114 36t-42 92q0 48 18 89z
M287 305h269v1q-4 56 -39.5 91t-91.5 35h-1q-54 0 -90.5 -34t-46.5 -93z" />
    <glyph glyph-name="uni04BE" unicode="&#x4be;" horiz-adv-x="886" 
d="M855 297h-539q13 -88 71 -140t146 -52q125 0 187 102l99 -72q-81 -119 -233 -141v-129h-125v128q-117 19 -191 100.5t-87 204.5h-17q-74 0 -117 37t-43 101q0 56 19 97h103q-14 -31 -14 -66q0 -36 15.5 -51t52.5 -15h1q15 138 106.5 224t228.5 86q148 0 242.5 -101.5
t94.5 -257.5v-55zM314 399h406q-12 89 -67.5 142.5t-136.5 53.5q-85 0 -138 -53t-64 -143z" />
    <glyph glyph-name="uni04BF" unicode="&#x4bf;" horiz-adv-x="720" 
d="M372 -128v123q-87 15 -142.5 75t-64.5 149q-72 2 -114 36t-42 92q0 48 18 89h98q-13 -27 -13 -65q0 -31 12.5 -45t42.5 -17q14 98 85 159t172 61h6q107 0 176 -67.5t69 -172.5v-69h-390q8 -57 48 -91.5t101 -34.5h5q45 0 85 19t64 48l69 -74q-63 -74 -173 -92v-123h-112z
M287 305h269v1q-4 56 -39.5 91t-91.5 35h-1q-54 0 -90.5 -34t-46.5 -93z" />
    <glyph glyph-name="uni04C0" unicode="&#x4c0;" horiz-adv-x="300" 
d="M84 0v700h131v-700h-131z" />
    <glyph glyph-name="uni04C1" unicode="&#x4c1;" horiz-adv-x="892" 
d="M277 883h103q0 -28 19 -44.5t49 -16.5t48.5 17t18.5 44h103q0 -65 -47 -104.5t-124 -39.5t-123.5 39.5t-46.5 104.5zM382 0v337h-9l-214 -337h-154l255 378l-224 322h142l195 -298h9v298h128v-298h9l195 298h142l-224 -322l255 -378h-154l-214 337h-9v-337h-128z" />
    <glyph glyph-name="uni04C2" unicode="&#x4c2;" horiz-adv-x="747" 
d="M202 721h104q0 -28 19 -44.5t49 -16.5q29 0 47.5 16.5t18.5 44.5h104q0 -65 -47 -104.5t-125 -39.5q-77 0 -123.5 39.5t-46.5 104.5zM314 0v246h-11l-158 -246h-139l196 279l-183 241h131l155 -219h9v219h119v-219h9l155 219h131l-183 -241l196 -279h-139l-158 246h-11
v-246h-119z" />
    <glyph glyph-name="uni04C3" unicode="&#x4c3;" horiz-adv-x="689" 
d="M84 0v700h132v-318h33l212 318h145l-225 -315q111 -17 174 -91t63 -189v-79q0 -102 -56 -162.5t-149 -60.5q-47 0 -88 15v101q27 -8 56 -8q52 0 80.5 32t28.5 92v61q0 88 -51.5 136.5t-141.5 48.5h-81v-281h-132z" />
    <glyph glyph-name="uni04C4" unicode="&#x4c4;" horiz-adv-x="569" 
d="M306 -95q50 0 79.5 37t29.5 100v31q0 68 -35 102.5t-94 34.5h-87v-210h-124v520h124v-227q13 5 43 11l178 216h135l-185 -218q78 -17 122.5 -75t44.5 -151v-37q0 -110 -55 -176.5t-145 -66.5q-45 0 -86 15v103q25 -9 55 -9z" />
    <glyph glyph-name="uni04C5" unicode="&#x4c5;" horiz-adv-x="718" 
d="M79 -11q-37 0 -67 12v112q22 -9 45 -9q56 0 72.5 68.5t20.5 269.5l7 258h457v-584h82l-57 -251h-122l28 135h-62v584h-202l-3 -144q-2 -87 -5.5 -145t-11.5 -113.5t-21.5 -88t-35 -58t-52.5 -36t-73 -10.5z" />
    <glyph glyph-name="uni04C6" unicode="&#x4c6;" horiz-adv-x="602" 
d="M73 -9q-33 0 -59 10v100q16 -8 37 -8q38 0 50 38t14 154l1 235h393v-422h72l-50 -226h-116l26 128h-56v420h-153l-2 -132q-3 -171 -38.5 -234t-118.5 -63z" />
    <glyph glyph-name="uni04C7" unicode="&#x4c7;" horiz-adv-x="724" 
d="M509 -8v307h-294v-299h-131v700h131v-285h294v285h131v-735q0 -80 -39 -124.5t-113 -44.5q-50 0 -94 18v110q23 -11 52 -11q34 0 48.5 18t14.5 61z" />
    <glyph glyph-name="uni04C8" unicode="&#x4c8;" horiz-adv-x="630" 
d="M431 -16v238h-235v-222h-121v520h121v-198h235v198h124v-556q0 -78 -39.5 -123t-108.5 -45q-55 0 -97 18v103q25 -11 54 -11q37 0 52 18t15 60z" />
    <glyph glyph-name="uni04C9" unicode="&#x4c9;" horiz-adv-x="735" 
d="M84 0v700h131v-285h284v285h131v-584h83l-58 -251h-121l27 135h-62v299h-284v-299h-131z" />
    <glyph glyph-name="uni04CA" unicode="&#x4ca;" horiz-adv-x="642" 
d="M75 0v520h121v-198h229v198h124v-422h73l-50 -226h-116l26 128h-57v222h-229v-222h-121z" />
    <glyph glyph-name="uni04CB" unicode="&#x4cb;" horiz-adv-x="671" 
d="M499 -135h-124v251h81v164q-90 -27 -163 -27q-229 0 -229 220v227h132v-204q0 -70 29 -99.5t98 -29.5q59 0 133 25v308h130v-700h-87v-135z" />
    <glyph glyph-name="uni04CC" unicode="&#x4cc;" horiz-adv-x="579" 
d="M426 -128h-118v215h72v115q-72 -24 -137 -24q-92 0 -139.5 43.5t-47.5 124.5v174h122v-159q0 -82 87 -82q66 0 115 20v221h124v-520h-78v-128z" />
    <glyph glyph-name="uni04CD" unicode="&#x4cd;" horiz-adv-x="901" 
d="M85 0v700h188l163 -435h9l163 435h188v-584h83l-58 -251h-121l28 135h-60v540h-7l-169 -445h-103l-169 445h-7v-540h-128z" />
    <glyph glyph-name="uni04CE" unicode="&#x4ce;" horiz-adv-x="733" 
d="M75 0v520h131l147 -305h9l147 305h131v-422h72l-50 -226h-116l26 128h-51v327h-9l-122 -242h-66l-122 245h-8v-330h-119z" />
    <glyph glyph-name="uni04CF" unicode="&#x4cf;" horiz-adv-x="274" 
d="M74 0v720h124v-720h-124z" />
    <glyph glyph-name="uni04D0" unicode="&#x4d0;" horiz-adv-x="662" 
d="M161 883h103q0 -28 19 -44.5t49 -16.5t48.5 17t18.5 44h103q0 -65 -47 -104.5t-124 -39.5t-123.5 39.5t-46.5 104.5zM-2 0l247 700h172l246 -700h-140l-56 165h-273l-55 -165h-141zM226 273h209l-100 296h-8z" />
    <glyph glyph-name="uni04D1" unicode="&#x4d1;" horiz-adv-x="586" 
d="M117 721h104q0 -28 19 -44.5t49 -16.5q29 0 47.5 16.5t18.5 44.5h104q0 -65 -47 -104.5t-125 -39.5q-77 0 -123.5 39.5t-46.5 104.5zM220 -10q-81 0 -131.5 43t-50.5 112v7q0 169 314 169h42v23q0 38 -28.5 61t-79.5 23h-3q-85 0 -169 -53l-51 90q106 66 227 66h6
q99 0 157 -50.5t58 -138.5v-235q0 -46 18 -107h-118q-9 24 -14 62q-72 -72 -177 -72zM245 90q90 0 149 64v87h-35q-201 0 -201 -83v-4q0 -28 24 -46t63 -18z" />
    <glyph glyph-name="uni04D2" unicode="&#x4d2;" horiz-adv-x="662" 
d="M215 755q-28 0 -46 16.5t-18 43.5t18 45t46 18q29 0 48 -18t19 -45t-19 -43.5t-48 -16.5zM444 755q-29 0 -46.5 16.5t-17.5 43.5t18 45t46 18q29 0 48 -18t19 -45t-19 -43.5t-48 -16.5zM-2 0l247 700h172l246 -700h-140l-56 165h-273l-55 -165h-141zM226 273h209
l-100 296h-8z" />
    <glyph glyph-name="uni04D3" unicode="&#x4d3;" horiz-adv-x="586" 
d="M394 595q-28 0 -46 17.5t-18 44.5t18 44.5t46 17.5q29 0 48 -17.5t19 -44.5t-19 -44.5t-48 -17.5zM181 595q-28 0 -46.5 17.5t-18.5 44.5t18.5 44.5t46.5 17.5t47 -17.5t19 -44.5t-19 -44.5t-47 -17.5zM220 -10q-81 0 -131.5 43t-50.5 112v7q0 169 314 169h42v23
q0 38 -28.5 61t-79.5 23h-3q-85 0 -169 -53l-51 90q106 66 227 66h6q99 0 157 -50.5t58 -138.5v-235q0 -46 18 -107h-118q-9 24 -14 62q-72 -72 -177 -72zM245 90q90 0 149 64v87h-35q-201 0 -201 -83v-4q0 -28 24 -46t63 -18z" />
    <glyph glyph-name="uni04D4" unicode="&#x4d4;" horiz-adv-x="853" 
d="M-2 0l247 700h545v-116h-279v-175h259v-110h-259v-183h289v-116h-415v165h-190l-56 -165h-141zM228 273h157v311h-53z" />
    <glyph glyph-name="uni04D5" unicode="&#x4d5;" horiz-adv-x="897" 
d="M217 -9q-79 0 -129 42.5t-50 111.5q0 164 293 164h41q0 26 -6 40q-8 77 -92 77q-78 0 -160 -52l-51 89q101 66 213 66t164 -71q68 71 172 71h5q102 0 168 -67.5t66 -171.5v-68h-367q7 -57 44.5 -92t93.5 -35h3q41 0 78.5 18.5t60.5 48.5l69 -75q-36 -43 -94 -69.5
t-119 -26.5h-8q-120 0 -193 87q-36 -39 -90.5 -63t-111.5 -24zM483 305h258q-5 56 -39 91.5t-87 35.5h-1q-50 0 -85.5 -34.5t-45.5 -92.5zM378 156q-7 18 -10 38q-1 3 -3 35h-24q-183 0 -183 -77q0 -27 23 -44t61 -17t75 17.5t61 47.5z" />
    <glyph glyph-name="uni04D6" unicode="&#x4d6;" horiz-adv-x="580" 
d="M135 883h103q0 -28 19 -44.5t49 -16.5t48.5 17t18.5 44h103q0 -65 -47 -104.5t-124 -39.5t-123.5 39.5t-46.5 104.5zM84 0v700h432v-116h-301v-175h281v-110h-281v-183h311v-116h-442z" />
    <glyph glyph-name="uni04D7" unicode="&#x4d7;" horiz-adv-x="610" 
d="M145 721h104q0 -28 19 -44.5t49 -16.5q29 0 47.5 16.5t18.5 44.5h104q0 -65 -47 -104.5t-125 -39.5q-77 0 -123.5 39.5t-46.5 104.5zM312 -9q-119 0 -193.5 72t-74.5 187v14q0 115 75.5 190t190.5 75h6q108 0 178 -67.5t70 -172.5v-67h-397v-1q7 -57 48.5 -91.5
t104.5 -34.5h5q47 0 88 19t64 48l69 -75q-36 -44 -98 -70t-127 -26h-9zM170 305h276q-5 56 -42 91.5t-93 35.5h-1q-54 0 -91.5 -34.5t-48.5 -92.5z" />
    <glyph glyph-name="uni04D8" unicode="&#x4d8;" horiz-adv-x="749" 
d="M31 403h542q-11 88 -63.5 140t-135.5 52h-2q-135 0 -202 -107l-100 72q48 71 127 111t182 40q140 0 234.5 -101.5t94.5 -257.5v-4q0 -156 -94.5 -257.5t-243.5 -101.5h-1q-148 0 -242.5 101t-95.5 256v57zM574 301h-408q11 -89 66 -143t137 -54h2q85 0 138.5 53.5
t64.5 143.5z" />
    <glyph glyph-name="uni04D9" unicode="&#x4d9;" horiz-adv-x="610" 
d="M297 529q119 0 194 -72t75 -187v-14q0 -114 -76 -189.5t-190 -75.5h-6q-109 0 -178.5 67.5t-69.5 172.5v67h397v1q-8 57 -49.5 91.5t-104.5 34.5h-4q-47 0 -88 -18.5t-65 -48.5l-68 75q36 44 98 70t127 26h8zM439 215h-275q4 -56 41 -91.5t93 -35.5h2q54 0 91.5 34.5
t47.5 92.5z" />
    <glyph glyph-name="uni04DA" unicode="&#x4da;" horiz-adv-x="749" 
d="M257 755q-28 0 -46 16.5t-18 43.5t18 45t46 18q29 0 48 -18t19 -45t-19 -43.5t-48 -16.5zM486 755q-29 0 -46.5 16.5t-17.5 43.5t18 45t46 18q29 0 48 -18t19 -45t-19 -43.5t-48 -16.5zM31 403h542q-11 88 -63.5 140t-135.5 52h-2q-135 0 -202 -107l-100 72
q48 71 127 111t182 40q140 0 234.5 -101.5t94.5 -257.5v-4q0 -156 -94.5 -257.5t-243.5 -101.5h-1q-148 0 -242.5 101t-95.5 256v57zM574 301h-408q11 -89 66 -143t137 -54h2q85 0 138.5 53.5t64.5 143.5z" />
    <glyph glyph-name="uni04DB" unicode="&#x4db;" horiz-adv-x="610" 
d="M411 595q-28 0 -46 17.5t-18 44.5t18 44.5t46 17.5q29 0 48 -17.5t19 -44.5t-19 -44.5t-48 -17.5zM198 595q-28 0 -46.5 17.5t-18.5 44.5t18.5 44.5t46.5 17.5t47 -17.5t19 -44.5t-19 -44.5t-47 -17.5zM297 529q119 0 194 -72t75 -187v-14q0 -114 -76 -189.5t-190 -75.5
h-6q-109 0 -178.5 67.5t-69.5 172.5v67h397v1q-8 57 -49.5 91.5t-104.5 34.5h-4q-47 0 -88 -18.5t-65 -48.5l-68 75q36 44 98 70t127 26h8zM439 215h-275q4 -56 41 -91.5t93 -35.5h2q54 0 91.5 34.5t47.5 92.5z" />
    <glyph glyph-name="uni04DC" unicode="&#x4dc;" horiz-adv-x="892" 
d="M330 755q-28 0 -46 16.5t-18 43.5t18 45t46 18q29 0 48 -18t19 -45t-19 -43.5t-48 -16.5zM559 755q-29 0 -46.5 16.5t-17.5 43.5t18 45t46 18q29 0 48 -18t19 -45t-19 -43.5t-48 -16.5zM382 0v337h-9l-214 -337h-154l255 378l-224 322h142l195 -298h9v298h128v-298h9
l195 298h142l-224 -322l255 -378h-154l-214 337h-9v-337h-128z" />
    <glyph glyph-name="uni04DD" unicode="&#x4dd;" horiz-adv-x="747" 
d="M479 595q-28 0 -46 17.5t-18 44.5t18 44.5t46 17.5q29 0 48 -17.5t19 -44.5t-19 -44.5t-48 -17.5zM266 595q-28 0 -46.5 17.5t-18.5 44.5t18.5 44.5t46.5 17.5t47 -17.5t19 -44.5t-19 -44.5t-47 -17.5zM314 0v246h-11l-158 -246h-139l196 279l-183 241h131l155 -219h9
v219h119v-219h9l155 219h131l-183 -241l196 -279h-139l-158 246h-11v-246h-119z" />
    <glyph glyph-name="uni04DE" unicode="&#x4de;" horiz-adv-x="622" 
d="M188 755q-28 0 -46 16.5t-18 43.5t18 45t46 18q29 0 48 -18t19 -45t-19 -43.5t-48 -16.5zM417 755q-29 0 -46.5 16.5t-17.5 43.5t18 45t46 18q29 0 48 -18t19 -45t-19 -43.5t-48 -16.5zM318 -11q-190 0 -296 156l108 66q74 -106 183 -106q59 0 94.5 27.5t35.5 73.5v3
q0 45 -34 71.5t-94 26.5h-90v101h68q55 0 87 25.5t32 69.5v2q0 40 -31.5 65t-80.5 25q-99 0 -150 -95l-110 65q99 147 269 147q99 0 166 -51t67 -129v-8q0 -97 -93 -152q61 -23 94.5 -70t33.5 -107v-7q0 -85 -74.5 -142t-184.5 -57z" />
    <glyph glyph-name="uni04DF" unicode="&#x4df;" horiz-adv-x="513" 
d="M366 595q-28 0 -46 17.5t-18 44.5t18 44.5t46 17.5q29 0 48 -17.5t19 -44.5t-19 -44.5t-48 -17.5zM153 595q-28 0 -46.5 17.5t-18.5 44.5t18.5 44.5t46.5 17.5t47 -17.5t19 -44.5t-19 -44.5t-47 -17.5zM271 -9q-170 0 -247 124l93 57q45 -82 141 -82h6q40 0 66 18.5
t26 45.5v5q0 31 -23.5 47.5t-67.5 16.5h-75v84h71q35 0 55.5 17t20.5 44v4q0 25 -22.5 42t-59.5 17h-4q-87 0 -127 -76l-86 69q78 105 226 105h8q77 0 132.5 -39.5t55.5 -97.5v-11q0 -63 -74 -106q43 -15 69 -50t26 -75v-8q0 -63 -58 -107t-143 -44h-9z" />
    <glyph glyph-name="uni04E0" unicode="&#x4e0;" horiz-adv-x="602" 
d="M308 -11q-190 0 -296 156l108 66q74 -106 183 -106q59 0 94.5 29t35.5 78v3q0 48 -34 76t-94 28h-118v89l181 171v5h-310v116h475v-98l-189 -185q223 -21 223 -210v-7q0 -95 -73.5 -153t-185.5 -58z" />
    <glyph glyph-name="uni04E1" unicode="&#x4e1;" horiz-adv-x="517" 
d="M250 -200q-168 0 -242 128l93 56q41 -83 138 -83h8q49 0 84 35t35 89v12q0 59 -35.5 92t-97.5 33h-87v66l173 186v6h-274v100h407v-100l-162 -169q90 -9 147.5 -62t57.5 -145v-10q0 -106 -68.5 -170t-167.5 -64h-9z" />
    <glyph glyph-name="uni04E2" unicode="&#x4e2;" horiz-adv-x="741" 
d="M224 771v88h293v-88h-293zM84 0v700h129v-497h8l289 497h146v-700h-130v521h-8l-300 -521h-134z" />
    <glyph glyph-name="uni04E3" unicode="&#x4e3;" horiz-adv-x="641" 
d="M174 607v92h293v-92h-293zM75 0v520h121v-331h6l235 331h129v-520h-122v359h-5l-251 -359h-113z" />
    <glyph glyph-name="uni04E4" unicode="&#x4e4;" horiz-adv-x="741" 
d="M254 755q-28 0 -46 16.5t-18 43.5t18 45t46 18q29 0 48 -18t19 -45t-19 -43.5t-48 -16.5zM483 755q-29 0 -46.5 16.5t-17.5 43.5t18 45t46 18q29 0 48 -18t19 -45t-19 -43.5t-48 -16.5zM84 0v700h129v-497h8l289 497h146v-700h-130v521h-8l-300 -521h-134z" />
    <glyph glyph-name="uni04E5" unicode="&#x4e5;" horiz-adv-x="641" 
d="M426 595q-28 0 -46 17.5t-18 44.5t18 44.5t46 17.5q29 0 48 -17.5t19 -44.5t-19 -44.5t-48 -17.5zM213 595q-28 0 -46.5 17.5t-18.5 44.5t18.5 44.5t46.5 17.5t47 -17.5t19 -44.5t-19 -44.5t-47 -17.5zM75 0v520h121v-331h6l235 331h129v-520h-122v359h-5l-251 -359h-113
z" />
    <glyph glyph-name="uni04E6" unicode="&#x4e6;" horiz-adv-x="779" 
d="M274 755q-28 0 -46 16.5t-18 43.5t18 45t46 18q29 0 48 -18t19 -45t-19 -43.5t-48 -16.5zM503 755q-29 0 -46.5 16.5t-17.5 43.5t18 45t46 18q29 0 48 -18t19 -45t-19 -43.5t-48 -16.5zM41 347v6q0 155 97.5 257t247.5 102h7q150 0 247.5 -101.5t97.5 -256.5v-8
q0 -154 -97.5 -256t-247.5 -102h-7q-149 0 -247 102.5t-98 256.5zM177 347q0 -107 59 -174t151 -67h7q91 0 149.5 67t58.5 174v6q0 108 -58.5 175t-150.5 67h-7q-91 0 -150 -67.5t-59 -174.5v-6z" />
    <glyph glyph-name="uni04E7" unicode="&#x4e7;" horiz-adv-x="646" 
d="M429 595q-28 0 -46 17.5t-18 44.5t18 44.5t46 17.5q29 0 48 -17.5t19 -44.5t-19 -44.5t-48 -17.5zM216 595q-28 0 -46.5 17.5t-18.5 44.5t18.5 44.5t46.5 17.5t47 -17.5t19 -44.5t-19 -44.5t-47 -17.5zM319 -9q-120 0 -197.5 73.5t-77.5 188.5v14q0 115 77.5 188.5
t197.5 73.5h8q120 0 197.5 -73.5t77.5 -188.5v-14q0 -115 -77.5 -188.5t-197.5 -73.5h-8zM320 89h6q64 0 105.5 46.5t41.5 119.5v10q0 73 -41.5 119.5t-105.5 46.5h-6q-64 0 -105 -46.5t-41 -119.5v-10q0 -73 41 -119.5t105 -46.5z" />
    <glyph glyph-name="uni04E8" unicode="&#x4e8;" horiz-adv-x="779" 
d="M41 347v6q0 155 97.5 257t247.5 102h7q150 0 247.5 -101.5t97.5 -256.5v-8q0 -154 -97.5 -256t-247.5 -102h-7q-149 0 -247 102.5t-98 256.5zM181 401h418q-14 88 -69.5 141t-136.5 53h-7q-80 0 -136 -53t-69 -141zM599 301h-418q12 -88 68.5 -141.5t137.5 -53.5h7
q80 0 136 53.5t69 141.5z" />
    <glyph glyph-name="uni04E9" unicode="&#x4e9;" horiz-adv-x="646" 
d="M319 -9q-120 0 -197.5 73.5t-77.5 188.5v14q0 115 77.5 188.5t197.5 73.5h8q120 0 197.5 -73.5t77.5 -188.5v-14q0 -115 -77.5 -188.5t-197.5 -73.5h-8zM176 303h294q-10 60 -49 96t-95 36h-6q-55 0 -94.5 -36.5t-49.5 -95.5zM176 220q9 -61 49.5 -98t100.5 -37
q57 0 96.5 37t47.5 98h-294z" />
    <glyph glyph-name="uni04EA" unicode="&#x4ea;" horiz-adv-x="779" 
d="M274 755q-28 0 -46 16.5t-18 43.5t18 45t46 18q29 0 48 -18t19 -45t-19 -43.5t-48 -16.5zM503 755q-29 0 -46.5 16.5t-17.5 43.5t18 45t46 18q29 0 48 -18t19 -45t-19 -43.5t-48 -16.5zM41 347v6q0 155 97.5 257t247.5 102h7q150 0 247.5 -101.5t97.5 -256.5v-8
q0 -154 -97.5 -256t-247.5 -102h-7q-149 0 -247 102.5t-98 256.5zM181 401h418q-14 88 -69.5 141t-136.5 53h-7q-80 0 -136 -53t-69 -141zM599 301h-418q12 -88 68.5 -141.5t137.5 -53.5h7q80 0 136 53.5t69 141.5z" />
    <glyph glyph-name="uni04EB" unicode="&#x4eb;" horiz-adv-x="646" 
d="M429 595q-28 0 -46 17.5t-18 44.5t18 44.5t46 17.5q29 0 48 -17.5t19 -44.5t-19 -44.5t-48 -17.5zM216 595q-28 0 -46.5 17.5t-18.5 44.5t18.5 44.5t46.5 17.5t47 -17.5t19 -44.5t-19 -44.5t-47 -17.5zM319 -9q-120 0 -197.5 73.5t-77.5 188.5v14q0 115 77.5 188.5
t197.5 73.5h8q120 0 197.5 -73.5t77.5 -188.5v-14q0 -115 -77.5 -188.5t-197.5 -73.5h-8zM176 303h294q-10 60 -49 96t-95 36h-6q-55 0 -94.5 -36.5t-49.5 -95.5zM176 220q9 -61 49.5 -98t100.5 -37q57 0 96.5 37t47.5 98h-294z" />
    <glyph glyph-name="uni04EC" unicode="&#x4ec;" horiz-adv-x="693" 
d="M191 755q-28 0 -46 16.5t-18 43.5t18 45t46 18q29 0 48 -18t19 -45t-19 -43.5t-48 -16.5zM420 755q-29 0 -46.5 16.5t-17.5 43.5t18 45t46 18q29 0 48 -18t19 -45t-19 -43.5t-48 -16.5zM306 -11h-1q-91 0 -166.5 41t-116.5 110l97 71q29 -50 77.5 -77.5t108.5 -27.5h1
q86 0 142.5 53t68.5 142h-302v106h301q-14 86 -69.5 137t-138.5 51h-2q-118 0 -183 -107l-100 72q46 70 120 110.5t164 40.5q151 0 248 -101.5t97 -257.5v-4q0 -156 -97 -257.5t-249 -101.5z" />
    <glyph glyph-name="uni04ED" unicode="&#x4ed;" horiz-adv-x="571" 
d="M363 595q-28 0 -46 17.5t-18 44.5t18 44.5t46 17.5q29 0 48 -17.5t19 -44.5t-19 -44.5t-48 -17.5zM150 595q-28 0 -46.5 17.5t-18.5 44.5t18.5 44.5t46.5 17.5t47 -17.5t19 -44.5t-19 -44.5t-47 -17.5zM262 -8h-8q-151 0 -230 115l90 67q47 -82 136 -82h5q58 0 97 34
t49 92h-218v84h218q-9 61 -46.5 94.5t-95.5 33.5h-3q-91 0 -136 -82l-92 61q75 119 226 119h7q115 0 190.5 -73t75.5 -186v-16q0 -115 -73.5 -188t-191.5 -73z" />
    <glyph glyph-name="uni04EE" unicode="&#x4ee;" horiz-adv-x="614" 
d="M174 771v88h293v-88h-293zM215 -12q-54 0 -102 21v111q38 -21 80 -21q53 0 74 38l-258 563h142l178 -424h10l138 424h132l-209 -569q-26 -74 -70 -108.5t-115 -34.5z" />
    <glyph glyph-name="uni04EF" unicode="&#x4ef;" horiz-adv-x="558" 
d="M139 607v92h293v-92h-293zM156 -201q-59 0 -96 19v106q40 -20 72 -20q61 0 102 73l-225 543h132l153 -399h7l127 399h126l-191 -549q-59 -172 -207 -172z" />
    <glyph glyph-name="uni04F0" unicode="&#x4f0;" horiz-adv-x="614" 
d="M205 755q-28 0 -46 16.5t-18 43.5t18 45t46 18q29 0 48 -18t19 -45t-19 -43.5t-48 -16.5zM434 755q-29 0 -46.5 16.5t-17.5 43.5t18 45t46 18q29 0 48 -18t19 -45t-19 -43.5t-48 -16.5zM215 -12q-54 0 -102 21v111q38 -21 80 -21q53 0 74 38l-258 563h142l178 -424h10
l138 424h132l-209 -569q-26 -74 -70 -108.5t-115 -34.5z" />
    <glyph glyph-name="uni04F1" unicode="&#x4f1;" horiz-adv-x="558" 
d="M391 595q-28 0 -46 17.5t-18 44.5t18 44.5t46 17.5q29 0 48 -17.5t19 -44.5t-19 -44.5t-48 -17.5zM178 595q-28 0 -46.5 17.5t-18.5 44.5t18.5 44.5t46.5 17.5t47 -17.5t19 -44.5t-19 -44.5t-47 -17.5zM156 -201q-59 0 -96 19v106q40 -20 72 -20q61 0 102 73l-225 543
h132l153 -399h7l127 399h126l-191 -549q-59 -172 -207 -172z" />
    <glyph glyph-name="uni04F2" unicode="&#x4f2;" horiz-adv-x="614" 
d="M284 742h-100l52 147h119zM455 742h-100l52 147h119zM215 -12q-54 0 -102 21v111q38 -21 80 -21q53 0 74 38l-258 563h142l178 -424h10l138 424h132l-209 -569q-26 -74 -70 -108.5t-115 -34.5z" />
    <glyph glyph-name="uni04F3" unicode="&#x4f3;" horiz-adv-x="558" 
d="M152 575l46 155h114l-66 -155h-94zM321 575l46 155h114l-65 -155h-95zM156 -201q-59 0 -96 19v106q40 -20 72 -20q61 0 102 73l-225 543h132l153 -399h7l127 399h126l-191 -549q-59 -172 -207 -172z" />
    <glyph glyph-name="uni04F4" unicode="&#x4f4;" horiz-adv-x="671" 
d="M210 755q-28 0 -46 16.5t-18 43.5t18 45t46 18q29 0 48 -18t19 -45t-19 -43.5t-48 -16.5zM439 755q-29 0 -46.5 16.5t-17.5 43.5t18 45t46 18q29 0 48 -18t19 -45t-19 -43.5t-48 -16.5zM456 0v276q-90 -27 -163 -27q-229 0 -229 220v231h132v-208q0 -70 29 -99.5
t98 -29.5q59 0 133 25v312h130v-700h-130z" />
    <glyph glyph-name="uni04F5" unicode="&#x4f5;" horiz-adv-x="579" 
d="M386 595q-28 0 -46 17.5t-18 44.5t18 44.5t46 17.5q29 0 48 -17.5t19 -44.5t-19 -44.5t-48 -17.5zM173 595q-28 0 -46.5 17.5t-18.5 44.5t18.5 44.5t46.5 17.5t47 -17.5t19 -44.5t-19 -44.5t-47 -17.5zM380 0v194q-72 -24 -137 -24q-92 0 -139.5 43.5t-47.5 124.5v182
h122v-167q0 -82 87 -82q66 0 115 20v229h124v-520h-124z" />
    <glyph glyph-name="uni04F6" unicode="&#x4f6;" horiz-adv-x="504" 
d="M180 -135v135h-96v700h404v-116h-273v-468h89v-251h-124z" />
    <glyph glyph-name="uni04F7" unicode="&#x4f7;" horiz-adv-x="434" 
d="M158 -128v128h-83v520h341v-102h-217v-320h77v-226h-118z" />
    <glyph glyph-name="uni04F8" unicode="&#x4f8;" horiz-adv-x="878" 
d="M323 755q-28 0 -46 16.5t-18 43.5t18 45t46 18q29 0 48 -18t19 -45t-19 -43.5t-48 -16.5zM552 755q-29 0 -46.5 16.5t-17.5 43.5t18 45t46 18q29 0 48 -18t19 -45t-19 -43.5t-48 -16.5zM84 0v700h131v-243h123q112 0 180 -60.5t68 -163.5v-6q0 -103 -68 -165t-180 -62
h-254zM663 0v700h131v-700h-131zM212 113h107q66 0 101 30.5t35 86.5v5q0 55 -35 84.5t-101 29.5h-107v-236z" />
    <glyph glyph-name="uni04F9" unicode="&#x4f9;" horiz-adv-x="773" 
d="M492 595q-28 0 -46 17.5t-18 44.5t18 44.5t46 17.5q29 0 48 -17.5t19 -44.5t-19 -44.5t-48 -17.5zM279 595q-28 0 -46.5 17.5t-18.5 44.5t18.5 44.5t46.5 17.5t47 -17.5t19 -44.5t-19 -44.5t-47 -17.5zM75 0v520h124v-167h112q78 0 128.5 -47.5t50.5 -120.5v-17
q0 -72 -51.5 -120t-130.5 -48h-233zM574 0v520h124v-520h-124zM195 95h96q32 0 54 22t22 55v10q0 34 -21.5 55.5t-54.5 21.5h-96v-164z" />
    <glyph glyph-name="uni04FA" unicode="&#x4fa;" horiz-adv-x="519" 
d="M99 0v299h-69v103h69v298h404v-116h-273v-182h151v-103h-151v-183h125v-151q0 -80 -38 -124.5t-109 -44.5q-49 0 -93 18v106q25 -11 54 -11q36 0 50.5 19t14.5 64l5 8h-140z" />
    <glyph glyph-name="uni04FB" unicode="&#x4fb;" horiz-adv-x="444" 
d="M92 -183v98q27 -12 53 -12q34 0 50 19.5t16 60.5l5 17h-131v223h-65v73q36 11 65 14v210h341v-100h-217v-108h127v-89h-127v-125h112v-134q0 -78 -36.5 -121.5t-101.5 -43.5q-51 0 -91 18z" />
    <glyph glyph-name="uni04FC" unicode="&#x4fc;" horiz-adv-x="638" 
d="M615 -41q0 -73 -42.5 -118t-112.5 -45q-45 0 -91 18v110q22 -11 49 -11q30 0 48 16t18 43q0 9 -2 18.5t-7 20t-8.5 17.5t-11.5 21t-11 20l-119 204h-8l-155 -273h-151l220 360v5l-207 335h151l142 -244h8l143 244h150l-207 -334v-5l135 -217q36 -61 52.5 -101t16.5 -84z
" />
    <glyph glyph-name="uni04FD" unicode="&#x4fd;" horiz-adv-x="550" 
d="M414 -42q0 26 -37 81l-103 152h-4l-119 -191h-139l185 266v4l-178 250h142l113 -177h5l113 177h138l-176 -249v-4l115 -166q68 -99 68 -166q0 -63 -40.5 -101t-108.5 -38q-56 0 -96 18v103q25 -11 53 -11q32 0 50.5 14t18.5 38z" />
    <glyph glyph-name="uni04FE" unicode="&#x4fe;" horiz-adv-x="642" 
d="M86 310v103h119l-181 287h151l142 -251h8l143 251h150l-181 -287h119v-103h-117l193 -310h-151l-156 280h-8l-155 -280h-151l193 310h-118z" />
    <glyph glyph-name="uni04FF" unicode="&#x4ff;" horiz-adv-x="550" 
d="M64 221v94h104l-149 205h142l113 -184h5l113 184h138l-148 -205h102v-94h-102l155 -221h-141l-122 198h-4l-119 -198h-139l156 221h-104z" />
    <glyph glyph-name="uni0500" unicode="&#x500;" horiz-adv-x="630" 
d="M546 700v-700h-265q-111 0 -178 62.5t-67 164.5v6q0 102 67.5 163t178.5 61h133v243h131zM299 113h119v236h-118q-64 0 -98.5 -29.5t-34.5 -84.5v-5q0 -56 34.5 -86.5t97.5 -30.5z" />
    <glyph glyph-name="uni0501" unicode="&#x501;" horiz-adv-x="671" 
d="M294 -9q-109 0 -179 73.5t-70 188.5v14q0 115 70 188.5t179 73.5h5q106 0 173 -69v260h124v-720h-98q-12 33 -15 70q-71 -79 -184 -79h-5zM319 90h8q65 0 105 45.5t40 119.5v10q0 74 -40 119.5t-105 45.5h-8q-65 0 -105 -45.5t-40 -119.5v-10q0 -74 40 -119.5t105 -45.5z
" />
    <glyph glyph-name="uni0502" unicode="&#x502;" horiz-adv-x="899" 
d="M529 700v-492q0 -50 24 -77.5t65 -27.5q40 0 63.5 26.5t23.5 75.5v208h128v-208q0 -101 -55.5 -159t-149.5 -58q-114 0 -170 84q-65 -84 -188 -84q-105 0 -169.5 65.5t-64.5 171.5v6q0 105 64.5 169t170.5 64h127v236h131zM402 229v130h-110q-58 0 -91.5 -34.5
t-33.5 -95.5v-3q0 -57 31 -91t83 -34q55 0 88 35t33 93zM507 227h1h-1z" />
    <glyph glyph-name="uni0503" unicode="&#x503;" horiz-adv-x="929" 
d="M863 348v-164q0 -87 -53 -140t-139 -53h-6q-59 0 -101.5 27.5t-63.5 74.5q-79 -102 -202 -102h-5q-108 0 -178 73.5t-70 188.5v14q0 115 68.5 188.5t174.5 73.5h5q103 0 169 -69v260h124v-545q0 -38 21 -61.5t55 -23.5h8q34 0 54.5 23.5t20.5 61.5v173h118zM314 91h8
q62 0 101 46t39 119v9q0 74 -39 119.5t-101 45.5h-8q-62 0 -101 -45.5t-39 -119.5v-9q0 -73 39 -119t101 -46z" />
    <glyph glyph-name="uni0504" unicode="&#x504;" horiz-adv-x="895" 
d="M538 201q10 -98 81 -98q39 0 60.5 26.5t21.5 74.5v209h128v-208q0 -99 -57.5 -158t-153.5 -59q-87 0 -141 50t-67 140q-9 62 -37.5 89t-83.5 27h-93v100h66q51 0 82.5 28t31.5 74q0 44 -30 71.5t-79 27.5q-89 0 -147 -94l-108 64q101 147 268 147q100 0 163 -53.5
t63 -138.5q0 -105 -95 -159q110 -29 127 -160z" />
    <glyph glyph-name="uni0505" unicode="&#x505;" horiz-adv-x="768" 
d="M4 424q88 105 223 105h8q77 0 130 -40t53 -100v-12q0 -65 -73 -108q32 -9 52 -29.5t26.5 -37t12.5 -42.5q15 -70 72 -70h5q32 0 51 20.5t19 55.5v182h118v-177q0 -81 -51 -130.5t-135 -49.5h-9q-144 0 -184 131q-8 25 -12.5 37t-16 28.5t-30.5 23.5t-47 7h-60v83h64
q34 0 54.5 17.5t20.5 46.5v5q0 27 -21.5 44t-56.5 17h-4q-77 0 -123 -76z" />
    <glyph glyph-name="uni0506" unicode="&#x506;" horiz-adv-x="639" 
d="M196 297v101h67q53 0 84.5 27t31.5 72q0 44 -30.5 71t-81.5 27q-94 0 -147 -94l-108 64q98 147 266 147q102 0 166.5 -53.5t64.5 -137.5q0 -103 -95 -157q59 -17 93 -62.5t34 -109.5v-76h81v-251h-125v135h-87v181q0 53 -32.5 84.5t-88.5 31.5h-93z" />
    <glyph glyph-name="uni0507" unicode="&#x507;" horiz-adv-x="526" 
d="M440 146v-48h69v-226h-118v128h-77v136q0 38 -24.5 60t-67.5 22h-66v83h65q35 0 55.5 17.5t20.5 46.5v5q0 27 -21.5 44t-57.5 17h-4q-78 0 -124 -76l-86 69q88 105 223 105h8q76 0 130.5 -40.5t54.5 -99.5v-12q0 -66 -73 -107q43 -12 68 -45t25 -79z" />
    <glyph glyph-name="uni0508" unicode="&#x508;" horiz-adv-x="975" 
d="M473 205v379h-191l-10 -325q-2 -66 -11 -111t-29.5 -83.5t-59 -57t-95.5 -18.5q-35 0 -65 12v113q22 -9 43 -9q51 0 69.5 38t20.5 123l13 434h446v-495q0 -49 23.5 -75.5t64.5 -26.5q40 0 64 26.5t24 75.5v208h128v-208q0 -101 -59 -159t-159 -58t-158.5 58t-58.5 159z
" />
    <glyph glyph-name="uni0509" unicode="&#x509;" horiz-adv-x="849" 
d="M382 184v236h-150l-2 -153q-3 -156 -39 -216t-118 -60q-33 0 -59 10v100q16 -8 37 -8q38 0 50 38t14 154l3 235h388v-346q0 -38 21 -61t55 -23h7q34 0 54.5 23t20.5 61v174h118v-164q0 -87 -54 -140t-143 -53h-9q-88 0 -141 53t-53 140z" />
    <glyph glyph-name="uni050A" unicode="&#x50a;" horiz-adv-x="989" 
d="M488 209v90h-273v-299h-131v700h131v-285h273v285h130v-495q0 -49 24 -75.5t65 -26.5q40 0 63.5 26.5t23.5 75.5v208h128v-208q0 -99 -59 -158t-158 -59q-101 0 -159 59.5t-58 161.5z" />
    <glyph glyph-name="uni050B" unicode="&#x50b;" horiz-adv-x="878" 
d="M75 0v520h124v-198h212v198h124v-345q0 -38 21 -61.5t55 -23.5h8q34 0 54.5 23.5t20.5 61.5v173h118v-164q0 -87 -54.5 -140t-144.5 -53h-9q-86 0 -139.5 53t-53.5 140v38h-212v-222h-124z" />
    <glyph glyph-name="uni050C" unicode="&#x50c;" horiz-adv-x="757" 
d="M746 342v-102h-57q-26 -115 -110 -183t-204 -68q-147 0 -240.5 100.5t-93.5 258.5v4q0 157 96.5 258t247.5 101q90 0 164 -39t121 -112l-100 -70q-65 105 -181 105q-94 0 -153 -67.5t-59 -175.5v-6q0 -107 56 -174.5t145 -67.5q67 0 113 35t65 101h-119v102h309z" />
    <glyph glyph-name="uni050D" unicode="&#x50d;" horiz-adv-x="655" 
d="M323 425q-66 0 -108 -48t-42 -124q0 -73 39 -119t100 -46q45 0 78 26t44 71h-88v84h263v-84h-56q-14 -87 -79.5 -140.5t-158.5 -53.5h-6q-115 0 -190 75t-75 189v15q0 112 75.5 185.5t191.5 73.5q66 0 126 -25t97 -68l-69 -76q-23 29 -62 47t-80 18z" />
    <glyph glyph-name="uni050E" unicode="&#x50e;" horiz-adv-x="718" 
d="M217 205v379h-201v116h544v-116h-212v-379q0 -49 24 -75.5t64 -26.5t64 27t24 75v192h128v-192q0 -101 -59 -159t-158 -58t-158.5 58.5t-59.5 158.5z" />
    <glyph glyph-name="uni050F" unicode="&#x50f;" horiz-adv-x="641" 
d="M174 184v234h-156v102h446v-102h-166v-243q0 -38 21 -61.5t55 -23.5h7q34 0 54.5 23.5t20.5 61.5v117h118v-108q0 -87 -54.5 -140t-143.5 -53h-10q-86 0 -139 53t-53 140z" />
    <glyph glyph-name="uni0510" unicode="&#x510;" horiz-adv-x="622" 
d="M304 -11q-110 0 -184.5 54.5t-74.5 135.5v6q0 58 32.5 103.5t91.5 68.5q-101 58 -101 157v8q0 82 67 136t166 54q170 0 269 -147l-110 -65q-51 95 -150 95q-49 0 -80.5 -25t-31.5 -65v-2q0 -44 32 -69.5t87 -25.5h70v-101h-84q-58 0 -91 -26.5t-33 -71.5v-3
q0 -46 35.5 -73.5t94.5 -27.5q112 0 183 106l108 -66q-101 -156 -296 -156z" />
    <glyph glyph-name="uni0511" unicode="&#x511;" horiz-adv-x="513" 
d="M242 -9h-9q-85 0 -143 44t-58 107v8q0 40 26 75t69 50q-74 43 -74 106v11q0 58 55.5 97.5t132.5 39.5h8q148 0 226 -105l-86 -69q-40 76 -127 76h-4q-37 0 -59.5 -17t-22.5 -42v-4q0 -27 20.5 -44t55.5 -17h71v-84h-75q-44 0 -67.5 -16.5t-23.5 -47.5v-5q0 -27 26 -45.5
t66 -18.5h6q96 0 141 82l93 -57q-77 -124 -247 -124z" />
    <glyph glyph-name="uni0512" unicode="&#x512;" horiz-adv-x="706" 
d="M491 -8v592h-210l-3 -144q-2 -87 -5.5 -145t-11.5 -113.5t-21.5 -88t-35 -58t-52.5 -36t-73 -10.5q-37 0 -67 12v112q22 -9 45 -9q56 0 72.5 68.5t20.5 269.5l7 258h465v-735q0 -80 -39 -124.5t-113 -44.5q-50 0 -94 18v110q23 -11 52 -11q34 0 48.5 18t14.5 61z" />
    <glyph glyph-name="uni0513" unicode="&#x513;" horiz-adv-x="588" 
d="M390 -16v436h-158l-2 -132q-1 -117 -18.5 -182t-50 -90t-88.5 -25q-33 0 -59 10v100q16 -8 37 -8q38 0 50 38t14 154l1 235h398v-556q0 -78 -39.5 -123t-108.5 -45q-56 0 -98 18v103q27 -11 54 -11q37 0 52.5 18t15.5 60z" />
    <glyph glyph-name="uni0514" unicode="&#x514;" horiz-adv-x="962" 
d="M281 584l-3 -144q-2 -87 -5.5 -145t-11.5 -113.5t-21.5 -88t-35 -58t-52.5 -36t-73 -10.5q-37 0 -67 12v112q22 -9 45 -9q56 0 72.5 68.5t20.5 269.5l7 258h363l131 -244h8l131 244h148l-192 -334v-5l206 -361h-149l-144 273h-8l-143 -273h-149l205 360v5l-127 219h-156z
" />
    <glyph glyph-name="uni0515" unicode="&#x515;" horiz-adv-x="807" 
d="M289 0l175 266v4l-103 150h-129l-2 -132q-1 -117 -18.5 -182t-50 -90t-88.5 -25q-33 0 -59 10v100q16 -8 37 -8q39 0 50.5 37.5t13.5 154.5l2 235h314l110 -177h5l106 177h135l-166 -250v-4l173 -266h-139l-114 191h-4l-112 -191h-136z" />
    <glyph glyph-name="uni0516" unicode="&#x516;" horiz-adv-x="850" 
d="M85 0v700h234q99 0 163 -53.5t77 -145.5h4l113 199h150l-190 -310v-5l204 -385h-147l-157 320h-6q-64 -107 -209 -107h-105v-213h-131zM212 321h101q61 0 95 34.5t34 94.5v6q0 60 -34.5 94.5t-94.5 34.5h-101v-264z" />
    <glyph glyph-name="uni0517" unicode="&#x517;" horiz-adv-x="836" 
d="M682 0l-93 156q-24 -76 -83.5 -120.5t-138.5 -44.5h-5q-100 0 -163 69v-260h-124v720h98q12 -34 15 -70q65 79 174 79h5q78 0 137.5 -44.5t83.5 -119.5l90 155h139l-175 -255v-4l182 -261h-142zM342 90h6q64 0 103.5 45.5t39.5 119.5v10q0 74 -39.5 119.5t-103.5 45.5h-6
q-64 0 -103.5 -45.5t-39.5 -119.5v-10q0 -74 39.5 -119.5t103.5 -45.5z" />
    <glyph glyph-name="uni0518" unicode="&#x518;" horiz-adv-x="905" 
d="M426 0v246h-125l-137 -246h-148l162 275q-65 28 -102.5 79.5t-37.5 117.5v15q0 99 73.5 156t198.5 57h531v-116h-284v-175h264v-110h-264v-183h294v-116h-425zM323 349h107v239h-108q-70 0 -109.5 -28.5t-39.5 -79.5v-12q0 -54 39.5 -86.5t110.5 -32.5z" />
    <glyph glyph-name="uni0519" unicode="&#x519;" horiz-adv-x="861" 
d="M29 0l122 209q-48 20 -75.5 57.5t-27.5 86.5v8q0 72 51.5 115.5t136.5 43.5h343q106 0 171 -68.5t65 -180.5v-57h-373q14 -56 55 -87.5t101 -31.5q77 0 131 55l65 -79q-85 -80 -207 -80q-106 0 -175 60t-82 161h-53l-114 -212h-134zM392 425h-142q-37 0 -59.5 -18.5
t-22.5 -48.5v-6q0 -30 22.5 -48.5t59.5 -18.5h80q9 84 62 140zM571 423q-55 0 -91 -36.5t-42 -98.5h259q-1 61 -35.5 98t-90.5 37z" />
    <glyph glyph-name="uni051A" unicode="&#x51a;" horiz-adv-x="779" 
d="M571 -58v-97q-49 -13 -100 -13q-150 0 -150 146v16q-125 22 -202.5 119.5t-77.5 233.5v6q0 154 97.5 256.5t247.5 102.5h7q150 0 247.5 -101.5t97.5 -256.5v-8q0 -142 -83.5 -240.5t-216.5 -114.5v-11q3 -48 55 -48q38 0 78 10zM177 347q0 -107 59 -174.5t150 -67.5h6
q92 0 151 67.5t59 174.5v6q0 108 -58.5 175t-151.5 67h-6q-91 0 -150 -67.5t-59 -174.5v-6z" />
    <glyph glyph-name="uni051B" unicode="&#x51b;" horiz-adv-x="671" 
d="M472 -200v260q-67 -69 -173 -69h-5q-109 0 -179.5 73.5t-70.5 188.5v14q0 115 70.5 188.5t179.5 73.5h5q113 0 184 -79q4 43 15 70h98v-720h-124zM319 90h7q65 0 105.5 45.5t40.5 119.5v10q0 74 -40.5 119.5t-105.5 45.5h-7q-65 0 -105 -45.5t-40 -119.5v-10
q0 -74 40 -119.5t105 -45.5z" />
    <glyph glyph-name="uni051C" unicode="&#x51c;" horiz-adv-x="935" 
d="M171 0l-155 700h134l109 -550h6l144 550h111l146 -550h5l114 550h134l-160 -700h-168l-122 476h-7l-123 -476h-168z" />
    <glyph glyph-name="uni051D" unicode="&#x51d;" horiz-adv-x="825" 
d="M152 0l-124 520h125l80 -386h10l110 386h119l110 -387h10l81 387h124l-124 -520h-148l-110 362h-4l-111 -362h-148z" />
    <glyph glyph-name="uni051E" unicode="&#x51e;" horiz-adv-x="661" 
d="M84 0v700h132v-298h6l153 176l-72 57l50 58l72 -58l57 65h152l-120 -133l75 -59l-51 -61l-78 61l-118 -130l316 -378h-161l-275 337h-6v-337h-132z" />
    <glyph glyph-name="uni051F" unicode="&#x51f;" horiz-adv-x="569" 
d="M75 0v520h124v-219h8l108 113l-68 54l45 53l72 -57l53 56h140l-116 -116l81 -65l-45 -55l-87 69l-73 -74l246 -279h-149l-207 246h-8v-246h-124z" />
    <glyph glyph-name="uni0520" unicode="&#x520;" horiz-adv-x="1050" 
d="M79 -11q-37 0 -67 12v112q22 -9 45 -9q56 0 72.5 68.5t20.5 269.5l7 258h455v-280q80 26 145 26q106 0 166.5 -62t60.5 -175v-180q0 -105 -53.5 -165.5t-140.5 -60.5q-44 0 -84 15v101q27 -8 51 -8q46 0 72.5 32.5t26.5 96.5v163q0 127 -120 127q-57 0 -124 -26v-304
h-131v584h-200l-3 -144q-2 -87 -5.5 -145t-11.5 -113.5t-21.5 -88t-35 -58t-52.5 -36t-73 -10.5z" />
    <glyph glyph-name="uni0521" unicode="&#x521;" horiz-adv-x="855" 
d="M73 -9q-33 0 -59 10v100q16 -8 37 -8q38 0 50 38t14 154l1 235h387v-224q49 19 105 19q101 0 159.5 -61t58.5 -175v-37q0 -112 -55 -179t-146 -67q-45 0 -85 15v103q26 -9 55 -9q49 0 79 37.5t30 101.5v30q0 69 -32 104.5t-87 35.5q-48 0 -82 -20v-194h-124v420h-147
l-3 -152q-2 -157 -37.5 -217t-118.5 -60z" />
    <glyph glyph-name="uni0522" unicode="&#x522;" horiz-adv-x="1060" 
d="M84 0v700h131v-285h275v285h132v-285h68q304 0 304 -277v-96q0 -114 -53.5 -176.5t-140.5 -62.5q-44 0 -84 15v101q27 -8 51 -8q99 0 99 140v85q0 80 -46.5 121.5t-134.5 41.5h-63v-299h-132v299h-275v-299h-131z" />
    <glyph glyph-name="uni0523" unicode="&#x523;" horiz-adv-x="890" 
d="M75 0v520h121v-202h219v202h124v-202h53q124 0 196.5 -63t72.5 -180v-27q0 -113 -55 -182.5t-146 -69.5q-43 0 -85 15v103q27 -9 55 -9q49 0 79 39.5t30 104.5v20q0 73 -42.5 110t-115.5 37h-42v-216h-124v218h-219v-218h-121z" />
    <glyph glyph-name="uni0524" unicode="&#x524;" horiz-adv-x="739" 
d="M592 -135v135h-87v584h-290v-584h-131v700h552v-584h81v-251h-125z" />
    <glyph glyph-name="uni0525" unicode="&#x525;" horiz-adv-x="653" 
d="M513 -128v128h-79v420h-235v-420h-124v520h483v-422h73v-226h-118z" />
    <glyph glyph-name="uni0526" unicode="&#x526;" horiz-adv-x="709" 
d="M562 -135v135h-87v208q0 70 -29 99.5t-99 29.5q-58 0 -132 -25v-312h-131v700h131v-276q90 27 163 27q228 0 228 -220v-115h81v-251h-125z" />
    <glyph glyph-name="uni0527" unicode="&#x527;" horiz-adv-x="664" 
d="M525 -128v128h-79v306q0 116 -107 116q-64 0 -102 -36t-38 -98v-288h-124v720h124v-267q74 77 187 77q88 0 136 -52t48 -146v-234h73v-226h-118z" />
    <glyph glyph-name="uni0528" unicode="&#x528;" horiz-adv-x="714" 
d="M84 -8v708h131v-285h284v285h131v-700h-131v299h-284v-334q0 -80 -39 -124.5t-112 -44.5q-51 0 -94 18v110q22 -11 51 -11q34 0 48.5 18t14.5 61z" />
    <glyph glyph-name="uni0529" unicode="&#x529;" horiz-adv-x="626" 
d="M71 -16v536h121v-198h235v198h124v-520h-124v222h-235v-258q0 -78 -37 -123t-102 -45q-48 0 -90 18v103q27 -11 50 -11q31 0 44.5 18t13.5 60z" />
    <glyph glyph-name="uni052A" unicode="&#x52a;" horiz-adv-x="1224" 
d="M699 0v313h-122v-201h66v-247h-125v135h-376v-135h-125v247h54q62 79 62 515v73h444v-275h122v275h127v-275h81l143 275h138l-175 -322l206 -378h-149l-163 313h-81v-313h-127zM448 112v477h-189v-11q-3 -338 -64 -466h253z" />
    <glyph glyph-name="uni052B" unicode="&#x52b;" horiz-adv-x="1045" 
d="M601 0v227h-95v-129h48v-226h-118v128h-300v-128h-118v226h41q50 57 50 422h397v-200h95v200h119v-200h60l112 200h129l-144 -241l157 -279h-135l-118 227h-61v-227h-119zM179 98h203v325h-156q-6 -276 -47 -325z" />
    <glyph glyph-name="uni052C" unicode="&#x52c;" horiz-adv-x="701" 
d="M28 -135v247h52q83 77 121 177q-157 36 -157 207v204h123v-198q0 -90 60 -112q9 52 9 113v197h377v-588h79v-247h-122v135h-420v-135h-122zM336 381h152v213h-136v-71q0 -70 -16 -142zM488 111v173h-180q-39 -102 -104 -173h284z" />
    <glyph glyph-name="uni052D" unicode="&#x52d;" horiz-adv-x="615" 
d="M23 -128v226h42q63 41 100 111q-68 10 -97.5 46t-29.5 100v165h110v-154q0 -58 48 -70q7 34 7 73v151h321v-422h71v-226h-117v128h-339v-128h-116zM295 288h114v139h-101q0 -74 -13 -139zM191 94h218v116h-138q-28 -68 -80 -116z" />
    <glyph glyph-name="uni052E" unicode="&#x52e;" horiz-adv-x="725" 
d="M578 -135v135h-87v584h-210l-3 -144q-2 -87 -5.5 -145t-11.5 -113.5t-21.5 -88t-35 -58t-52.5 -36t-73 -10.5q-37 0 -67 12v112q22 -9 45 -9q56 0 72.5 68.5t20.5 269.5l7 258h465v-584h81v-251h-125z" />
    <glyph glyph-name="uni052F" unicode="&#x52f;" horiz-adv-x="608" 
d="M468 -128v128h-78v420h-158l-2 -132q-1 -117 -18.5 -182t-50 -90t-88.5 -25q-33 0 -59 10v100q16 -8 37 -8q38 0 50 38t14 154l1 235h398v-422h72v-226h-118z" />
    <glyph glyph-name="uni058F" unicode="&#x58f;" horiz-adv-x="653" 
d="M305 712q128 0 201.5 -70t73.5 -200v-96h82v-95h-82v-42h82v-95h-82v-114h-132v114h-130v95h130v42h-130v95h130v89q0 78 -37.5 117t-105.5 39t-106 -39t-38 -117v-31h-132v38q0 128 73 199t203 71z" />
    <glyph glyph-name="uni1C80" unicode="&#x1c80;" horiz-adv-x="570" 
d="M319 -10q-116 0 -195.5 100t-79.5 257v32q0 157 79 257t194 100h8q90 0 147.5 -45.5t57.5 -112.5v-20q0 -67 -57.5 -112.5t-146.5 -45.5q-85 0 -150 54q-5 -40 -5 -79v-24q0 -38 5 -76q65 55 152 55q91 0 148.5 -45.5t57.5 -113.5v-21q0 -69 -57.5 -114.5t-149.5 -45.5
h-8zM202 544q42 -49 110 -49q39 0 65.5 19t26.5 46v11q0 27 -23 46t-53 19h-14q-32 0 -61.5 -23.5t-50.5 -68.5zM202 184q20 -46 50.5 -70t63.5 -24h15q31 0 54 19.5t23 47.5v12q0 29 -27 48t-67 19q-67 0 -112 -52z" />
    <glyph glyph-name="uni1C81" unicode="&#x1c81;" horiz-adv-x="572" 
d="M3 -200v298h51l155 422h155l153 -422h52v-298h-118v200h-330v-200h-118zM181 98h209l-99 308h-10z" />
    <glyph glyph-name="uni1C82" unicode="&#x1c82;" horiz-adv-x="561" 
d="M279 -9q-102 0 -168 73.5t-66 188.5v14q0 115 66 188.5t168 73.5h4q103 0 168.5 -73.5t65.5 -188.5v-14q0 -115 -65.5 -188.5t-168.5 -73.5h-4zM278 106h6q54 0 87.5 41.5t33.5 108.5v8q0 67 -33.5 108.5t-87.5 41.5h-6q-53 0 -86.5 -41.5t-33.5 -108.5v-8
q0 -67 33.5 -108.5t86.5 -41.5z" />
    <glyph glyph-name="uni1C83" unicode="&#x1c83;" horiz-adv-x="571" 
d="M547 315v-12h-125v9q0 119 -105 119h-4q-60 0 -99.5 -54.5t-39.5 -144.5v-13q0 -90 52 -148.5t134 -58.5h8q67 0 112 34l43 -91q-64 -42 -160 -42h-9q-139 0 -224.5 84t-85.5 216v16q0 131 74 215.5t186 84.5h7q108 0 172 -56.5t64 -157.5z" />
    <glyph glyph-name="uni1C84" unicode="&#x1c84;" horiz-adv-x="427" 
d="M226 0h-126l145 575l-92 22q-50 12 -70 12q-23 0 -33.5 -11t-10.5 -39h-108q0 153 130 153q35 0 107 -19l157 -40q49 -13 85 -13q9 0 27 2v-101q-5 -1 -16 -1q-30 0 -64 8z" />
    <glyph glyph-name="uni1C85" unicode="&#x1c85;" horiz-adv-x="852" 
d="M777 520v-520h-122v422h-168v-422h-122v422h-168v-422h-123v520h703z" />
    <glyph glyph-name="uni1C86" unicode="&#x1c86;" horiz-adv-x="595" 
d="M100 0l129 575l-91 21q-44 11 -68 11q-23 0 -33 -10.5t-10 -37.5h-108q0 153 127 153q30 0 104 -18l214 -49l-61 -277h79q80 0 132 -50t52 -126v-17q0 -76 -52.5 -125.5t-133.5 -49.5h-280zM243 96h121q33 0 55.5 23.5t22.5 58.5v13q0 35 -22.5 58.5t-55.5 23.5h-82z" />
    <glyph glyph-name="uni1C87" unicode="&#x1c87;" horiz-adv-x="612" 
d="M-101 559q0 151 129 151q38 0 106 -18l18 -5v43h120v-73l18 -5q57 -12 84 -12q9 0 27 2v-101q-5 -1 -16 -1q-39 0 -111 19h-2v-191h127q80 0 132 -50t52 -126v-17q0 -76 -52.5 -125.5t-133.5 -49.5h-249v590l-28 7q-50 12 -70 12q-23 0 -33 -11t-10 -39h-108zM269 96h112
q33 0 55.5 23.5t22.5 58.5v13q0 35 -22.5 58.5t-55.5 23.5h-112v-177z" />
    <glyph glyph-name="uni1C88" unicode="&#x1c88;" horiz-adv-x="560" 
d="M278 -9q-102 0 -168 69.5t-66 177.5v14q0 73 31.5 130.5t86.5 87.5l-141 250h137l115 -221h10l68 127q27 56 51 79.5t64 23.5q24 0 56 -9v-100q-15 6 -27 6q-19 0 -39 -35l-64 -118q57 -30 90 -88t33 -133v-14q0 -108 -66 -177.5t-167 -69.5h-4zM277 106h6q53 0 86.5 38
t33.5 99v8q0 61 -33.5 99t-86.5 38h-6q-53 0 -86.5 -38t-33.5 -99v-8q0 -61 33.5 -99t86.5 -38z" />
    <glyph glyph-name="uni1D2B" unicode="&#x1d2b;" horiz-adv-x="558" 
d="M362 520l183 -520h-129l-132 406h-10l-131 -406h-129l183 520h165z" />
    <glyph glyph-name="Wgrave" unicode="&#x1e80;" horiz-adv-x="935" 
d="M411 742l-73 147h121l56 -147h-104zM171 0l-155 700h134l109 -550h6l144 550h111l146 -550h5l114 550h134l-160 -700h-168l-122 476h-7l-123 -476h-168z" />
    <glyph glyph-name="wgrave" unicode="&#x1e81;" horiz-adv-x="825" 
d="M367 575l-75 155h114l56 -155h-95zM152 0l-124 520h125l80 -386h10l110 386h119l110 -387h10l81 387h124l-124 -520h-148l-110 362h-4l-111 -362h-148z" />
    <glyph glyph-name="Wacute" unicode="&#x1e82;" horiz-adv-x="935" 
d="M580 889l-71 -147h-100l52 147h119zM171 0l-155 700h134l109 -550h6l144 550h111l146 -550h5l114 550h134l-160 -700h-168l-122 476h-7l-123 -476h-168z" />
    <glyph glyph-name="wacute" unicode="&#x1e83;" horiz-adv-x="825" 
d="M455 575h-95l57 155h113zM152 0l-124 520h125l80 -386h10l110 386h119l110 -387h10l81 387h124l-124 -520h-148l-110 362h-4l-111 -362h-148z" />
    <glyph glyph-name="Wdieresis" unicode="&#x1e84;" horiz-adv-x="935" 
d="M349 755q-28 0 -46 16.5t-18 43.5t18 45t46 18q29 0 48 -18t19 -45t-19 -43.5t-48 -16.5zM578 755q-29 0 -46.5 16.5t-17.5 43.5t18 45t46 18q29 0 48 -18t19 -45t-19 -43.5t-48 -16.5zM171 0l-155 700h134l109 -550h6l144 550h111l146 -550h5l114 550h134l-160 -700
h-168l-122 476h-7l-123 -476h-168z" />
    <glyph glyph-name="wdieresis" unicode="&#x1e85;" horiz-adv-x="825" 
d="M518 595q-28 0 -46 17.5t-18 44.5t18 44.5t46 17.5q29 0 48 -17.5t19 -44.5t-19 -44.5t-48 -17.5zM305 595q-28 0 -46.5 17.5t-18.5 44.5t18.5 44.5t46.5 17.5t47 -17.5t19 -44.5t-19 -44.5t-47 -17.5zM152 0l-124 520h125l80 -386h10l110 386h119l110 -387h10l81 387
h124l-124 -520h-148l-110 362h-4l-111 -362h-148z" />
    <glyph glyph-name="Germandbls" unicode="&#x1e9e;" horiz-adv-x="715" 
d="M425 -11q-93 0 -158 45l71 103q40 -27 86 -27q56 0 90 31t34 82q0 50 -32.5 81t-84.5 31q-50 0 -87 -21l-44 75l171 195h-121q-65 0 -105 -44t-40 -115v-425h-131v427q0 123 70 198t185 75h283v-100l-152 -169q4 0 10 0.5t9 0.5q91 -5 145.5 -62.5t54.5 -149.5
q0 -105 -69.5 -168t-184.5 -63z" />
    <glyph glyph-name="uni1EBC" unicode="&#x1ebc;" horiz-adv-x="580" 
d="M307 866q40 -17 64 -17q29 0 31 35h104q-5 -60 -32.5 -95t-73.5 -35q-36 0 -83 19q-40 17 -64 17q-29 0 -31 -35h-104q5 60 32.5 95t73.5 35q36 0 83 -19zM84 0v700h432v-116h-301v-175h281v-110h-281v-183h311v-116h-442z" />
    </font>
</defs>
</svg>
